<?xml version="1.0" encoding="UTF-8"?>
<svg xmlns="http://www.w3.org/2000/svg" xmlns:xlink="http://www.w3.org/1999/xlink" width="495pt" height="104pt" viewBox="0 0 495 104" version="1.1">
<g id="surface1">
<path style="fill-rule:nonzero;fill:rgb(69.803922%,85.098039%,100%);fill-opacity:1;stroke-width:1;stroke-linecap:round;stroke-linejoin:round;stroke:rgb(0%,0%,0%);stroke-opacity:1;stroke-miterlimit:10;" d="M 216.71875 -24.5 L 237.71875 -24.5 L 237.71875 -3.5 L 216.71875 -3.5 Z M 216.71875 -24.5 " transform="matrix(1.25,0,0,1.25,-3.75,65)"/>
<path style=" stroke:none;fill-rule:nonzero;fill:rgb(0%,0%,0%);fill-opacity:1;" d="M 275.625 48.203125 L 275.625 47.207031 L 278.671875 47.207031 L 278.671875 48.203125 Z M 275.625 48.203125 "/>
<path style=" stroke:none;fill-rule:nonzero;fill:rgb(0%,0%,0%);fill-opacity:1;" d="M 279.488281 48.496094 L 280.484375 48.359375 C 280.601562 48.921875 280.785156 49.328125 281.050781 49.570312 C 281.324219 49.820312 281.660156 49.941406 282.066406 49.941406 C 282.519531 49.941406 282.90625 49.785156 283.21875 49.472656 C 283.539062 49.148438 283.707031 48.746094 283.707031 48.261719 C 283.707031 47.808594 283.554688 47.4375 283.257812 47.148438 C 282.96875 46.851562 282.597656 46.699219 282.144531 46.699219 C 281.949219 46.699219 281.714844 46.738281 281.441406 46.816406 L 281.558594 45.9375 C 281.621094 45.953125 281.675781 45.957031 281.714844 45.957031 C 282.128906 45.957031 282.503906 45.851562 282.847656 45.625 C 283.183594 45.40625 283.355469 45.070312 283.355469 44.609375 C 283.355469 44.25 283.226562 43.945312 282.984375 43.710938 C 282.734375 43.476562 282.417969 43.359375 282.027344 43.359375 C 281.644531 43.359375 281.328125 43.484375 281.070312 43.730469 C 280.820312 43.964844 280.660156 44.328125 280.582031 44.804688 L 279.585938 44.628906 C 279.710938 43.964844 279.984375 43.453125 280.40625 43.085938 C 280.835938 42.726562 281.367188 42.539062 282.007812 42.539062 C 282.445312 42.539062 282.851562 42.636719 283.21875 42.832031 C 283.59375 43.015625 283.882812 43.273438 284.078125 43.59375 C 284.273438 43.921875 284.371094 44.265625 284.371094 44.628906 C 284.371094 44.980469 284.273438 45.304688 284.078125 45.585938 C 283.890625 45.875 283.617188 46.101562 283.257812 46.269531 C 283.734375 46.375 284.105469 46.601562 284.371094 46.953125 C 284.628906 47.296875 284.761719 47.726562 284.761719 48.242188 C 284.761719 48.945312 284.496094 49.546875 283.980469 50.039062 C 283.472656 50.523438 282.828125 50.761719 282.046875 50.761719 C 281.34375 50.761719 280.757812 50.554688 280.289062 50.136719 C 279.820312 49.722656 279.550781 49.175781 279.488281 48.496094 Z M 279.488281 48.496094 "/>
<path style="fill-rule:nonzero;fill:rgb(69.803922%,85.098039%,100%);fill-opacity:1;stroke-width:1;stroke-linecap:round;stroke-linejoin:round;stroke:rgb(0%,0%,0%);stroke-opacity:1;stroke-miterlimit:10;" d="M 195.71875 -24.5 L 216.71875 -24.5 L 216.71875 -3.5 L 195.71875 -3.5 Z M 195.71875 -24.5 " transform="matrix(1.25,0,0,1.25,-3.75,65)"/>
<path style=" stroke:none;fill-rule:nonzero;fill:rgb(0%,0%,0%);fill-opacity:1;" d="M 249.375 48.203125 L 249.375 47.207031 L 252.421875 47.207031 L 252.421875 48.203125 Z M 249.375 48.203125 "/>
<path style=" stroke:none;fill-rule:nonzero;fill:rgb(0%,0%,0%);fill-opacity:1;" d="M 256.96875 50.625 L 255.972656 50.625 L 255.972656 44.316406 C 255.738281 44.550781 255.425781 44.785156 255.035156 45.019531 C 254.644531 45.242188 254.296875 45.40625 254 45.507812 L 254 44.550781 C 254.546875 44.304688 255.023438 44 255.445312 43.632812 C 255.859375 43.257812 256.152344 42.890625 256.324219 42.539062 L 256.96875 42.539062 Z M 256.96875 50.625 "/>
<path style="fill-rule:nonzero;fill:rgb(69.803922%,85.098039%,100%);fill-opacity:1;stroke-width:1;stroke-linecap:round;stroke-linejoin:round;stroke:rgb(0%,0%,0%);stroke-opacity:1;stroke-miterlimit:10;" d="M 14 -24.5 L 35 -24.5 L 35 -3.5 L 14 -3.5 Z M 14 -24.5 " transform="matrix(1.25,0,0,1.25,-3.75,65)"/>
<path style=" stroke:none;fill-rule:nonzero;fill:rgb(0%,0%,0%);fill-opacity:1;" d="M 29.410156 49.667969 L 29.410156 50.625 L 24.078125 50.625 C 24.078125 50.390625 24.117188 50.164062 24.195312 49.941406 C 24.335938 49.578125 24.558594 49.21875 24.859375 48.867188 C 25.15625 48.515625 25.585938 48.117188 26.148438 47.65625 C 27.019531 46.929688 27.605469 46.359375 27.90625 45.9375 C 28.21875 45.523438 28.375 45.125 28.375 44.746094 C 28.375 44.355469 28.230469 44.03125 27.945312 43.769531 C 27.671875 43.496094 27.3125 43.359375 26.871094 43.359375 C 26.386719 43.359375 26.003906 43.507812 25.71875 43.789062 C 25.429688 44.078125 25.289062 44.472656 25.289062 44.980469 L 24.273438 44.863281 C 24.335938 44.109375 24.597656 43.535156 25.054688 43.144531 C 25.507812 42.742188 26.121094 42.539062 26.890625 42.539062 C 27.65625 42.539062 28.261719 42.753906 28.707031 43.183594 C 29.160156 43.613281 29.390625 44.140625 29.390625 44.765625 C 29.390625 45.09375 29.324219 45.410156 29.195312 45.722656 C 29.0625 46.035156 28.84375 46.367188 28.53125 46.71875 C 28.230469 47.0625 27.730469 47.53125 27.027344 48.125 C 26.425781 48.625 26.042969 48.960938 25.875 49.140625 C 25.703125 49.328125 25.566406 49.5 25.464844 49.667969 Z M 29.410156 49.667969 "/>
<path style="fill-rule:nonzero;fill:rgb(69.803922%,85.098039%,100%);fill-opacity:1;stroke-width:1;stroke-linecap:round;stroke-linejoin:round;stroke:rgb(0%,0%,0%);stroke-opacity:1;stroke-miterlimit:10;" d="M 35 -24.5 L 56 -24.5 L 56 -3.5 L 35 -3.5 Z M 35 -24.5 " transform="matrix(1.25,0,0,1.25,-3.75,65)"/>
<path style=" stroke:none;fill-rule:nonzero;fill:rgb(0%,0%,0%);fill-opacity:1;" d="M 50.464844 48.496094 L 51.460938 48.359375 C 51.578125 48.921875 51.765625 49.328125 52.027344 49.570312 C 52.300781 49.820312 52.636719 49.941406 53.042969 49.941406 C 53.496094 49.941406 53.882812 49.785156 54.195312 49.472656 C 54.519531 49.148438 54.683594 48.746094 54.683594 48.261719 C 54.683594 47.808594 54.53125 47.4375 54.234375 47.148438 C 53.945312 46.851562 53.574219 46.699219 53.121094 46.699219 C 52.925781 46.699219 52.691406 46.738281 52.417969 46.816406 L 52.535156 45.9375 C 52.597656 45.953125 52.652344 45.957031 52.691406 45.957031 C 53.105469 45.957031 53.484375 45.851562 53.824219 45.625 C 54.160156 45.40625 54.332031 45.070312 54.332031 44.609375 C 54.332031 44.25 54.207031 43.945312 53.960938 43.710938 C 53.710938 43.476562 53.394531 43.359375 53.003906 43.359375 C 52.625 43.359375 52.304688 43.484375 52.046875 43.730469 C 51.796875 43.964844 51.636719 44.328125 51.558594 44.804688 L 50.5625 44.628906 C 50.691406 43.964844 50.964844 43.453125 51.382812 43.085938 C 51.8125 42.726562 52.34375 42.539062 52.984375 42.539062 C 53.425781 42.539062 53.828125 42.636719 54.195312 42.832031 C 54.570312 43.015625 54.859375 43.273438 55.054688 43.59375 C 55.25 43.921875 55.347656 44.265625 55.347656 44.628906 C 55.347656 44.980469 55.25 45.304688 55.054688 45.585938 C 54.871094 45.875 54.597656 46.101562 54.234375 46.269531 C 54.714844 46.375 55.085938 46.601562 55.347656 46.953125 C 55.605469 47.296875 55.738281 47.726562 55.738281 48.242188 C 55.738281 48.945312 55.476562 49.546875 54.957031 50.039062 C 54.449219 50.523438 53.804688 50.761719 53.023438 50.761719 C 52.320312 50.761719 51.734375 50.554688 51.265625 50.136719 C 50.796875 49.722656 50.527344 49.175781 50.464844 48.496094 Z M 50.464844 48.496094 "/>
<path style="fill-rule:nonzero;fill:rgb(100%,100%,100%);fill-opacity:1;stroke-width:1;stroke-linecap:round;stroke-linejoin:round;stroke:rgb(0%,0%,0%);stroke-opacity:1;stroke-miterlimit:10;" d="M 56 -24.5 L 77 -24.5 L 77 -3.5 L 56 -3.5 Z M 56 -24.5 " transform="matrix(1.25,0,0,1.25,-3.75,65)"/>
<path style=" stroke:none;fill-rule:nonzero;fill:rgb(0%,0%,0%);fill-opacity:1;" d="M 79.878906 50.625 L 79.878906 48.691406 L 76.382812 48.691406 L 76.382812 47.792969 L 80.054688 42.578125 L 80.875 42.578125 L 80.875 47.792969 L 81.96875 47.792969 L 81.96875 48.691406 L 80.875 48.691406 L 80.875 50.625 Z M 79.878906 47.792969 L 79.878906 44.160156 L 77.359375 47.792969 Z M 79.878906 47.792969 "/>
<path style="fill-rule:nonzero;fill:rgb(100%,100%,100%);fill-opacity:1;stroke-width:1;stroke-linecap:round;stroke-linejoin:round;stroke:rgb(0%,0%,0%);stroke-opacity:1;stroke-miterlimit:10;" d="M 77 -24.5 L 98 -24.5 L 98 -3.5 L 77 -3.5 Z M 77 -24.5 " transform="matrix(1.25,0,0,1.25,-3.75,65)"/>
<path style=" stroke:none;fill-rule:nonzero;fill:rgb(0%,0%,0%);fill-opacity:1;" d="M 102.964844 48.515625 L 104 48.417969 C 104.078125 48.925781 104.253906 49.3125 104.527344 49.570312 C 104.8125 49.820312 105.152344 49.941406 105.542969 49.941406 C 106.023438 49.941406 106.425781 49.765625 106.753906 49.414062 C 107.089844 49.054688 107.261719 48.574219 107.261719 47.988281 C 107.261719 47.417969 107.097656 46.96875 106.773438 46.640625 C 106.460938 46.320312 106.050781 46.152344 105.542969 46.152344 C 105.214844 46.152344 104.921875 46.230469 104.664062 46.386719 C 104.414062 46.53125 104.214844 46.714844 104.058594 46.933594 L 103.140625 46.816406 L 103.921875 42.675781 L 107.925781 42.675781 L 107.925781 43.632812 L 104.703125 43.632812 L 104.273438 45.78125 C 104.753906 45.460938 105.261719 45.292969 105.796875 45.292969 C 106.5 45.292969 107.089844 45.539062 107.574219 46.015625 C 108.054688 46.5 108.296875 47.125 108.296875 47.890625 C 108.296875 48.625 108.085938 49.253906 107.671875 49.785156 C 107.148438 50.4375 106.441406 50.761719 105.542969 50.761719 C 104.8125 50.761719 104.214844 50.5625 103.746094 50.15625 C 103.289062 49.742188 103.027344 49.195312 102.964844 48.515625 Z M 102.964844 48.515625 "/>
<path style="fill-rule:nonzero;fill:rgb(100%,100%,100%);fill-opacity:1;stroke-width:1;stroke-linecap:round;stroke-linejoin:round;stroke:rgb(0%,0%,0%);stroke-opacity:1;stroke-miterlimit:10;" d="M 140 -24.5 L 161 -24.5 L 161 -3.5 L 140 -3.5 Z M 140 -24.5 " transform="matrix(1.25,0,0,1.25,-3.75,65)"/>
<path style=" stroke:none;fill-rule:nonzero;fill:rgb(0%,0%,0%);fill-opacity:1;" d="M 183.238281 46.25 C 182.820312 46.109375 182.515625 45.898438 182.320312 45.625 C 182.125 45.34375 182.027344 45 182.027344 44.609375 C 182.027344 44.023438 182.234375 43.535156 182.652344 43.144531 C 183.082031 42.742188 183.640625 42.539062 184.332031 42.539062 C 185.035156 42.539062 185.601562 42.75 186.03125 43.164062 C 186.460938 43.570312 186.675781 44.0625 186.675781 44.648438 C 186.675781 45.015625 186.578125 45.34375 186.382812 45.625 C 186.1875 45.898438 185.886719 46.109375 185.484375 46.25 C 185.976562 46.421875 186.355469 46.6875 186.617188 47.050781 C 186.875 47.402344 187.007812 47.828125 187.007812 48.320312 C 187.007812 49.015625 186.757812 49.589844 186.265625 50.058594 C 185.78125 50.527344 185.144531 50.761719 184.351562 50.761719 C 183.554688 50.761719 182.910156 50.527344 182.417969 50.058594 C 181.933594 49.589844 181.695312 49.003906 181.695312 48.300781 C 181.695312 47.78125 181.824219 47.34375 182.085938 46.992188 C 182.359375 46.632812 182.742188 46.382812 183.238281 46.25 Z M 183.042969 44.589844 C 183.042969 44.96875 183.160156 45.28125 183.394531 45.527344 C 183.640625 45.761719 183.960938 45.878906 184.351562 45.878906 C 184.742188 45.878906 185.054688 45.761719 185.289062 45.527344 C 185.535156 45.28125 185.660156 44.980469 185.660156 44.628906 C 185.660156 44.277344 185.535156 43.980469 185.289062 43.730469 C 185.039062 43.484375 184.726562 43.359375 184.351562 43.359375 C 183.972656 43.359375 183.660156 43.484375 183.414062 43.730469 C 183.164062 43.964844 183.042969 44.253906 183.042969 44.589844 Z M 182.710938 48.300781 C 182.710938 48.589844 182.773438 48.863281 182.90625 49.121094 C 183.046875 49.382812 183.25 49.585938 183.511719 49.726562 C 183.769531 49.875 184.058594 49.941406 184.371094 49.941406 C 184.839844 49.941406 185.222656 49.796875 185.523438 49.492188 C 185.835938 49.195312 185.992188 48.808594 185.992188 48.339844 C 185.992188 47.859375 185.835938 47.460938 185.523438 47.148438 C 185.210938 46.835938 184.8125 46.679688 184.332031 46.679688 C 183.863281 46.679688 183.472656 46.835938 183.160156 47.148438 C 182.859375 47.460938 182.710938 47.847656 182.710938 48.300781 Z M 182.710938 48.300781 "/>
<path style="fill-rule:nonzero;fill:rgb(100%,100%,100%);fill-opacity:1;stroke-width:1;stroke-linecap:round;stroke-linejoin:round;stroke:rgb(0%,0%,0%);stroke-opacity:1;stroke-miterlimit:10;" d="M 98 -24.5 L 119 -24.5 L 119 -3.5 L 98 -3.5 Z M 98 -24.5 " transform="matrix(1.25,0,0,1.25,-3.75,65)"/>
<path style=" stroke:none;fill-rule:nonzero;fill:rgb(0%,0%,0%);fill-opacity:1;" d="M 134.351562 44.550781 L 133.355469 44.628906 C 133.277344 44.238281 133.152344 43.953125 132.984375 43.769531 C 132.722656 43.496094 132.398438 43.359375 132.007812 43.359375 C 131.679688 43.359375 131.402344 43.445312 131.167969 43.613281 C 130.855469 43.847656 130.605469 44.179688 130.425781 44.609375 C 130.253906 45.039062 130.164062 45.660156 130.152344 46.464844 C 130.386719 46.113281 130.671875 45.855469 131.011719 45.683594 C 131.363281 45.503906 131.726562 45.410156 132.105469 45.410156 C 132.769531 45.410156 133.328125 45.65625 133.785156 46.132812 C 134.253906 46.617188 134.488281 47.242188 134.488281 48.007812 C 134.488281 48.515625 134.375 48.992188 134.15625 49.433594 C 133.933594 49.863281 133.632812 50.195312 133.257812 50.429688 C 132.878906 50.648438 132.449219 50.761719 131.96875 50.761719 C 131.148438 50.761719 130.476562 50.464844 129.957031 49.863281 C 129.433594 49.253906 129.175781 48.25 129.175781 46.855469 C 129.175781 45.308594 129.460938 44.175781 130.035156 43.457031 C 130.527344 42.847656 131.207031 42.539062 132.066406 42.539062 C 132.691406 42.539062 133.203125 42.726562 133.609375 43.085938 C 134.011719 43.4375 134.257812 43.925781 134.351562 44.550781 Z M 130.308594 48.007812 C 130.308594 48.359375 130.378906 48.691406 130.523438 49.003906 C 130.664062 49.304688 130.867188 49.539062 131.128906 49.707031 C 131.386719 49.863281 131.660156 49.941406 131.949219 49.941406 C 132.363281 49.941406 132.722656 49.78125 133.023438 49.453125 C 133.320312 49.117188 133.472656 48.652344 133.472656 48.066406 C 133.472656 47.507812 133.320312 47.070312 133.023438 46.757812 C 132.734375 46.4375 132.363281 46.269531 131.910156 46.269531 C 131.464844 46.269531 131.089844 46.4375 130.777344 46.757812 C 130.464844 47.070312 130.308594 47.492188 130.308594 48.007812 Z M 130.308594 48.007812 "/>
<path style="fill-rule:nonzero;fill:rgb(100%,100%,100%);fill-opacity:1;stroke-width:1;stroke-linecap:round;stroke-linejoin:round;stroke:rgb(0%,0%,0%);stroke-opacity:1;stroke-miterlimit:10;" d="M 119 -24.5 L 140 -24.5 L 140 -3.5 L 119 -3.5 Z M 119 -24.5 " transform="matrix(1.25,0,0,1.25,-3.75,65)"/>
<path style=" stroke:none;fill-rule:nonzero;fill:rgb(0%,0%,0%);fill-opacity:1;" d="M 155.523438 43.632812 L 155.523438 42.675781 L 160.738281 42.675781 L 160.738281 43.4375 C 160.230469 43.984375 159.722656 44.71875 159.214844 45.625 C 158.707031 46.523438 158.316406 47.457031 158.042969 48.417969 C 157.847656 49.082031 157.722656 49.820312 157.671875 50.625 L 156.65625 50.625 C 156.667969 49.992188 156.792969 49.226562 157.027344 48.339844 C 157.261719 47.441406 157.597656 46.578125 158.042969 45.742188 C 158.496094 44.914062 158.972656 44.210938 159.46875 43.632812 Z M 155.523438 43.632812 "/>
<path style=" stroke:none;fill-rule:nonzero;fill:rgb(0%,0%,0%);fill-opacity:1;" d="M 209.453125 68.730469 L 209.960938 67.167969 C 211.117188 67.574219 211.960938 67.925781 212.5 68.222656 C 212.351562 66.910156 212.285156 65.996094 212.285156 65.488281 L 213.867188 65.488281 C 213.835938 66.21875 213.753906 67.128906 213.613281 68.222656 C 214.367188 67.847656 215.234375 67.496094 216.210938 67.167969 L 216.71875 68.730469 C 215.78125 69.03125 214.867188 69.234375 213.984375 69.335938 C 214.421875 69.726562 215.058594 70.421875 215.878906 71.40625 L 214.550781 72.34375 C 214.121094 71.773438 213.617188 70.984375 213.046875 69.980469 C 212.5 71.023438 212.023438 71.8125 211.621094 72.34375 L 210.3125 71.40625 C 211.171875 70.367188 211.78125 69.679688 212.148438 69.335938 C 211.195312 69.15625 210.296875 68.953125 209.453125 68.730469 Z M 209.453125 68.730469 "/>
<path style=" stroke:none;fill-rule:nonzero;fill:rgb(0%,0%,0%);fill-opacity:1;" d="M 321.542969 66.152344 L 310.898438 66.152344 L 310.898438 64.316406 L 321.542969 64.316406 Z M 321.542969 71.035156 L 310.898438 71.035156 L 310.898438 69.199219 L 321.542969 69.199219 Z M 321.542969 71.035156 "/>
<path style="fill-rule:nonzero;fill:rgb(100%,100%,100%);fill-opacity:1;stroke-width:1;stroke-linecap:round;stroke-linejoin:round;stroke:rgb(0%,0%,0%);stroke-opacity:1;stroke-miterlimit:10;" d="M 135 -7.5 L 156 -7.5 L 156 13.5 L 135 13.5 Z M 135 -7.5 " transform="matrix(1.25,0,0,1.25,-3.75,65)"/>
<path style=" stroke:none;fill-rule:nonzero;fill:rgb(0%,0%,0%);fill-opacity:1;" d="M 175.523438 64.882812 L 175.523438 63.925781 L 180.738281 63.925781 L 180.738281 64.6875 C 180.230469 65.234375 179.722656 65.96875 179.214844 66.875 C 178.707031 67.773438 178.316406 68.707031 178.042969 69.667969 C 177.847656 70.332031 177.722656 71.070312 177.671875 71.875 L 176.65625 71.875 C 176.667969 71.242188 176.792969 70.476562 177.027344 69.589844 C 177.261719 68.691406 177.597656 67.828125 178.042969 66.992188 C 178.496094 66.164062 178.972656 65.460938 179.46875 64.882812 Z M 175.523438 64.882812 "/>
<path style="fill-rule:nonzero;fill:rgb(100%,100%,100%);fill-opacity:1;stroke-width:1;stroke-linecap:round;stroke-linejoin:round;stroke:rgb(0%,0%,0%);stroke-opacity:1;stroke-miterlimit:10;" d="M 51 -7.5 L 72 -7.5 L 72 13.5 L 51 13.5 Z M 51 -7.5 " transform="matrix(1.25,0,0,1.25,-3.75,65)"/>
<path style=" stroke:none;fill-rule:nonzero;fill:rgb(0%,0%,0%);fill-opacity:1;" d="M 70.464844 69.746094 L 71.460938 69.609375 C 71.578125 70.171875 71.765625 70.578125 72.027344 70.820312 C 72.300781 71.070312 72.636719 71.191406 73.042969 71.191406 C 73.496094 71.191406 73.882812 71.035156 74.195312 70.722656 C 74.519531 70.398438 74.683594 69.996094 74.683594 69.511719 C 74.683594 69.058594 74.53125 68.6875 74.234375 68.398438 C 73.945312 68.101562 73.574219 67.949219 73.121094 67.949219 C 72.925781 67.949219 72.691406 67.988281 72.417969 68.066406 L 72.535156 67.1875 C 72.597656 67.203125 72.652344 67.207031 72.691406 67.207031 C 73.105469 67.207031 73.484375 67.101562 73.824219 66.875 C 74.160156 66.65625 74.332031 66.320312 74.332031 65.859375 C 74.332031 65.5 74.207031 65.195312 73.960938 64.960938 C 73.710938 64.726562 73.394531 64.609375 73.003906 64.609375 C 72.625 64.609375 72.304688 64.734375 72.046875 64.980469 C 71.796875 65.214844 71.636719 65.578125 71.558594 66.054688 L 70.5625 65.878906 C 70.691406 65.214844 70.964844 64.703125 71.382812 64.335938 C 71.8125 63.976562 72.34375 63.789062 72.984375 63.789062 C 73.425781 63.789062 73.828125 63.886719 74.195312 64.082031 C 74.570312 64.265625 74.859375 64.523438 75.054688 64.84375 C 75.25 65.171875 75.347656 65.515625 75.347656 65.878906 C 75.347656 66.230469 75.25 66.554688 75.054688 66.835938 C 74.871094 67.125 74.597656 67.351562 74.234375 67.519531 C 74.714844 67.625 75.085938 67.851562 75.347656 68.203125 C 75.605469 68.546875 75.738281 68.976562 75.738281 69.492188 C 75.738281 70.195312 75.476562 70.796875 74.957031 71.289062 C 74.449219 71.773438 73.804688 72.011719 73.023438 72.011719 C 72.320312 72.011719 71.734375 71.804688 71.265625 71.386719 C 70.796875 70.972656 70.527344 70.425781 70.464844 69.746094 Z M 70.464844 69.746094 "/>
<path style="fill-rule:nonzero;fill:rgb(100%,100%,100%);fill-opacity:1;stroke-width:1;stroke-linecap:round;stroke-linejoin:round;stroke:rgb(0%,0%,0%);stroke-opacity:1;stroke-miterlimit:10;" d="M 114 -7.5 L 135 -7.5 L 135 13.5 L 114 13.5 Z M 114 -7.5 " transform="matrix(1.25,0,0,1.25,-3.75,65)"/>
<path style=" stroke:none;fill-rule:nonzero;fill:rgb(0%,0%,0%);fill-opacity:1;" d="M 154.351562 65.800781 L 153.355469 65.878906 C 153.277344 65.488281 153.152344 65.203125 152.984375 65.019531 C 152.722656 64.746094 152.398438 64.609375 152.007812 64.609375 C 151.679688 64.609375 151.402344 64.695312 151.167969 64.863281 C 150.855469 65.097656 150.605469 65.429688 150.425781 65.859375 C 150.253906 66.289062 150.164062 66.910156 150.152344 67.714844 C 150.386719 67.363281 150.671875 67.105469 151.011719 66.933594 C 151.363281 66.753906 151.726562 66.660156 152.105469 66.660156 C 152.769531 66.660156 153.328125 66.90625 153.785156 67.382812 C 154.253906 67.867188 154.488281 68.492188 154.488281 69.257812 C 154.488281 69.765625 154.375 70.242188 154.15625 70.683594 C 153.933594 71.113281 153.632812 71.445312 153.257812 71.679688 C 152.878906 71.898438 152.449219 72.011719 151.96875 72.011719 C 151.148438 72.011719 150.476562 71.714844 149.957031 71.113281 C 149.433594 70.503906 149.175781 69.5 149.175781 68.105469 C 149.175781 66.558594 149.460938 65.425781 150.035156 64.707031 C 150.527344 64.097656 151.207031 63.789062 152.066406 63.789062 C 152.691406 63.789062 153.203125 63.976562 153.609375 64.335938 C 154.011719 64.6875 154.257812 65.175781 154.351562 65.800781 Z M 150.308594 69.257812 C 150.308594 69.609375 150.378906 69.941406 150.523438 70.253906 C 150.664062 70.554688 150.867188 70.789062 151.128906 70.957031 C 151.386719 71.113281 151.660156 71.191406 151.949219 71.191406 C 152.363281 71.191406 152.722656 71.03125 153.023438 70.703125 C 153.320312 70.367188 153.472656 69.902344 153.472656 69.316406 C 153.472656 68.757812 153.320312 68.320312 153.023438 68.007812 C 152.734375 67.6875 152.363281 67.519531 151.910156 67.519531 C 151.464844 67.519531 151.089844 67.6875 150.777344 68.007812 C 150.464844 68.320312 150.308594 68.742188 150.308594 69.257812 Z M 150.308594 69.257812 "/>
<path style="fill-rule:nonzero;fill:rgb(69.803922%,85.098039%,100%);fill-opacity:1;stroke-width:1;stroke-linecap:round;stroke-linejoin:round;stroke:rgb(0%,0%,0%);stroke-opacity:1;stroke-miterlimit:10;" d="M 30 -7.5 L 51 -7.5 L 51 13.5 L 30 13.5 Z M 30 -7.5 " transform="matrix(1.25,0,0,1.25,-3.75,65)"/>
<path style=" stroke:none;fill-rule:nonzero;fill:rgb(0%,0%,0%);fill-opacity:1;" d="M 49.410156 70.917969 L 49.410156 71.875 L 44.078125 71.875 C 44.078125 71.640625 44.117188 71.414062 44.195312 71.191406 C 44.335938 70.828125 44.558594 70.46875 44.859375 70.117188 C 45.15625 69.765625 45.585938 69.367188 46.148438 68.90625 C 47.019531 68.179688 47.605469 67.609375 47.90625 67.1875 C 48.21875 66.773438 48.375 66.375 48.375 65.996094 C 48.375 65.605469 48.230469 65.28125 47.945312 65.019531 C 47.671875 64.746094 47.3125 64.609375 46.871094 64.609375 C 46.386719 64.609375 46.003906 64.757812 45.71875 65.039062 C 45.429688 65.328125 45.289062 65.722656 45.289062 66.230469 L 44.273438 66.113281 C 44.335938 65.359375 44.597656 64.785156 45.054688 64.394531 C 45.507812 63.992188 46.121094 63.789062 46.890625 63.789062 C 47.65625 63.789062 48.261719 64.003906 48.707031 64.433594 C 49.160156 64.863281 49.390625 65.390625 49.390625 66.015625 C 49.390625 66.34375 49.324219 66.660156 49.195312 66.972656 C 49.0625 67.285156 48.84375 67.617188 48.53125 67.96875 C 48.230469 68.3125 47.730469 68.78125 47.027344 69.375 C 46.425781 69.875 46.042969 70.210938 45.875 70.390625 C 45.703125 70.578125 45.566406 70.75 45.464844 70.917969 Z M 49.410156 70.917969 "/>
<path style="fill-rule:nonzero;fill:rgb(100%,100%,100%);fill-opacity:1;stroke-width:1;stroke-linecap:round;stroke-linejoin:round;stroke:rgb(0%,0%,0%);stroke-opacity:1;stroke-miterlimit:10;" d="M 93 -7.5 L 114 -7.5 L 114 13.5 L 93 13.5 Z M 93 -7.5 " transform="matrix(1.25,0,0,1.25,-3.75,65)"/>
<path style=" stroke:none;fill-rule:nonzero;fill:rgb(0%,0%,0%);fill-opacity:1;" d="M 122.964844 69.765625 L 124 69.667969 C 124.078125 70.175781 124.253906 70.5625 124.527344 70.820312 C 124.8125 71.070312 125.152344 71.191406 125.542969 71.191406 C 126.023438 71.191406 126.425781 71.015625 126.753906 70.664062 C 127.089844 70.304688 127.261719 69.824219 127.261719 69.238281 C 127.261719 68.667969 127.097656 68.21875 126.773438 67.890625 C 126.460938 67.570312 126.050781 67.402344 125.542969 67.402344 C 125.214844 67.402344 124.921875 67.480469 124.664062 67.636719 C 124.414062 67.78125 124.214844 67.964844 124.058594 68.183594 L 123.140625 68.066406 L 123.921875 63.925781 L 127.925781 63.925781 L 127.925781 64.882812 L 124.703125 64.882812 L 124.273438 67.03125 C 124.753906 66.710938 125.261719 66.542969 125.796875 66.542969 C 126.5 66.542969 127.089844 66.789062 127.574219 67.265625 C 128.054688 67.75 128.296875 68.375 128.296875 69.140625 C 128.296875 69.875 128.085938 70.503906 127.671875 71.035156 C 127.148438 71.6875 126.441406 72.011719 125.542969 72.011719 C 124.8125 72.011719 124.214844 71.8125 123.746094 71.40625 C 123.289062 70.992188 123.027344 70.445312 122.964844 69.765625 Z M 122.964844 69.765625 "/>
<path style="fill-rule:nonzero;fill:rgb(69.803922%,85.098039%,100%);fill-opacity:1;stroke-width:1;stroke-linecap:round;stroke-linejoin:round;stroke:rgb(0%,0%,0%);stroke-opacity:1;stroke-miterlimit:10;" d="M 9 -7.5 L 30 -7.5 L 30 13.5 L 9 13.5 Z M 9 -7.5 " transform="matrix(1.25,0,0,1.25,-3.75,65)"/>
<path style=" stroke:none;fill-rule:nonzero;fill:rgb(0%,0%,0%);fill-opacity:1;" d="M 21.695312 71.875 L 20.699219 71.875 L 20.699219 65.566406 C 20.464844 65.800781 20.152344 66.035156 19.761719 66.269531 C 19.371094 66.492188 19.023438 66.65625 18.726562 66.757812 L 18.726562 65.800781 C 19.273438 65.554688 19.753906 65.25 20.171875 64.882812 C 20.585938 64.507812 20.878906 64.140625 21.050781 63.789062 L 21.695312 63.789062 Z M 21.695312 71.875 "/>
<path style="fill-rule:nonzero;fill:rgb(100%,100%,100%);fill-opacity:1;stroke-width:1;stroke-linecap:round;stroke-linejoin:round;stroke:rgb(0%,0%,0%);stroke-opacity:1;stroke-miterlimit:10;" d="M 72 -7.5 L 93 -7.5 L 93 13.5 L 72 13.5 Z M 72 -7.5 " transform="matrix(1.25,0,0,1.25,-3.75,65)"/>
<path style=" stroke:none;fill-rule:nonzero;fill:rgb(0%,0%,0%);fill-opacity:1;" d="M 99.878906 71.875 L 99.878906 69.941406 L 96.382812 69.941406 L 96.382812 69.042969 L 100.054688 63.828125 L 100.875 63.828125 L 100.875 69.042969 L 101.96875 69.042969 L 101.96875 69.941406 L 100.875 69.941406 L 100.875 71.875 Z M 99.878906 69.042969 L 99.878906 65.410156 L 97.359375 69.042969 Z M 99.878906 69.042969 "/>
<path style="fill-rule:nonzero;fill:rgb(69.803922%,85.098039%,100%);fill-opacity:1;stroke-width:1;stroke-linecap:round;stroke-linejoin:round;stroke:rgb(0%,0%,0%);stroke-opacity:1;stroke-miterlimit:10;" d="M 211.21875 -7.5 L 232.21875 -7.5 L 232.21875 13.5 L 211.21875 13.5 Z M 211.21875 -7.5 " transform="matrix(1.25,0,0,1.25,-3.75,65)"/>
<path style=" stroke:none;fill-rule:nonzero;fill:rgb(0%,0%,0%);fill-opacity:1;" d="M 273.902344 71.875 L 273.902344 69.941406 L 270.40625 69.941406 L 270.40625 69.042969 L 274.078125 63.828125 L 274.898438 63.828125 L 274.898438 69.042969 L 275.992188 69.042969 L 275.992188 69.941406 L 274.898438 69.941406 L 274.898438 71.875 Z M 273.902344 69.042969 L 273.902344 65.410156 L 271.382812 69.042969 Z M 273.902344 69.042969 "/>
<path style="fill-rule:nonzero;fill:rgb(69.803922%,85.098039%,100%);fill-opacity:1;stroke-width:1;stroke-linecap:round;stroke-linejoin:round;stroke:rgb(0%,0%,0%);stroke-opacity:1;stroke-miterlimit:10;" d="M 190.21875 -7.5 L 211.21875 -7.5 L 211.21875 13.5 L 190.21875 13.5 Z M 190.21875 -7.5 " transform="matrix(1.25,0,0,1.25,-3.75,65)"/>
<path style=" stroke:none;fill-rule:nonzero;fill:rgb(0%,0%,0%);fill-opacity:1;" d="M 244.488281 69.746094 L 245.484375 69.609375 C 245.601562 70.171875 245.789062 70.578125 246.050781 70.820312 C 246.324219 71.070312 246.664062 71.191406 247.066406 71.191406 C 247.523438 71.191406 247.90625 71.035156 248.21875 70.722656 C 248.542969 70.398438 248.707031 69.996094 248.707031 69.511719 C 248.707031 69.058594 248.558594 68.6875 248.257812 68.398438 C 247.972656 68.101562 247.601562 67.949219 247.144531 67.949219 C 246.949219 67.949219 246.714844 67.988281 246.441406 68.066406 L 246.558594 67.1875 C 246.625 67.203125 246.675781 67.207031 246.714844 67.207031 C 247.132812 67.207031 247.507812 67.101562 247.847656 66.875 C 248.1875 66.65625 248.355469 66.320312 248.355469 65.859375 C 248.355469 65.5 248.230469 65.195312 247.984375 64.960938 C 247.738281 64.726562 247.417969 64.609375 247.027344 64.609375 C 246.648438 64.609375 246.332031 64.734375 246.070312 64.980469 C 245.824219 65.214844 245.660156 65.578125 245.582031 66.054688 L 244.585938 65.878906 C 244.714844 65.214844 244.988281 64.703125 245.40625 64.335938 C 245.835938 63.976562 246.371094 63.789062 247.007812 63.789062 C 247.449219 63.789062 247.855469 63.886719 248.21875 64.082031 C 248.597656 64.265625 248.882812 64.523438 249.078125 64.84375 C 249.273438 65.171875 249.371094 65.515625 249.371094 65.878906 C 249.371094 66.230469 249.273438 66.554688 249.078125 66.835938 C 248.894531 67.125 248.621094 67.351562 248.257812 67.519531 C 248.738281 67.625 249.109375 67.851562 249.371094 68.203125 C 249.632812 68.546875 249.761719 68.976562 249.761719 69.492188 C 249.761719 70.195312 249.5 70.796875 248.980469 71.289062 C 248.472656 71.773438 247.828125 72.011719 247.046875 72.011719 C 246.34375 72.011719 245.757812 71.804688 245.289062 71.386719 C 244.820312 70.972656 244.554688 70.425781 244.488281 69.746094 Z M 244.488281 69.746094 "/>
<path style="fill-rule:nonzero;fill:rgb(100%,100%,100%);fill-opacity:1;stroke-width:1;stroke-linecap:round;stroke-linejoin:round;stroke:rgb(0%,0%,0%);stroke-opacity:1;stroke-miterlimit:10;" d="M 377.4375 -7.5 L 398.4375 -7.5 L 398.4375 13.5 L 377.4375 13.5 Z M 377.4375 -7.5 " transform="matrix(1.25,0,0,1.25,-3.75,65)"/>
<path style=" stroke:none;fill-rule:nonzero;fill:rgb(0%,0%,0%);fill-opacity:1;" d="M 475.386719 69.746094 L 476.382812 69.609375 C 476.5 70.171875 476.683594 70.578125 476.949219 70.820312 C 477.222656 71.070312 477.558594 71.191406 477.964844 71.191406 C 478.417969 71.191406 478.804688 71.035156 479.117188 70.722656 C 479.4375 70.398438 479.605469 69.996094 479.605469 69.511719 C 479.605469 69.058594 479.453125 68.6875 479.15625 68.398438 C 478.867188 68.101562 478.496094 67.949219 478.042969 67.949219 C 477.847656 67.949219 477.613281 67.988281 477.339844 68.066406 L 477.457031 67.1875 C 477.519531 67.203125 477.574219 67.207031 477.613281 67.207031 C 478.027344 67.207031 478.402344 67.101562 478.746094 66.875 C 479.082031 66.65625 479.253906 66.320312 479.253906 65.859375 C 479.253906 65.5 479.125 65.195312 478.882812 64.960938 C 478.632812 64.726562 478.316406 64.609375 477.925781 64.609375 C 477.542969 64.609375 477.226562 64.734375 476.96875 64.980469 C 476.71875 65.214844 476.558594 65.578125 476.480469 66.054688 L 475.484375 65.878906 C 475.609375 65.214844 475.882812 64.703125 476.304688 64.335938 C 476.734375 63.976562 477.265625 63.789062 477.90625 63.789062 C 478.34375 63.789062 478.75 63.886719 479.117188 64.082031 C 479.492188 64.265625 479.78125 64.523438 479.976562 64.84375 C 480.171875 65.171875 480.269531 65.515625 480.269531 65.878906 C 480.269531 66.230469 480.171875 66.554688 479.976562 66.835938 C 479.789062 67.125 479.515625 67.351562 479.15625 67.519531 C 479.632812 67.625 480.003906 67.851562 480.269531 68.203125 C 480.527344 68.546875 480.660156 68.976562 480.660156 69.492188 C 480.660156 70.195312 480.394531 70.796875 479.878906 71.289062 C 479.371094 71.773438 478.726562 72.011719 477.945312 72.011719 C 477.242188 72.011719 476.65625 71.804688 476.1875 71.386719 C 475.71875 70.972656 475.449219 70.425781 475.386719 69.746094 Z M 475.386719 69.746094 "/>
<path style=" stroke:none;fill-rule:nonzero;fill:rgb(0%,0%,0%);fill-opacity:1;" d="M 486.839844 70.917969 L 486.839844 71.875 L 481.507812 71.875 C 481.507812 71.640625 481.546875 71.414062 481.625 71.191406 C 481.765625 70.828125 481.984375 70.46875 482.289062 70.117188 C 482.585938 69.765625 483.015625 69.367188 483.578125 68.90625 C 484.445312 68.179688 485.03125 67.609375 485.335938 67.1875 C 485.648438 66.773438 485.804688 66.375 485.804688 65.996094 C 485.804688 65.605469 485.65625 65.28125 485.375 65.019531 C 485.101562 64.746094 484.738281 64.609375 484.300781 64.609375 C 483.816406 64.609375 483.429688 64.757812 483.148438 65.039062 C 482.859375 65.328125 482.71875 65.722656 482.71875 66.230469 L 481.703125 66.113281 C 481.765625 65.359375 482.023438 64.785156 482.484375 64.394531 C 482.9375 63.992188 483.546875 63.789062 484.320312 63.789062 C 485.085938 63.789062 485.691406 64.003906 486.136719 64.433594 C 486.589844 64.863281 486.820312 65.390625 486.820312 66.015625 C 486.820312 66.34375 486.75 66.660156 486.625 66.972656 C 486.492188 67.285156 486.273438 67.617188 485.960938 67.96875 C 485.65625 68.3125 485.160156 68.78125 484.457031 69.375 C 483.855469 69.875 483.46875 70.210938 483.304688 70.390625 C 483.132812 70.578125 482.996094 70.75 482.894531 70.917969 Z M 486.839844 70.917969 "/>
<path style="fill-rule:nonzero;fill:rgb(69.803922%,85.098039%,100%);fill-opacity:1;stroke-width:1;stroke-linecap:round;stroke-linejoin:round;stroke:rgb(0%,0%,0%);stroke-opacity:1;stroke-miterlimit:10;" d="M 272.4375 -7.5 L 293.4375 -7.5 L 293.4375 13.5 L 272.4375 13.5 Z M 272.4375 -7.5 " transform="matrix(1.25,0,0,1.25,-3.75,65)"/>
<path style=" stroke:none;fill-rule:nonzero;fill:rgb(0%,0%,0%);fill-opacity:1;" d="M 352.460938 70.917969 L 352.460938 71.875 L 347.128906 71.875 C 347.128906 71.640625 347.167969 71.414062 347.246094 71.191406 C 347.386719 70.828125 347.605469 70.46875 347.910156 70.117188 C 348.207031 69.765625 348.636719 69.367188 349.199219 68.90625 C 350.066406 68.179688 350.652344 67.609375 350.957031 67.1875 C 351.269531 66.773438 351.425781 66.375 351.425781 65.996094 C 351.425781 65.605469 351.277344 65.28125 350.996094 65.019531 C 350.722656 64.746094 350.359375 64.609375 349.921875 64.609375 C 349.4375 64.609375 349.050781 64.757812 348.769531 65.039062 C 348.480469 65.328125 348.339844 65.722656 348.339844 66.230469 L 347.324219 66.113281 C 347.386719 65.359375 347.644531 64.785156 348.105469 64.394531 C 348.558594 63.992188 349.167969 63.789062 349.941406 63.789062 C 350.707031 63.789062 351.3125 64.003906 351.757812 64.433594 C 352.210938 64.863281 352.441406 65.390625 352.441406 66.015625 C 352.441406 66.34375 352.371094 66.660156 352.246094 66.972656 C 352.113281 67.285156 351.894531 67.617188 351.582031 67.96875 C 351.277344 68.3125 350.78125 68.78125 350.078125 69.375 C 349.476562 69.875 349.089844 70.210938 348.925781 70.390625 C 348.753906 70.578125 348.617188 70.75 348.515625 70.917969 Z M 352.460938 70.917969 "/>
<path style="fill-rule:nonzero;fill:rgb(100%,100%,100%);fill-opacity:1;stroke-width:1;stroke-linecap:round;stroke-linejoin:round;stroke:rgb(0%,0%,0%);stroke-opacity:1;stroke-miterlimit:10;" d="M 293.4375 -7.5 L 314.4375 -7.5 L 314.4375 13.5 L 293.4375 13.5 Z M 293.4375 -7.5 " transform="matrix(1.25,0,0,1.25,-3.75,65)"/>
<path style=" stroke:none;fill-rule:nonzero;fill:rgb(0%,0%,0%);fill-opacity:1;" d="M 375.039062 67.5 C 374.617188 67.359375 374.316406 67.148438 374.121094 66.875 C 373.925781 66.59375 373.828125 66.25 373.828125 65.859375 C 373.828125 65.273438 374.03125 64.785156 374.453125 64.394531 C 374.882812 63.992188 375.4375 63.789062 376.132812 63.789062 C 376.835938 63.789062 377.402344 64 377.832031 64.414062 C 378.261719 64.820312 378.476562 65.3125 378.476562 65.898438 C 378.476562 66.265625 378.378906 66.59375 378.183594 66.875 C 377.988281 67.148438 377.683594 67.359375 377.285156 67.5 C 377.777344 67.671875 378.152344 67.9375 378.417969 68.300781 C 378.675781 68.652344 378.808594 69.078125 378.808594 69.570312 C 378.808594 70.265625 378.558594 70.839844 378.066406 71.308594 C 377.582031 71.777344 376.941406 72.011719 376.152344 72.011719 C 375.355469 72.011719 374.710938 71.777344 374.21875 71.308594 C 373.734375 70.839844 373.496094 70.253906 373.496094 69.550781 C 373.496094 69.03125 373.621094 68.59375 373.886719 68.242188 C 374.160156 67.882812 374.539062 67.632812 375.039062 67.5 Z M 374.84375 65.839844 C 374.84375 66.21875 374.960938 66.53125 375.195312 66.777344 C 375.4375 67.011719 375.761719 67.128906 376.152344 67.128906 C 376.542969 67.128906 376.855469 67.011719 377.089844 66.777344 C 377.332031 66.53125 377.460938 66.230469 377.460938 65.878906 C 377.460938 65.527344 377.332031 65.230469 377.089844 64.980469 C 376.839844 64.734375 376.527344 64.609375 376.152344 64.609375 C 375.769531 64.609375 375.457031 64.734375 375.214844 64.980469 C 374.964844 65.214844 374.84375 65.503906 374.84375 65.839844 Z M 374.511719 69.550781 C 374.511719 69.839844 374.574219 70.113281 374.707031 70.371094 C 374.847656 70.632812 375.046875 70.835938 375.3125 70.976562 C 375.570312 71.125 375.859375 71.191406 376.171875 71.191406 C 376.640625 71.191406 377.019531 71.046875 377.324219 70.742188 C 377.636719 70.445312 377.792969 70.058594 377.792969 69.589844 C 377.792969 69.109375 377.636719 68.710938 377.324219 68.398438 C 377.011719 68.085938 376.609375 67.929688 376.132812 67.929688 C 375.664062 67.929688 375.273438 68.085938 374.960938 68.398438 C 374.65625 68.710938 374.511719 69.097656 374.511719 69.550781 Z M 374.511719 69.550781 "/>
<path style="fill-rule:nonzero;fill:rgb(100%,100%,100%);fill-opacity:1;stroke-width:1;stroke-linecap:round;stroke-linejoin:round;stroke:rgb(0%,0%,0%);stroke-opacity:1;stroke-miterlimit:10;" d="M 314.4375 -7.5 L 335.4375 -7.5 L 335.4375 13.5 L 314.4375 13.5 Z M 314.4375 -7.5 " transform="matrix(1.25,0,0,1.25,-3.75,65)"/>
<path style=" stroke:none;fill-rule:nonzero;fill:rgb(0%,0%,0%);fill-opacity:1;" d="M 400.367188 71.875 L 399.371094 71.875 L 399.371094 65.566406 C 399.136719 65.800781 398.824219 66.035156 398.433594 66.269531 C 398.042969 66.492188 397.695312 66.65625 397.398438 66.757812 L 397.398438 65.800781 C 397.945312 65.554688 398.421875 65.25 398.84375 64.882812 C 399.257812 64.507812 399.550781 64.140625 399.722656 63.789062 L 400.367188 63.789062 Z M 400.367188 71.875 "/>
<path style=" stroke:none;fill-rule:nonzero;fill:rgb(0%,0%,0%);fill-opacity:1;" d="M 406.058594 71.875 L 406.058594 69.941406 L 402.5625 69.941406 L 402.5625 69.042969 L 406.234375 63.828125 L 407.054688 63.828125 L 407.054688 69.042969 L 408.148438 69.042969 L 408.148438 69.941406 L 407.054688 69.941406 L 407.054688 71.875 Z M 406.058594 69.042969 L 406.058594 65.410156 L 403.539062 69.042969 Z M 406.058594 69.042969 "/>
<path style="fill-rule:nonzero;fill:rgb(100%,100%,100%);fill-opacity:1;stroke-width:1;stroke-linecap:round;stroke-linejoin:round;stroke:rgb(0%,0%,0%);stroke-opacity:1;stroke-miterlimit:10;" d="M 335.4375 -7.5 L 356.4375 -7.5 L 356.4375 13.5 L 335.4375 13.5 Z M 335.4375 -7.5 " transform="matrix(1.25,0,0,1.25,-3.75,65)"/>
<path style=" stroke:none;fill-rule:nonzero;fill:rgb(0%,0%,0%);fill-opacity:1;" d="M 428.082031 70.917969 L 428.082031 71.875 L 422.75 71.875 C 422.75 71.640625 422.789062 71.414062 422.867188 71.191406 C 423.007812 70.828125 423.226562 70.46875 423.53125 70.117188 C 423.828125 69.765625 424.257812 69.367188 424.820312 68.90625 C 425.6875 68.179688 426.273438 67.609375 426.578125 67.1875 C 426.890625 66.773438 427.046875 66.375 427.046875 65.996094 C 427.046875 65.605469 426.898438 65.28125 426.617188 65.019531 C 426.34375 64.746094 425.980469 64.609375 425.542969 64.609375 C 425.058594 64.609375 424.671875 64.757812 424.390625 65.039062 C 424.101562 65.328125 423.960938 65.722656 423.960938 66.230469 L 422.945312 66.113281 C 423.007812 65.359375 423.265625 64.785156 423.726562 64.394531 C 424.179688 63.992188 424.789062 63.789062 425.5625 63.789062 C 426.328125 63.789062 426.933594 64.003906 427.378906 64.433594 C 427.832031 64.863281 428.0625 65.390625 428.0625 66.015625 C 428.0625 66.34375 427.992188 66.660156 427.867188 66.972656 C 427.734375 67.285156 427.515625 67.617188 427.203125 67.96875 C 426.898438 68.3125 426.402344 68.78125 425.699219 69.375 C 425.097656 69.875 424.710938 70.210938 424.546875 70.390625 C 424.375 70.578125 424.238281 70.75 424.136719 70.917969 Z M 428.082031 70.917969 "/>
<path style=" stroke:none;fill-rule:nonzero;fill:rgb(0%,0%,0%);fill-opacity:1;" d="M 429.144531 67.910156 C 429.144531 66.960938 429.242188 66.191406 429.4375 65.605469 C 429.632812 65.019531 429.914062 64.570312 430.296875 64.257812 C 430.6875 63.945312 431.175781 63.789062 431.761719 63.789062 C 432.199219 63.789062 432.585938 63.882812 432.914062 64.0625 C 433.234375 64.234375 433.503906 64.484375 433.714844 64.804688 C 433.917969 65.132812 434.085938 65.527344 434.203125 65.996094 C 434.328125 66.464844 434.398438 67.105469 434.398438 67.910156 C 434.398438 68.847656 434.300781 69.609375 434.105469 70.195312 C 433.910156 70.773438 433.617188 71.21875 433.226562 71.542969 C 432.84375 71.855469 432.355469 72.011719 431.761719 72.011719 C 430.988281 72.011719 430.382812 71.734375 429.945312 71.171875 C 429.40625 70.507812 429.144531 69.421875 429.144531 67.910156 Z M 430.160156 67.910156 C 430.160156 69.226562 430.304688 70.109375 430.609375 70.546875 C 430.921875 70.976562 431.300781 71.191406 431.761719 71.191406 C 432.214844 71.191406 432.601562 70.976562 432.914062 70.546875 C 433.226562 70.109375 433.382812 69.226562 433.382812 67.910156 C 433.382812 66.582031 433.226562 65.703125 432.914062 65.273438 C 432.601562 64.835938 432.214844 64.609375 431.761719 64.609375 C 431.300781 64.609375 430.941406 64.800781 430.667969 65.175781 C 430.324219 65.671875 430.160156 66.582031 430.160156 67.910156 Z M 430.160156 67.910156 "/>
<path style="fill-rule:nonzero;fill:rgb(100%,100%,100%);fill-opacity:1;stroke-width:1;stroke-linecap:round;stroke-linejoin:round;stroke:rgb(0%,0%,0%);stroke-opacity:1;stroke-miterlimit:10;" d="M 356.4375 -7.5 L 377.4375 -7.5 L 377.4375 13.5 L 356.4375 13.5 Z M 356.4375 -7.5 " transform="matrix(1.25,0,0,1.25,-3.75,65)"/>
<path style=" stroke:none;fill-rule:nonzero;fill:rgb(0%,0%,0%);fill-opacity:1;" d="M 454.332031 70.917969 L 454.332031 71.875 L 449 71.875 C 449 71.640625 449.039062 71.414062 449.117188 71.191406 C 449.257812 70.828125 449.476562 70.46875 449.78125 70.117188 C 450.078125 69.765625 450.507812 69.367188 451.070312 68.90625 C 451.9375 68.179688 452.523438 67.609375 452.828125 67.1875 C 453.140625 66.773438 453.296875 66.375 453.296875 65.996094 C 453.296875 65.605469 453.148438 65.28125 452.867188 65.019531 C 452.59375 64.746094 452.230469 64.609375 451.792969 64.609375 C 451.308594 64.609375 450.921875 64.757812 450.640625 65.039062 C 450.351562 65.328125 450.210938 65.722656 450.210938 66.230469 L 449.195312 66.113281 C 449.257812 65.359375 449.515625 64.785156 449.976562 64.394531 C 450.429688 63.992188 451.039062 63.789062 451.8125 63.789062 C 452.578125 63.789062 453.183594 64.003906 453.628906 64.433594 C 454.082031 64.863281 454.3125 65.390625 454.3125 66.015625 C 454.3125 66.34375 454.242188 66.660156 454.117188 66.972656 C 453.984375 67.285156 453.765625 67.617188 453.453125 67.96875 C 453.148438 68.3125 452.652344 68.78125 451.949219 69.375 C 451.347656 69.875 450.960938 70.210938 450.796875 70.390625 C 450.625 70.578125 450.488281 70.75 450.386719 70.917969 Z M 454.332031 70.917969 "/>
<path style=" stroke:none;fill-rule:nonzero;fill:rgb(0%,0%,0%);fill-opacity:1;" d="M 460.53125 65.800781 L 459.535156 65.878906 C 459.457031 65.488281 459.328125 65.203125 459.164062 65.019531 C 458.898438 64.746094 458.578125 64.609375 458.1875 64.609375 C 457.859375 64.609375 457.582031 64.695312 457.347656 64.863281 C 457.035156 65.097656 456.785156 65.429688 456.605469 65.859375 C 456.433594 66.289062 456.339844 66.910156 456.332031 67.714844 C 456.566406 67.363281 456.847656 67.105469 457.191406 66.933594 C 457.542969 66.753906 457.902344 66.660156 458.285156 66.660156 C 458.949219 66.660156 459.503906 66.90625 459.964844 67.382812 C 460.433594 67.867188 460.667969 68.492188 460.667969 69.257812 C 460.667969 69.765625 460.554688 70.242188 460.335938 70.683594 C 460.109375 71.113281 459.8125 71.445312 459.4375 71.679688 C 459.054688 71.898438 458.625 72.011719 458.148438 72.011719 C 457.328125 72.011719 456.652344 71.714844 456.136719 71.113281 C 455.613281 70.503906 455.355469 69.5 455.355469 68.105469 C 455.355469 66.558594 455.636719 65.425781 456.214844 64.707031 C 456.707031 64.097656 457.386719 63.789062 458.246094 63.789062 C 458.871094 63.789062 459.382812 63.976562 459.789062 64.335938 C 460.1875 64.6875 460.4375 65.175781 460.53125 65.800781 Z M 456.488281 69.257812 C 456.488281 69.609375 456.554688 69.941406 456.703125 70.253906 C 456.84375 70.554688 457.042969 70.789062 457.308594 70.957031 C 457.566406 71.113281 457.839844 71.191406 458.128906 71.191406 C 458.542969 71.191406 458.898438 71.03125 459.203125 70.703125 C 459.5 70.367188 459.652344 69.902344 459.652344 69.316406 C 459.652344 68.757812 459.5 68.320312 459.203125 68.007812 C 458.914062 67.6875 458.542969 67.519531 458.089844 67.519531 C 457.644531 67.519531 457.269531 67.6875 456.957031 68.007812 C 456.644531 68.320312 456.488281 68.742188 456.488281 69.257812 Z M 456.488281 69.257812 "/>
<path style="fill-rule:nonzero;fill:rgb(69.803922%,85.098039%,100%);fill-opacity:1;stroke-width:1;stroke-linecap:round;stroke-linejoin:round;stroke:rgb(0%,0%,0%);stroke-opacity:1;stroke-miterlimit:10;" d="M 3.5 9.5 L 24.5 9.5 L 24.5 30.5 L 3.5 30.5 Z M 3.5 9.5 " transform="matrix(1.25,0,0,1.25,-3.75,65)"/>
<path style=" stroke:none;fill-rule:nonzero;fill:rgb(0%,0%,0%);fill-opacity:1;" d="M 11.089844 89.160156 C 11.089844 88.210938 11.1875 87.441406 11.382812 86.855469 C 11.578125 86.269531 11.863281 85.820312 12.242188 85.507812 C 12.632812 85.195312 13.121094 85.039062 13.707031 85.039062 C 14.148438 85.039062 14.53125 85.132812 14.859375 85.3125 C 15.183594 85.484375 15.449219 85.734375 15.660156 86.054688 C 15.867188 86.382812 16.03125 86.777344 16.148438 87.246094 C 16.277344 87.714844 16.34375 88.355469 16.34375 89.160156 C 16.34375 90.097656 16.246094 90.859375 16.050781 91.445312 C 15.855469 92.023438 15.5625 92.46875 15.171875 92.792969 C 14.792969 93.105469 14.304688 93.261719 13.707031 93.261719 C 12.9375 93.261719 12.332031 92.984375 11.890625 92.421875 C 11.355469 91.757812 11.089844 90.671875 11.089844 89.160156 Z M 12.105469 89.160156 C 12.105469 90.476562 12.253906 91.359375 12.554688 91.796875 C 12.867188 92.226562 13.25 92.441406 13.707031 92.441406 C 14.160156 92.441406 14.546875 92.226562 14.859375 91.796875 C 15.171875 91.359375 15.328125 90.476562 15.328125 89.160156 C 15.328125 87.832031 15.171875 86.953125 14.859375 86.523438 C 14.546875 86.085938 14.160156 85.859375 13.707031 85.859375 C 13.25 85.859375 12.886719 86.050781 12.613281 86.425781 C 12.273438 86.921875 12.105469 87.832031 12.105469 89.160156 Z M 12.105469 89.160156 "/>
<path style="fill-rule:nonzero;fill:rgb(69.803922%,85.098039%,100%);fill-opacity:1;stroke-width:1;stroke-linecap:round;stroke-linejoin:round;stroke:rgb(0%,0%,0%);stroke-opacity:1;stroke-miterlimit:10;" d="M 24.5 9.5 L 45.5 9.5 L 45.5 30.5 L 24.5 30.5 Z M 24.5 9.5 " transform="matrix(1.25,0,0,1.25,-3.75,65)"/>
<path style=" stroke:none;fill-rule:nonzero;fill:rgb(0%,0%,0%);fill-opacity:1;" d="M 41.070312 93.125 L 40.074219 93.125 L 40.074219 86.816406 C 39.839844 87.050781 39.527344 87.285156 39.136719 87.519531 C 38.746094 87.742188 38.398438 87.90625 38.101562 88.007812 L 38.101562 87.050781 C 38.648438 86.804688 39.128906 86.5 39.546875 86.132812 C 39.960938 85.757812 40.253906 85.390625 40.425781 85.039062 L 41.070312 85.039062 Z M 41.070312 93.125 "/>
<path style="fill-rule:nonzero;fill:rgb(100%,100%,100%);fill-opacity:1;stroke-width:1;stroke-linecap:round;stroke-linejoin:round;stroke:rgb(0%,0%,0%);stroke-opacity:1;stroke-miterlimit:10;" d="M 45.5 9.5 L 66.5 9.5 L 66.5 30.5 L 45.5 30.5 Z M 45.5 9.5 " transform="matrix(1.25,0,0,1.25,-3.75,65)"/>
<path style=" stroke:none;fill-rule:nonzero;fill:rgb(0%,0%,0%);fill-opacity:1;" d="M 68.785156 92.167969 L 68.785156 93.125 L 63.453125 93.125 C 63.453125 92.890625 63.492188 92.664062 63.570312 92.441406 C 63.710938 92.078125 63.933594 91.71875 64.234375 91.367188 C 64.53125 91.015625 64.960938 90.617188 65.523438 90.15625 C 66.394531 89.429688 66.980469 88.859375 67.28125 88.4375 C 67.59375 88.023438 67.75 87.625 67.75 87.246094 C 67.75 86.855469 67.605469 86.53125 67.320312 86.269531 C 67.046875 85.996094 66.6875 85.859375 66.246094 85.859375 C 65.761719 85.859375 65.378906 86.007812 65.09375 86.289062 C 64.804688 86.578125 64.664062 86.972656 64.664062 87.480469 L 63.648438 87.363281 C 63.710938 86.609375 63.972656 86.035156 64.429688 85.644531 C 64.882812 85.242188 65.496094 85.039062 66.265625 85.039062 C 67.03125 85.039062 67.636719 85.253906 68.082031 85.683594 C 68.535156 86.113281 68.765625 86.640625 68.765625 87.265625 C 68.765625 87.59375 68.699219 87.910156 68.570312 88.222656 C 68.4375 88.535156 68.21875 88.867188 67.90625 89.21875 C 67.605469 89.5625 67.105469 90.03125 66.402344 90.625 C 65.800781 91.125 65.417969 91.460938 65.25 91.640625 C 65.078125 91.828125 64.941406 92 64.839844 92.167969 Z M 68.785156 92.167969 "/>
<path style="fill-rule:nonzero;fill:rgb(100%,100%,100%);fill-opacity:1;stroke-width:1;stroke-linecap:round;stroke-linejoin:round;stroke:rgb(0%,0%,0%);stroke-opacity:1;stroke-miterlimit:10;" d="M 66.5 9.5 L 87.5 9.5 L 87.5 30.5 L 66.5 30.5 Z M 66.5 9.5 " transform="matrix(1.25,0,0,1.25,-3.75,65)"/>
<path style=" stroke:none;fill-rule:nonzero;fill:rgb(0%,0%,0%);fill-opacity:1;" d="M 89.839844 90.996094 L 90.835938 90.859375 C 90.953125 91.421875 91.140625 91.828125 91.402344 92.070312 C 91.675781 92.320312 92.011719 92.441406 92.417969 92.441406 C 92.871094 92.441406 93.257812 92.285156 93.570312 91.972656 C 93.894531 91.648438 94.058594 91.246094 94.058594 90.761719 C 94.058594 90.308594 93.90625 89.9375 93.609375 89.648438 C 93.320312 89.351562 92.949219 89.199219 92.496094 89.199219 C 92.300781 89.199219 92.066406 89.238281 91.792969 89.316406 L 91.910156 88.4375 C 91.972656 88.453125 92.027344 88.457031 92.066406 88.457031 C 92.480469 88.457031 92.859375 88.351562 93.199219 88.125 C 93.535156 87.90625 93.707031 87.570312 93.707031 87.109375 C 93.707031 86.75 93.582031 86.445312 93.335938 86.210938 C 93.085938 85.976562 92.769531 85.859375 92.378906 85.859375 C 92 85.859375 91.679688 85.984375 91.421875 86.230469 C 91.171875 86.464844 91.011719 86.828125 90.933594 87.304688 L 89.9375 87.128906 C 90.066406 86.464844 90.339844 85.953125 90.757812 85.585938 C 91.1875 85.226562 91.71875 85.039062 92.359375 85.039062 C 92.800781 85.039062 93.203125 85.136719 93.570312 85.332031 C 93.945312 85.515625 94.234375 85.773438 94.429688 86.09375 C 94.625 86.421875 94.722656 86.765625 94.722656 87.128906 C 94.722656 87.480469 94.625 87.804688 94.429688 88.085938 C 94.246094 88.375 93.972656 88.601562 93.609375 88.769531 C 94.089844 88.875 94.460938 89.101562 94.722656 89.453125 C 94.980469 89.796875 95.113281 90.226562 95.113281 90.742188 C 95.113281 91.445312 94.851562 92.046875 94.332031 92.539062 C 93.824219 93.023438 93.179688 93.261719 92.398438 93.261719 C 91.695312 93.261719 91.109375 93.054688 90.640625 92.636719 C 90.171875 92.222656 89.902344 91.675781 89.839844 90.996094 Z M 89.839844 90.996094 "/>
<path style="fill-rule:nonzero;fill:rgb(100%,100%,100%);fill-opacity:1;stroke-width:1;stroke-linecap:round;stroke-linejoin:round;stroke:rgb(0%,0%,0%);stroke-opacity:1;stroke-miterlimit:10;" d="M 108.5 9.5 L 129.5 9.5 L 129.5 30.5 L 108.5 30.5 Z M 108.5 9.5 " transform="matrix(1.25,0,0,1.25,-3.75,65)"/>
<path style=" stroke:none;fill-rule:nonzero;fill:rgb(0%,0%,0%);fill-opacity:1;" d="M 142.339844 91.015625 L 143.375 90.917969 C 143.453125 91.425781 143.628906 91.8125 143.902344 92.070312 C 144.1875 92.320312 144.527344 92.441406 144.917969 92.441406 C 145.398438 92.441406 145.800781 92.265625 146.128906 91.914062 C 146.464844 91.554688 146.636719 91.074219 146.636719 90.488281 C 146.636719 89.917969 146.472656 89.46875 146.148438 89.140625 C 145.835938 88.820312 145.425781 88.652344 144.917969 88.652344 C 144.589844 88.652344 144.296875 88.730469 144.039062 88.886719 C 143.789062 89.03125 143.589844 89.214844 143.433594 89.433594 L 142.515625 89.316406 L 143.296875 85.175781 L 147.300781 85.175781 L 147.300781 86.132812 L 144.078125 86.132812 L 143.648438 88.28125 C 144.128906 87.960938 144.636719 87.792969 145.171875 87.792969 C 145.875 87.792969 146.464844 88.039062 146.949219 88.515625 C 147.429688 89 147.671875 89.625 147.671875 90.390625 C 147.671875 91.125 147.460938 91.753906 147.046875 92.285156 C 146.523438 92.9375 145.816406 93.261719 144.917969 93.261719 C 144.1875 93.261719 143.589844 93.0625 143.121094 92.65625 C 142.664062 92.242188 142.402344 91.695312 142.339844 91.015625 Z M 142.339844 91.015625 "/>
<path style="fill-rule:nonzero;fill:rgb(100%,100%,100%);fill-opacity:1;stroke-width:1;stroke-linecap:round;stroke-linejoin:round;stroke:rgb(0%,0%,0%);stroke-opacity:1;stroke-miterlimit:10;" d="M 129.5 9.5 L 150.5 9.5 L 150.5 30.5 L 129.5 30.5 Z M 129.5 9.5 " transform="matrix(1.25,0,0,1.25,-3.75,65)"/>
<path style=" stroke:none;fill-rule:nonzero;fill:rgb(0%,0%,0%);fill-opacity:1;" d="M 173.726562 87.050781 L 172.730469 87.128906 C 172.652344 86.738281 172.527344 86.453125 172.359375 86.269531 C 172.097656 85.996094 171.773438 85.859375 171.382812 85.859375 C 171.054688 85.859375 170.777344 85.945312 170.542969 86.113281 C 170.230469 86.347656 169.980469 86.679688 169.800781 87.109375 C 169.628906 87.539062 169.539062 88.160156 169.527344 88.964844 C 169.761719 88.613281 170.046875 88.355469 170.386719 88.183594 C 170.738281 88.003906 171.101562 87.910156 171.480469 87.910156 C 172.144531 87.910156 172.703125 88.15625 173.160156 88.632812 C 173.628906 89.117188 173.863281 89.742188 173.863281 90.507812 C 173.863281 91.015625 173.75 91.492188 173.53125 91.933594 C 173.308594 92.363281 173.007812 92.695312 172.632812 92.929688 C 172.253906 93.148438 171.824219 93.261719 171.34375 93.261719 C 170.523438 93.261719 169.851562 92.964844 169.332031 92.363281 C 168.808594 91.753906 168.550781 90.75 168.550781 89.355469 C 168.550781 87.808594 168.835938 86.675781 169.410156 85.957031 C 169.902344 85.347656 170.582031 85.039062 171.441406 85.039062 C 172.066406 85.039062 172.578125 85.226562 172.984375 85.585938 C 173.386719 85.9375 173.632812 86.425781 173.726562 87.050781 Z M 169.683594 90.507812 C 169.683594 90.859375 169.753906 91.191406 169.898438 91.503906 C 170.039062 91.804688 170.242188 92.039062 170.503906 92.207031 C 170.761719 92.363281 171.035156 92.441406 171.324219 92.441406 C 171.738281 92.441406 172.097656 92.28125 172.398438 91.953125 C 172.695312 91.617188 172.847656 91.152344 172.847656 90.566406 C 172.847656 90.007812 172.695312 89.570312 172.398438 89.257812 C 172.109375 88.9375 171.738281 88.769531 171.285156 88.769531 C 170.839844 88.769531 170.464844 88.9375 170.152344 89.257812 C 169.839844 89.570312 169.683594 89.992188 169.683594 90.507812 Z M 169.683594 90.507812 "/>
<path style="fill-rule:nonzero;fill:rgb(100%,100%,100%);fill-opacity:1;stroke-width:1;stroke-linecap:round;stroke-linejoin:round;stroke:rgb(0%,0%,0%);stroke-opacity:1;stroke-miterlimit:10;" d="M 87.5 9.5 L 108.5 9.5 L 108.5 30.5 L 87.5 30.5 Z M 87.5 9.5 " transform="matrix(1.25,0,0,1.25,-3.75,65)"/>
<path style=" stroke:none;fill-rule:nonzero;fill:rgb(0%,0%,0%);fill-opacity:1;" d="M 119.253906 93.125 L 119.253906 91.191406 L 115.757812 91.191406 L 115.757812 90.292969 L 119.429688 85.078125 L 120.25 85.078125 L 120.25 90.292969 L 121.34375 90.292969 L 121.34375 91.191406 L 120.25 91.191406 L 120.25 93.125 Z M 119.253906 90.292969 L 119.253906 86.660156 L 116.734375 90.292969 Z M 119.253906 90.292969 "/>
<path style="fill-rule:nonzero;fill:rgb(69.803922%,85.098039%,100%);fill-opacity:1;stroke-width:1;stroke-linecap:round;stroke-linejoin:round;stroke:rgb(0%,0%,0%);stroke-opacity:1;stroke-miterlimit:10;" d="M 206.21875 9.5 L 227.21875 9.5 L 227.21875 30.5 L 206.21875 30.5 Z M 206.21875 9.5 " transform="matrix(1.25,0,0,1.25,-3.75,65)"/>
<path style=" stroke:none;fill-rule:nonzero;fill:rgb(0%,0%,0%);fill-opacity:1;" d="M 269.683594 92.167969 L 269.683594 93.125 L 264.351562 93.125 C 264.351562 92.890625 264.390625 92.664062 264.46875 92.441406 C 264.613281 92.078125 264.832031 91.71875 265.132812 91.367188 C 265.433594 91.015625 265.863281 90.617188 266.421875 90.15625 C 267.292969 89.429688 267.878906 88.859375 268.179688 88.4375 C 268.492188 88.023438 268.648438 87.625 268.648438 87.246094 C 268.648438 86.855469 268.503906 86.53125 268.21875 86.269531 C 267.945312 85.996094 267.585938 85.859375 267.144531 85.859375 C 266.664062 85.859375 266.277344 86.007812 265.992188 86.289062 C 265.707031 86.578125 265.5625 86.972656 265.5625 87.480469 L 264.546875 87.363281 C 264.613281 86.609375 264.871094 86.035156 265.328125 85.644531 C 265.785156 85.242188 266.394531 85.039062 267.164062 85.039062 C 267.933594 85.039062 268.539062 85.253906 268.980469 85.683594 C 269.4375 86.113281 269.664062 86.640625 269.664062 87.265625 C 269.664062 87.59375 269.597656 87.910156 269.46875 88.222656 C 269.339844 88.535156 269.117188 88.867188 268.804688 89.21875 C 268.503906 89.5625 268.003906 90.03125 267.300781 90.625 C 266.703125 91.125 266.316406 91.460938 266.148438 91.640625 C 265.980469 91.828125 265.84375 92 265.738281 92.167969 Z M 269.683594 92.167969 "/>
<path style="fill-rule:nonzero;fill:rgb(69.803922%,85.098039%,100%);fill-opacity:1;stroke-width:1;stroke-linecap:round;stroke-linejoin:round;stroke:rgb(0%,0%,0%);stroke-opacity:1;stroke-miterlimit:10;" d="M 185.21875 9.5 L 206.21875 9.5 L 206.21875 30.5 L 185.21875 30.5 Z M 185.21875 9.5 " transform="matrix(1.25,0,0,1.25,-3.75,65)"/>
<path style=" stroke:none;fill-rule:nonzero;fill:rgb(0%,0%,0%);fill-opacity:1;" d="M 241.96875 93.125 L 240.972656 93.125 L 240.972656 86.816406 C 240.738281 87.050781 240.425781 87.285156 240.035156 87.519531 C 239.644531 87.742188 239.300781 87.90625 239 88.007812 L 239 87.050781 C 239.546875 86.804688 240.027344 86.5 240.445312 86.132812 C 240.863281 85.757812 241.15625 85.390625 241.324219 85.039062 L 241.96875 85.039062 Z M 241.96875 93.125 "/>
<path style=" stroke:none;fill-rule:nonzero;fill:rgb(0%,0%,0%);fill-opacity:1;" d="M 87.917969 16.25 L 87.917969 8.203125 L 88.972656 8.203125 L 88.972656 16.25 Z M 87.917969 16.25 "/>
<path style=" stroke:none;fill-rule:nonzero;fill:rgb(0%,0%,0%);fill-opacity:1;" d="M 90.730469 16.25 L 90.730469 10.410156 L 91.628906 10.410156 L 91.628906 11.25 C 92.046875 10.617188 92.664062 10.292969 93.484375 10.292969 C 93.835938 10.292969 94.15625 10.359375 94.441406 10.488281 C 94.742188 10.605469 94.960938 10.773438 95.105469 10.976562 C 95.25 11.171875 95.351562 11.414062 95.417969 11.699219 C 95.457031 11.882812 95.476562 12.203125 95.476562 12.65625 L 95.476562 16.25 L 94.480469 16.25 L 94.480469 12.695312 C 94.480469 12.296875 94.441406 11.992188 94.363281 11.796875 C 94.285156 11.601562 94.148438 11.445312 93.953125 11.328125 C 93.757812 11.203125 93.53125 11.132812 93.269531 11.132812 C 92.851562 11.132812 92.488281 11.269531 92.175781 11.542969 C 91.875 11.804688 91.726562 12.3125 91.726562 13.066406 L 91.726562 16.25 Z M 90.730469 16.25 "/>
<path style=" stroke:none;fill-rule:nonzero;fill:rgb(0%,0%,0%);fill-opacity:1;" d="M 96.984375 18.476562 L 96.984375 10.410156 L 97.882812 10.410156 L 97.882812 11.171875 C 98.089844 10.875 98.324219 10.65625 98.585938 10.507812 C 98.859375 10.367188 99.191406 10.292969 99.582031 10.292969 C 100.074219 10.292969 100.511719 10.425781 100.890625 10.683594 C 101.265625 10.933594 101.554688 11.289062 101.75 11.757812 C 101.945312 12.226562 102.042969 12.734375 102.042969 13.28125 C 102.042969 13.882812 101.929688 14.421875 101.710938 14.902344 C 101.5 15.386719 101.195312 15.757812 100.792969 16.015625 C 100.386719 16.257812 99.957031 16.386719 99.503906 16.386719 C 99.175781 16.386719 98.882812 16.3125 98.625 16.171875 C 98.363281 16.03125 98.148438 15.855469 97.980469 15.644531 L 97.980469 18.476562 Z M 97.882812 13.359375 C 97.882812 14.117188 98.03125 14.679688 98.332031 15.039062 C 98.644531 15.390625 99.015625 15.566406 99.445312 15.566406 C 99.875 15.566406 100.246094 15.386719 100.558594 15.019531 C 100.882812 14.644531 101.046875 14.0625 101.046875 13.28125 C 101.046875 12.539062 100.890625 11.988281 100.578125 11.621094 C 100.277344 11.246094 99.914062 11.054688 99.484375 11.054688 C 99.066406 11.054688 98.695312 11.257812 98.371094 11.660156 C 98.042969 12.050781 97.882812 12.617188 97.882812 13.359375 Z M 97.882812 13.359375 "/>
<path style=" stroke:none;fill-rule:nonzero;fill:rgb(0%,0%,0%);fill-opacity:1;" d="M 107.066406 16.25 L 107.066406 15.390625 C 106.605469 16.054688 105.992188 16.386719 105.210938 16.386719 C 104.867188 16.386719 104.550781 16.316406 104.253906 16.191406 C 103.949219 16.050781 103.726562 15.878906 103.570312 15.683594 C 103.421875 15.488281 103.324219 15.25 103.277344 14.960938 C 103.238281 14.765625 103.21875 14.453125 103.21875 14.023438 L 103.21875 10.410156 L 104.195312 10.410156 L 104.195312 13.652344 C 104.195312 14.175781 104.21875 14.523438 104.273438 14.6875 C 104.320312 14.953125 104.449219 15.15625 104.644531 15.3125 C 104.847656 15.460938 105.101562 15.527344 105.40625 15.527344 C 105.703125 15.527344 105.980469 15.460938 106.246094 15.3125 C 106.503906 15.15625 106.683594 14.953125 106.792969 14.6875 C 106.894531 14.429688 106.949219 14.042969 106.949219 13.535156 L 106.949219 10.410156 L 107.945312 10.410156 L 107.945312 16.25 Z M 107.066406 16.25 "/>
<path style=" stroke:none;fill-rule:nonzero;fill:rgb(0%,0%,0%);fill-opacity:1;" d="M 111.65625 15.371094 L 111.792969 16.230469 C 111.507812 16.292969 111.257812 16.328125 111.050781 16.328125 C 110.6875 16.328125 110.40625 16.269531 110.210938 16.152344 C 110.015625 16.035156 109.871094 15.890625 109.78125 15.703125 C 109.703125 15.523438 109.664062 15.136719 109.664062 14.550781 L 109.664062 11.191406 L 108.941406 11.191406 L 108.941406 10.410156 L 109.664062 10.410156 L 109.664062 8.964844 L 110.660156 8.378906 L 110.660156 10.410156 L 111.65625 10.410156 L 111.65625 11.191406 L 110.660156 11.191406 L 110.660156 14.589844 C 110.660156 14.878906 110.671875 15.058594 110.699219 15.136719 C 110.738281 15.214844 110.796875 15.28125 110.875 15.332031 C 110.953125 15.386719 111.0625 15.410156 111.207031 15.410156 C 111.324219 15.410156 111.472656 15.398438 111.65625 15.371094 Z M 111.65625 15.371094 "/>
<path style=" stroke:none;fill-rule:nonzero;fill:rgb(0%,0%,0%);fill-opacity:1;" d="M 399.210938 12.324219 C 399.210938 10.996094 399.566406 9.957031 400.285156 9.199219 C 400.996094 8.433594 401.925781 8.046875 403.058594 8.046875 C 403.800781 8.046875 404.46875 8.234375 405.070312 8.59375 C 405.664062 8.945312 406.125 9.445312 406.4375 10.078125 C 406.75 10.71875 406.90625 11.4375 406.90625 12.226562 C 406.90625 13.046875 406.738281 13.785156 406.417969 14.433594 C 406.089844 15.074219 405.621094 15.5625 405.011719 15.898438 C 404.410156 16.226562 403.761719 16.386719 403.058594 16.386719 C 402.300781 16.386719 401.621094 16.207031 401.027344 15.839844 C 400.425781 15.476562 399.972656 14.976562 399.660156 14.335938 C 399.355469 13.703125 399.210938 13.027344 399.210938 12.324219 Z M 400.304688 12.34375 C 400.304688 13.320312 400.5625 14.09375 401.085938 14.648438 C 401.601562 15.195312 402.261719 15.46875 403.058594 15.46875 C 403.847656 15.46875 404.507812 15.191406 405.03125 14.628906 C 405.546875 14.070312 405.8125 13.273438 405.8125 12.226562 C 405.8125 11.578125 405.699219 11.011719 405.480469 10.527344 C 405.253906 10.035156 404.933594 9.648438 404.503906 9.375 C 404.074219 9.101562 403.59375 8.964844 403.078125 8.964844 C 402.320312 8.964844 401.671875 9.226562 401.125 9.746094 C 400.578125 10.269531 400.304688 11.132812 400.304688 12.34375 Z M 400.304688 12.34375 "/>
<path style=" stroke:none;fill-rule:nonzero;fill:rgb(0%,0%,0%);fill-opacity:1;" d="M 411.984375 16.25 L 411.984375 15.390625 C 411.523438 16.054688 410.910156 16.386719 410.128906 16.386719 C 409.785156 16.386719 409.46875 16.316406 409.171875 16.191406 C 408.867188 16.050781 408.644531 15.878906 408.488281 15.683594 C 408.339844 15.488281 408.242188 15.25 408.195312 14.960938 C 408.15625 14.765625 408.136719 14.453125 408.136719 14.023438 L 408.136719 10.410156 L 409.113281 10.410156 L 409.113281 13.652344 C 409.113281 14.175781 409.136719 14.523438 409.191406 14.6875 C 409.238281 14.953125 409.367188 15.15625 409.5625 15.3125 C 409.765625 15.460938 410.019531 15.527344 410.324219 15.527344 C 410.621094 15.527344 410.898438 15.460938 411.164062 15.3125 C 411.421875 15.15625 411.601562 14.953125 411.710938 14.6875 C 411.8125 14.429688 411.867188 14.042969 411.867188 13.535156 L 411.867188 10.410156 L 412.863281 10.410156 L 412.863281 16.25 Z M 411.984375 16.25 "/>
<path style=" stroke:none;fill-rule:nonzero;fill:rgb(0%,0%,0%);fill-opacity:1;" d="M 416.578125 15.371094 L 416.714844 16.230469 C 416.425781 16.292969 416.175781 16.328125 415.972656 16.328125 C 415.605469 16.328125 415.328125 16.269531 415.132812 16.152344 C 414.9375 16.035156 414.789062 15.890625 414.703125 15.703125 C 414.625 15.523438 414.585938 15.136719 414.585938 14.550781 L 414.585938 11.191406 L 413.863281 11.191406 L 413.863281 10.410156 L 414.585938 10.410156 L 414.585938 8.964844 L 415.582031 8.378906 L 415.582031 10.410156 L 416.578125 10.410156 L 416.578125 11.191406 L 415.582031 11.191406 L 415.582031 14.589844 C 415.582031 14.878906 415.589844 15.058594 415.621094 15.136719 C 415.660156 15.214844 415.71875 15.28125 415.796875 15.332031 C 415.875 15.386719 415.980469 15.410156 416.128906 15.410156 C 416.246094 15.410156 416.390625 15.398438 416.578125 15.371094 Z M 416.578125 15.371094 "/>
<path style=" stroke:none;fill-rule:nonzero;fill:rgb(0%,0%,0%);fill-opacity:1;" d="M 417.535156 18.476562 L 417.535156 10.410156 L 418.433594 10.410156 L 418.433594 11.171875 C 418.636719 10.875 418.871094 10.65625 419.136719 10.507812 C 419.410156 10.367188 419.742188 10.292969 420.132812 10.292969 C 420.625 10.292969 421.058594 10.425781 421.441406 10.683594 C 421.816406 10.933594 422.105469 11.289062 422.300781 11.757812 C 422.496094 12.226562 422.59375 12.734375 422.59375 13.28125 C 422.59375 13.882812 422.480469 14.421875 422.261719 14.902344 C 422.050781 15.386719 421.742188 15.757812 421.34375 16.015625 C 420.9375 16.257812 420.507812 16.386719 420.054688 16.386719 C 419.726562 16.386719 419.433594 16.3125 419.175781 16.171875 C 418.910156 16.03125 418.695312 15.855469 418.53125 15.644531 L 418.53125 18.476562 Z M 418.433594 13.359375 C 418.433594 14.117188 418.578125 14.679688 418.882812 15.039062 C 419.195312 15.390625 419.566406 15.566406 419.996094 15.566406 C 420.425781 15.566406 420.796875 15.386719 421.109375 15.019531 C 421.429688 14.644531 421.597656 14.0625 421.597656 13.28125 C 421.597656 12.539062 421.441406 11.988281 421.128906 11.621094 C 420.824219 11.246094 420.464844 11.054688 420.035156 11.054688 C 419.613281 11.054688 419.242188 11.257812 418.921875 11.660156 C 418.59375 12.050781 418.433594 12.617188 418.433594 13.359375 Z M 418.433594 13.359375 "/>
<path style=" stroke:none;fill-rule:nonzero;fill:rgb(0%,0%,0%);fill-opacity:1;" d="M 427.613281 16.25 L 427.613281 15.390625 C 427.15625 16.054688 426.539062 16.386719 425.757812 16.386719 C 425.417969 16.386719 425.101562 16.316406 424.800781 16.191406 C 424.5 16.050781 424.273438 15.878906 424.117188 15.683594 C 423.972656 15.488281 423.875 15.25 423.824219 14.960938 C 423.785156 14.765625 423.765625 14.453125 423.765625 14.023438 L 423.765625 10.410156 L 424.742188 10.410156 L 424.742188 13.652344 C 424.742188 14.175781 424.769531 14.523438 424.820312 14.6875 C 424.871094 14.953125 424.996094 15.15625 425.191406 15.3125 C 425.398438 15.460938 425.652344 15.527344 425.953125 15.527344 C 426.253906 15.527344 426.53125 15.460938 426.792969 15.3125 C 427.054688 15.15625 427.234375 14.953125 427.339844 14.6875 C 427.445312 14.429688 427.496094 14.042969 427.496094 13.535156 L 427.496094 10.410156 L 428.492188 10.410156 L 428.492188 16.25 Z M 427.613281 16.25 "/>
<path style=" stroke:none;fill-rule:nonzero;fill:rgb(0%,0%,0%);fill-opacity:1;" d="M 432.207031 15.371094 L 432.34375 16.230469 C 432.054688 16.292969 431.808594 16.328125 431.601562 16.328125 C 431.234375 16.328125 430.957031 16.269531 430.761719 16.152344 C 430.566406 16.035156 430.421875 15.890625 430.332031 15.703125 C 430.253906 15.523438 430.214844 15.136719 430.214844 14.550781 L 430.214844 11.191406 L 429.492188 11.191406 L 429.492188 10.410156 L 430.214844 10.410156 L 430.214844 8.964844 L 431.210938 8.378906 L 431.210938 10.410156 L 432.207031 10.410156 L 432.207031 11.191406 L 431.210938 11.191406 L 431.210938 14.589844 C 431.210938 14.878906 431.222656 15.058594 431.25 15.136719 C 431.289062 15.214844 431.347656 15.28125 431.425781 15.332031 C 431.503906 15.386719 431.613281 15.410156 431.757812 15.410156 C 431.875 15.410156 432.023438 15.398438 432.207031 15.371094 Z M 432.207031 15.371094 "/>
<path style=" stroke:none;fill-rule:nonzero;fill:rgb(0%,0%,0%);fill-opacity:1;" d="M 244.835938 16.25 L 244.835938 8.203125 L 245.910156 8.203125 L 245.910156 12.1875 L 249.914062 8.203125 L 251.339844 8.203125 L 247.980469 11.464844 L 251.496094 16.25 L 250.089844 16.25 L 247.21875 12.167969 L 245.910156 13.457031 L 245.910156 16.25 Z M 244.835938 16.25 "/>
<path style=" stroke:none;fill-rule:nonzero;fill:rgb(0%,0%,0%);fill-opacity:1;" d="M 256.246094 14.375 L 257.28125 14.492188 C 257.109375 15.09375 256.800781 15.5625 256.363281 15.898438 C 255.933594 16.226562 255.375 16.386719 254.703125 16.386719 C 253.851562 16.386719 253.179688 16.128906 252.671875 15.605469 C 252.171875 15.074219 251.929688 14.332031 251.929688 13.378906 C 251.929688 12.402344 252.183594 11.648438 252.691406 11.113281 C 253.199219 10.566406 253.851562 10.292969 254.664062 10.292969 C 255.445312 10.292969 256.074219 10.5625 256.558594 11.09375 C 257.050781 11.617188 257.300781 12.359375 257.300781 13.320312 C 257.300781 13.390625 257.300781 13.476562 257.300781 13.59375 L 252.945312 13.59375 C 252.984375 14.234375 253.164062 14.722656 253.492188 15.058594 C 253.8125 15.398438 254.222656 15.566406 254.722656 15.566406 C 255.082031 15.566406 255.390625 15.476562 255.640625 15.292969 C 255.898438 15.097656 256.097656 14.796875 256.246094 14.375 Z M 253.003906 12.773438 L 256.265625 12.773438 C 256.226562 12.28125 256.097656 11.910156 255.894531 11.660156 C 255.582031 11.285156 255.171875 11.09375 254.664062 11.09375 C 254.203125 11.09375 253.824219 11.25 253.511719 11.5625 C 253.207031 11.867188 253.042969 12.265625 253.003906 12.773438 Z M 253.003906 12.773438 "/>
<path style=" stroke:none;fill-rule:nonzero;fill:rgb(0%,0%,0%);fill-opacity:1;" d="M 258.5 16.25 L 258.5 10.410156 L 259.398438 10.410156 L 259.398438 11.308594 C 259.617188 10.894531 259.828125 10.621094 260.023438 10.488281 C 260.21875 10.359375 260.433594 10.292969 260.667969 10.292969 C 260.988281 10.292969 261.332031 10.398438 261.683594 10.605469 L 261.332031 11.523438 C 261.097656 11.382812 260.851562 11.308594 260.609375 11.308594 C 260.398438 11.308594 260.203125 11.375 260.023438 11.503906 C 259.851562 11.636719 259.730469 11.816406 259.652344 12.050781 C 259.542969 12.402344 259.496094 12.789062 259.496094 13.203125 L 259.496094 16.25 Z M 258.5 16.25 "/>
<path style=" stroke:none;fill-rule:nonzero;fill:rgb(0%,0%,0%);fill-opacity:1;" d="M 262.265625 16.25 L 262.265625 10.410156 L 263.164062 10.410156 L 263.164062 11.25 C 263.578125 10.617188 264.199219 10.292969 265.019531 10.292969 C 265.371094 10.292969 265.6875 10.359375 265.976562 10.488281 C 266.273438 10.605469 266.492188 10.773438 266.640625 10.976562 C 266.78125 11.171875 266.882812 11.414062 266.953125 11.699219 C 266.992188 11.882812 267.011719 12.203125 267.011719 12.65625 L 267.011719 16.25 L 266.015625 16.25 L 266.015625 12.695312 C 266.015625 12.296875 265.976562 11.992188 265.898438 11.796875 C 265.820312 11.601562 265.683594 11.445312 265.488281 11.328125 C 265.292969 11.203125 265.0625 11.132812 264.804688 11.132812 C 264.382812 11.132812 264.023438 11.269531 263.710938 11.542969 C 263.40625 11.804688 263.261719 12.3125 263.261719 13.066406 L 263.261719 16.25 Z M 262.265625 16.25 "/>
<path style=" stroke:none;fill-rule:nonzero;fill:rgb(0%,0%,0%);fill-opacity:1;" d="M 272.507812 14.375 L 273.542969 14.492188 C 273.371094 15.09375 273.0625 15.5625 272.625 15.898438 C 272.195312 16.226562 271.636719 16.386719 270.964844 16.386719 C 270.113281 16.386719 269.441406 16.128906 268.933594 15.605469 C 268.433594 15.074219 268.191406 14.332031 268.191406 13.378906 C 268.191406 12.402344 268.445312 11.648438 268.953125 11.113281 C 269.460938 10.566406 270.113281 10.292969 270.925781 10.292969 C 271.707031 10.292969 272.335938 10.5625 272.820312 11.09375 C 273.3125 11.617188 273.5625 12.359375 273.5625 13.320312 C 273.5625 13.390625 273.5625 13.476562 273.5625 13.59375 L 269.207031 13.59375 C 269.246094 14.234375 269.425781 14.722656 269.753906 15.058594 C 270.074219 15.398438 270.484375 15.566406 270.984375 15.566406 C 271.34375 15.566406 271.652344 15.476562 271.902344 15.292969 C 272.160156 15.097656 272.359375 14.796875 272.507812 14.375 Z M 269.265625 12.773438 L 272.527344 12.773438 C 272.488281 12.28125 272.359375 11.910156 272.15625 11.660156 C 271.84375 11.285156 271.433594 11.09375 270.925781 11.09375 C 270.464844 11.09375 270.085938 11.25 269.773438 11.5625 C 269.46875 11.867188 269.304688 12.265625 269.265625 12.773438 Z M 269.265625 12.773438 "/>
<path style=" stroke:none;fill-rule:nonzero;fill:rgb(0%,0%,0%);fill-opacity:1;" d="M 274.757812 16.25 L 274.757812 8.203125 L 275.734375 8.203125 L 275.734375 16.25 Z M 274.757812 16.25 "/>
</g>
</svg>
