<?xml version="1.0" encoding="UTF-8"?>
<svg xmlns="http://www.w3.org/2000/svg" xmlns:xlink="http://www.w3.org/1999/xlink" width="444pt" height="140pt" viewBox="0 0 444 140" version="1.1">
<g id="surface1">
<path style="fill:none;stroke-width:1;stroke-linecap:round;stroke-linejoin:round;stroke:rgb(0%,0%,0%);stroke-opacity:1;stroke-miterlimit:10;" d="M 762.059375 188.828125 L 762.03125 185.840625 M 761.940625 174.8375 L 761.921875 172.50625 " transform="matrix(1.25,0,0,1.25,-697.5,-115)"/>
<path style="fill:none;stroke-width:1;stroke-linecap:butt;stroke-linejoin:miter;stroke:rgb(0%,0%,0%);stroke-opacity:1;stroke-miterlimit:10;" d="M 761.890625 168.50625 L 761.921875 172.50625 M 760.421875 172.51875 L 761.890625 168.50625 L 763.421875 172.496875 " transform="matrix(1.25,0,0,1.25,-697.5,-115)"/>
<path style="fill:none;stroke-width:1;stroke-linecap:round;stroke-linejoin:round;stroke:rgb(0%,0%,0%);stroke-opacity:1;stroke-miterlimit:10;" d="M 732.578125 157.075 L 739.909375 157.11875 C 743.2125 157.1375 745.875 159.815625 745.875 163.11875 L 745.875 174.31875 C 745.875 177.628125 748.55625 180.3125 751.8625 180.31875 L 767.8625 180.35625 C 771.175 180.3625 773.86875 177.684375 773.875 174.36875 C 773.875 174.3625 773.875 174.359375 773.875 174.35625 L 773.875 172.26875 " transform="matrix(1.25,0,0,1.25,-697.5,-115)"/>
<path style="fill:none;stroke-width:1;stroke-linecap:butt;stroke-linejoin:miter;stroke:rgb(0%,0%,0%);stroke-opacity:1;stroke-miterlimit:10;" d="M 773.875 168.26875 L 773.875 172.26875 M 772.375 172.26875 L 773.875 168.26875 L 775.375 172.26875 " transform="matrix(1.25,0,0,1.25,-697.5,-115)"/>
<path style="fill:none;stroke-width:1;stroke-linecap:round;stroke-linejoin:round;stroke:rgb(0%,0%,0%);stroke-opacity:1;stroke-miterlimit:10;" d="M 852.225 147.3625 C 852.215625 144.559375 854.475 142.278125 857.278125 142.265625 C 857.2875 142.265625 857.30625 142.265625 857.315625 142.265625 L 866.315625 142.296875 C 869.628125 142.309375 872.30625 145.00625 872.29375 148.31875 C 872.29375 148.325 872.29375 148.328125 872.29375 148.33125 L 872.278125 151.5 M 872.2125 162.5 L 872.16875 169.965625 C 872.15 173.278125 874.81875 175.98125 878.13125 176 C 878.14375 176 878.15625 176 878.16875 176 L 884.8125 176 C 887.328125 176 889.48125 174.45 890.371875 172.253125 " transform="matrix(1.25,0,0,1.25,-697.5,-115)"/>
<path style="fill:none;stroke-width:1;stroke-linecap:butt;stroke-linejoin:miter;stroke:rgb(0%,0%,0%);stroke-opacity:1;stroke-miterlimit:10;" d="M 890.671875 168.2625 L 890.375 172.253125 M 888.878125 172.140625 L 890.671875 168.2625 L 891.86875 172.3625 " transform="matrix(1.25,0,0,1.25,-697.5,-115)"/>
<path style="fill:none;stroke-width:1;stroke-linecap:round;stroke-linejoin:round;stroke:rgb(0%,0%,0%);stroke-opacity:1;stroke-miterlimit:10;" d="M 809.0625 147.3625 C 809.05 144.559375 811.3125 142.278125 814.1125 142.265625 C 814.125 142.265625 814.140625 142.265625 814.153125 142.265625 L 823.153125 142.296875 C 826.465625 142.309375 829.140625 145.00625 829.128125 148.31875 C 829.128125 148.325 829.128125 148.328125 829.128125 148.33125 L 829.109375 151.5 M 829.046875 162.5 L 829.003125 169.965625 C 828.984375 173.278125 831.65625 175.98125 834.96875 176 C 834.98125 176 834.99375 176 835.003125 176 L 841.65 176 C 844.1625 176 846.315625 174.45 847.20625 172.253125 " transform="matrix(1.25,0,0,1.25,-697.5,-115)"/>
<path style="fill:none;stroke-width:1;stroke-linecap:butt;stroke-linejoin:miter;stroke:rgb(0%,0%,0%);stroke-opacity:1;stroke-miterlimit:10;" d="M 847.503125 168.2625 L 847.20625 172.253125 M 845.715625 172.140625 L 847.503125 168.2625 L 848.703125 172.3625 " transform="matrix(1.25,0,0,1.25,-697.5,-115)"/>
<path style="fill-rule:nonzero;fill:rgb(69.803922%,85.098039%,100%);fill-opacity:1;stroke-width:1;stroke-linecap:round;stroke-linejoin:round;stroke:rgb(0%,0%,0%);stroke-opacity:1;stroke-miterlimit:10;" d="M 561.375 148 L 585.375 148 L 585.375 166 L 561.375 166 Z M 561.375 148 " transform="matrix(1.25,0,0,1.25,-697.5,-115)"/>
<path style=" stroke:none;fill-rule:nonzero;fill:rgb(0%,0%,0%);fill-opacity:1;" d="M 9.78125 117.695312 L 9.78125 110.585938 L 7.144531 110.585938 L 7.144531 109.648438 L 13.511719 109.648438 L 13.511719 110.585938 L 10.855469 110.585938 L 10.855469 117.695312 Z M 9.78125 117.695312 "/>
<path style=" stroke:none;fill-rule:nonzero;fill:rgb(0%,0%,0%);fill-opacity:1;" d="M 14.484375 117.695312 L 14.484375 109.648438 L 15.480469 109.648438 L 15.480469 112.539062 C 15.933594 112.007812 16.515625 111.738281 17.21875 111.738281 C 17.648438 111.738281 18.019531 111.824219 18.332031 111.992188 C 18.652344 112.164062 18.882812 112.398438 19.015625 112.695312 C 19.15625 112.996094 19.230469 113.433594 19.230469 114.003906 L 19.230469 117.695312 L 18.253906 117.695312 L 18.253906 114.003906 C 18.253906 113.511719 18.140625 113.152344 17.921875 112.929688 C 17.710938 112.695312 17.414062 112.578125 17.023438 112.578125 C 16.71875 112.578125 16.441406 112.65625 16.183594 112.8125 C 15.917969 112.957031 15.738281 113.160156 15.636719 113.417969 C 15.527344 113.679688 15.480469 114.042969 15.480469 114.511719 L 15.480469 117.695312 Z M 14.484375 117.695312 "/>
<path style=" stroke:none;fill-rule:nonzero;fill:rgb(0%,0%,0%);fill-opacity:1;" d="M 24.71875 115.820312 L 25.753906 115.9375 C 25.585938 116.539062 25.277344 117.007812 24.835938 117.34375 C 24.40625 117.671875 23.851562 117.832031 23.175781 117.832031 C 22.328125 117.832031 21.652344 117.574219 21.144531 117.050781 C 20.648438 116.519531 20.402344 115.777344 20.402344 114.824219 C 20.402344 113.847656 20.65625 113.09375 21.164062 112.558594 C 21.671875 112.011719 22.328125 111.738281 23.136719 111.738281 C 23.917969 111.738281 24.550781 112.007812 25.03125 112.539062 C 25.527344 113.0625 25.773438 113.804688 25.773438 114.765625 C 25.773438 114.832031 25.773438 114.921875 25.773438 115.039062 L 21.417969 115.039062 C 21.457031 115.679688 21.640625 116.167969 21.964844 116.503906 C 22.289062 116.84375 22.699219 117.011719 23.195312 117.011719 C 23.558594 117.011719 23.867188 116.921875 24.113281 116.738281 C 24.375 116.542969 24.574219 116.238281 24.71875 115.820312 Z M 21.476562 114.21875 L 24.738281 114.21875 C 24.699219 113.726562 24.574219 113.355469 24.367188 113.105469 C 24.054688 112.730469 23.644531 112.539062 23.136719 112.539062 C 22.679688 112.539062 22.296875 112.695312 21.984375 113.007812 C 21.683594 113.308594 21.515625 113.710938 21.476562 114.21875 Z M 21.476562 114.21875 "/>
<path style=" stroke:none;fill-rule:nonzero;fill:rgb(0%,0%,0%);fill-opacity:1;" d="M 26.949219 119.941406 L 26.832031 119.023438 C 27.050781 119.070312 27.242188 119.101562 27.398438 119.101562 C 27.617188 119.101562 27.792969 119.0625 27.925781 118.984375 C 28.054688 118.914062 28.164062 118.816406 28.257812 118.691406 C 28.308594 118.582031 28.40625 118.339844 28.550781 117.949219 C 28.574219 117.894531 28.609375 117.816406 28.648438 117.714844 L 26.421875 111.855469 L 27.496094 111.855469 L 28.707031 115.234375 C 28.863281 115.664062 29.003906 116.113281 29.136719 116.582031 C 29.238281 116.140625 29.371094 115.699219 29.527344 115.253906 L 30.777344 111.855469 L 31.773438 111.855469 L 29.546875 117.792969 C 29.3125 118.425781 29.128906 118.871094 29 119.121094 C 28.816406 119.441406 28.613281 119.675781 28.394531 119.824219 C 28.171875 119.980469 27.898438 120.058594 27.574219 120.058594 C 27.390625 120.058594 27.183594 120.019531 26.949219 119.941406 Z M 26.949219 119.941406 "/>
<path style="fill-rule:nonzero;fill:rgb(69.803922%,85.098039%,100%);fill-opacity:1;stroke-width:1;stroke-linecap:round;stroke-linejoin:round;stroke:rgb(0%,0%,0%);stroke-opacity:1;stroke-miterlimit:10;" d="M 598.234375 148 L 622.234375 148 L 622.234375 166 L 598.234375 166 Z M 598.234375 148 " transform="matrix(1.25,0,0,1.25,-697.5,-115)"/>
<path style="fill:none;stroke-width:1;stroke-linecap:round;stroke-linejoin:round;stroke:rgb(0%,0%,0%);stroke-opacity:1;stroke-miterlimit:10;" d="M 585.375 157 L 592.33125 157 " transform="matrix(1.25,0,0,1.25,-697.5,-115)"/>
<path style="fill:none;stroke-width:1;stroke-linecap:butt;stroke-linejoin:miter;stroke:rgb(0%,0%,0%);stroke-opacity:1;stroke-miterlimit:10;" d="M 596.33125 157 L 592.33125 157 M 592.33125 155.5 L 596.33125 157 L 592.33125 158.5 " transform="matrix(1.25,0,0,1.25,-697.5,-115)"/>
<path style="fill:none;stroke-width:1;stroke-linecap:round;stroke-linejoin:round;stroke:rgb(0%,0%,0%);stroke-opacity:1;stroke-miterlimit:10;" d="M 573.465625 176.15625 L 573.44375 171.9 " transform="matrix(1.25,0,0,1.25,-697.5,-115)"/>
<path style="fill:none;stroke-width:1;stroke-linecap:butt;stroke-linejoin:miter;stroke:rgb(0%,0%,0%);stroke-opacity:1;stroke-miterlimit:10;" d="M 573.425 167.9 L 573.44375 171.9 M 571.94375 171.90625 L 573.425 167.9 L 574.94375 171.89375 " transform="matrix(1.25,0,0,1.25,-697.5,-115)"/>
<path style="fill-rule:nonzero;fill:rgb(69.803922%,85.098039%,100%);fill-opacity:1;stroke-width:1;stroke-linecap:round;stroke-linejoin:round;stroke:rgb(0%,0%,0%);stroke-opacity:1;stroke-miterlimit:10;" d="M 634.625 148 L 658.625 148 L 658.625 166 L 634.625 166 Z M 634.625 148 " transform="matrix(1.25,0,0,1.25,-697.5,-115)"/>
<path style="fill-rule:nonzero;fill:rgb(69.803922%,85.098039%,100%);fill-opacity:1;stroke-width:1;stroke-linecap:round;stroke-linejoin:round;stroke:rgb(0%,0%,0%);stroke-opacity:1;stroke-miterlimit:10;" d="M 670.775 148 L 694.775 148 L 694.775 166 L 670.775 166 Z M 670.775 148 " transform="matrix(1.25,0,0,1.25,-697.5,-115)"/>
<path style="fill-rule:nonzero;fill:rgb(69.803922%,85.098039%,100%);fill-opacity:1;stroke-width:1;stroke-linecap:round;stroke-linejoin:round;stroke:rgb(0%,0%,0%);stroke-opacity:1;stroke-miterlimit:10;" d="M 708.578125 148 L 732.578125 148 L 732.578125 166 L 708.578125 166 Z M 708.578125 148 " transform="matrix(1.25,0,0,1.25,-697.5,-115)"/>
<path style=" stroke:none;fill-rule:nonzero;fill:rgb(0%,0%,0%);fill-opacity:1;" d="M 61.867188 116.972656 C 61.503906 117.285156 61.152344 117.507812 60.8125 117.636719 C 60.472656 117.761719 60.109375 117.832031 59.71875 117.832031 C 59.082031 117.832031 58.585938 117.675781 58.234375 117.363281 C 57.894531 117.050781 57.726562 116.648438 57.726562 116.152344 C 57.726562 115.867188 57.792969 115.605469 57.921875 115.371094 C 58.050781 115.136719 58.222656 114.949219 58.429688 114.804688 C 58.636719 114.664062 58.871094 114.550781 59.132812 114.472656 C 59.328125 114.433594 59.621094 114.390625 60.011719 114.335938 C 60.820312 114.246094 61.410156 114.128906 61.789062 113.984375 C 61.789062 113.855469 61.789062 113.769531 61.789062 113.730469 C 61.789062 113.328125 61.699219 113.046875 61.515625 112.890625 C 61.253906 112.65625 60.878906 112.539062 60.382812 112.539062 C 59.914062 112.539062 59.570312 112.625 59.347656 112.792969 C 59.125 112.949219 58.964844 113.238281 58.859375 113.652344 L 57.902344 113.535156 C 57.980469 113.121094 58.117188 112.789062 58.3125 112.539062 C 58.519531 112.28125 58.8125 112.085938 59.191406 111.953125 C 59.582031 111.8125 60.023438 111.738281 60.519531 111.738281 C 61.027344 111.738281 61.429688 111.796875 61.730469 111.914062 C 62.042969 112.03125 62.269531 112.183594 62.414062 112.363281 C 62.570312 112.535156 62.675781 112.753906 62.726562 113.027344 C 62.765625 113.199219 62.785156 113.496094 62.785156 113.925781 L 62.785156 115.253906 C 62.785156 116.167969 62.804688 116.746094 62.84375 116.992188 C 62.882812 117.242188 62.96875 117.476562 63.097656 117.695312 L 62.0625 117.695312 C 61.957031 117.488281 61.894531 117.246094 61.867188 116.972656 Z M 61.789062 114.765625 C 61.425781 114.910156 60.882812 115.035156 60.167969 115.136719 C 59.765625 115.203125 59.476562 115.273438 59.308594 115.351562 C 59.140625 115.417969 59.007812 115.523438 58.917969 115.664062 C 58.828125 115.808594 58.78125 115.964844 58.78125 116.132812 C 58.78125 116.394531 58.878906 116.617188 59.074219 116.796875 C 59.269531 116.96875 59.5625 117.050781 59.953125 117.050781 C 60.332031 117.050781 60.667969 116.96875 60.96875 116.796875 C 61.269531 116.628906 61.488281 116.402344 61.632812 116.113281 C 61.738281 115.894531 61.789062 115.566406 61.789062 115.136719 Z M 61.789062 114.765625 "/>
<path style=" stroke:none;fill-rule:nonzero;fill:rgb(0%,0%,0%);fill-opacity:1;" d="M 64.296875 117.695312 L 64.296875 111.855469 L 65.195312 111.855469 L 65.195312 112.753906 C 65.414062 112.339844 65.625 112.066406 65.820312 111.933594 C 66.015625 111.804688 66.230469 111.738281 66.464844 111.738281 C 66.789062 111.738281 67.128906 111.84375 67.480469 112.050781 L 67.128906 112.96875 C 66.894531 112.828125 66.652344 112.753906 66.40625 112.753906 C 66.195312 112.753906 66 112.820312 65.820312 112.949219 C 65.648438 113.082031 65.527344 113.261719 65.449219 113.496094 C 65.34375 113.847656 65.292969 114.234375 65.292969 114.648438 L 65.292969 117.695312 Z M 64.296875 117.695312 "/>
<path style=" stroke:none;fill-rule:nonzero;fill:rgb(0%,0%,0%);fill-opacity:1;" d="M 72.046875 115.820312 L 73.082031 115.9375 C 72.910156 116.539062 72.605469 117.007812 72.164062 117.34375 C 71.734375 117.671875 71.179688 117.832031 70.503906 117.832031 C 69.65625 117.832031 68.980469 117.574219 68.472656 117.050781 C 67.976562 116.519531 67.730469 115.777344 67.730469 114.824219 C 67.730469 113.847656 67.984375 113.09375 68.492188 112.558594 C 69 112.011719 69.65625 111.738281 70.464844 111.738281 C 71.246094 111.738281 71.875 112.007812 72.359375 112.539062 C 72.851562 113.0625 73.101562 113.804688 73.101562 114.765625 C 73.101562 114.832031 73.101562 114.921875 73.101562 115.039062 L 68.746094 115.039062 C 68.785156 115.679688 68.964844 116.167969 69.292969 116.503906 C 69.617188 116.84375 70.027344 117.011719 70.523438 117.011719 C 70.886719 117.011719 71.191406 116.921875 71.441406 116.738281 C 71.699219 116.542969 71.902344 116.238281 72.046875 115.820312 Z M 68.804688 114.21875 L 72.066406 114.21875 C 72.027344 113.726562 71.902344 113.355469 71.695312 113.105469 C 71.382812 112.730469 70.972656 112.539062 70.464844 112.539062 C 70.007812 112.539062 69.625 112.695312 69.3125 113.007812 C 69.011719 113.308594 68.84375 113.710938 68.804688 114.21875 Z M 68.804688 114.21875 "/>
<path style=" stroke:none;fill-rule:nonzero;fill:rgb(0%,0%,0%);fill-opacity:1;" d="M 90.554688 117.695312 L 88.777344 111.855469 L 89.792969 111.855469 L 90.730469 115.234375 L 91.0625 116.484375 C 91.074219 116.421875 91.179688 116.015625 91.375 115.273438 L 92.292969 111.855469 L 93.308594 111.855469 L 94.1875 115.253906 L 94.480469 116.367188 L 94.8125 115.234375 L 95.808594 111.855469 L 96.765625 111.855469 L 94.949219 117.695312 L 93.933594 117.695312 L 92.996094 114.199219 L 92.761719 113.203125 L 91.589844 117.695312 Z M 90.554688 117.695312 "/>
<path style=" stroke:none;fill-rule:nonzero;fill:rgb(0%,0%,0%);fill-opacity:1;" d="M 101.414062 116.972656 C 101.046875 117.285156 100.695312 117.507812 100.359375 117.636719 C 100.019531 117.761719 99.65625 117.832031 99.265625 117.832031 C 98.625 117.832031 98.132812 117.675781 97.78125 117.363281 C 97.441406 117.050781 97.273438 116.648438 97.273438 116.152344 C 97.273438 115.867188 97.335938 115.605469 97.46875 115.371094 C 97.597656 115.136719 97.765625 114.949219 97.976562 114.804688 C 98.183594 114.664062 98.417969 114.550781 98.679688 114.472656 C 98.875 114.433594 99.167969 114.390625 99.558594 114.335938 C 100.363281 114.246094 100.957031 114.128906 101.335938 113.984375 C 101.335938 113.855469 101.335938 113.769531 101.335938 113.730469 C 101.335938 113.328125 101.242188 113.046875 101.0625 112.890625 C 100.800781 112.65625 100.421875 112.539062 99.929688 112.539062 C 99.460938 112.539062 99.113281 112.625 98.894531 112.792969 C 98.671875 112.949219 98.507812 113.238281 98.40625 113.652344 L 97.449219 113.535156 C 97.527344 113.121094 97.664062 112.789062 97.859375 112.539062 C 98.066406 112.28125 98.359375 112.085938 98.738281 111.953125 C 99.128906 111.8125 99.570312 111.738281 100.066406 111.738281 C 100.574219 111.738281 100.976562 111.796875 101.277344 111.914062 C 101.589844 112.03125 101.816406 112.183594 101.960938 112.363281 C 102.117188 112.535156 102.21875 112.753906 102.273438 113.027344 C 102.3125 113.199219 102.332031 113.496094 102.332031 113.925781 L 102.332031 115.253906 C 102.332031 116.167969 102.351562 116.746094 102.390625 116.992188 C 102.429688 117.242188 102.511719 117.476562 102.644531 117.695312 L 101.609375 117.695312 C 101.503906 117.488281 101.4375 117.246094 101.414062 116.972656 Z M 101.335938 114.765625 C 100.96875 114.910156 100.429688 115.035156 99.714844 115.136719 C 99.308594 115.203125 99.023438 115.273438 98.855469 115.351562 C 98.683594 115.417969 98.554688 115.523438 98.464844 115.664062 C 98.371094 115.808594 98.328125 115.964844 98.328125 116.132812 C 98.328125 116.394531 98.425781 116.617188 98.621094 116.796875 C 98.816406 116.96875 99.109375 117.050781 99.5 117.050781 C 99.875 117.050781 100.214844 116.96875 100.515625 116.796875 C 100.8125 116.628906 101.035156 116.402344 101.179688 116.113281 C 101.28125 115.894531 101.335938 115.566406 101.335938 115.136719 Z M 101.335938 114.765625 "/>
<path style=" stroke:none;fill-rule:nonzero;fill:rgb(0%,0%,0%);fill-opacity:1;" d="M 106.03125 116.816406 L 106.167969 117.675781 C 105.878906 117.738281 105.632812 117.773438 105.425781 117.773438 C 105.058594 117.773438 104.78125 117.714844 104.585938 117.597656 C 104.390625 117.480469 104.246094 117.332031 104.15625 117.148438 C 104.078125 116.96875 104.039062 116.582031 104.039062 115.996094 L 104.039062 112.636719 L 103.316406 112.636719 L 103.316406 111.855469 L 104.039062 111.855469 L 104.039062 110.410156 L 105.035156 109.824219 L 105.035156 111.855469 L 106.03125 111.855469 L 106.03125 112.636719 L 105.035156 112.636719 L 105.035156 116.035156 C 105.035156 116.324219 105.046875 116.503906 105.074219 116.582031 C 105.113281 116.660156 105.171875 116.726562 105.25 116.777344 C 105.328125 116.832031 105.4375 116.855469 105.582031 116.855469 C 105.699219 116.855469 105.847656 116.84375 106.03125 116.816406 Z M 106.03125 116.816406 "/>
<path style=" stroke:none;fill-rule:nonzero;fill:rgb(0%,0%,0%);fill-opacity:1;" d="M 110.796875 115.566406 L 111.773438 115.683594 C 111.667969 116.363281 111.394531 116.890625 110.953125 117.265625 C 110.507812 117.644531 109.96875 117.832031 109.332031 117.832031 C 108.535156 117.832031 107.898438 117.574219 107.417969 117.050781 C 106.933594 116.53125 106.695312 115.78125 106.695312 114.804688 C 106.695312 114.167969 106.796875 113.613281 107.007812 113.144531 C 107.214844 112.675781 107.527344 112.324219 107.945312 112.089844 C 108.375 111.855469 108.84375 111.738281 109.351562 111.738281 C 109.976562 111.738281 110.488281 111.902344 110.894531 112.226562 C 111.296875 112.539062 111.558594 112.988281 111.675781 113.574219 L 110.71875 113.730469 C 110.625 113.339844 110.464844 113.046875 110.230469 112.851562 C 109.996094 112.644531 109.714844 112.539062 109.390625 112.539062 C 108.882812 112.539062 108.472656 112.722656 108.160156 113.085938 C 107.859375 113.4375 107.710938 114 107.710938 114.765625 C 107.710938 115.5625 107.859375 116.132812 108.160156 116.484375 C 108.457031 116.835938 108.847656 117.011719 109.332031 117.011719 C 109.722656 117.011719 110.046875 116.894531 110.308594 116.660156 C 110.566406 116.425781 110.730469 116.0625 110.796875 115.566406 Z M 110.796875 115.566406 "/>
<path style=" stroke:none;fill-rule:nonzero;fill:rgb(0%,0%,0%);fill-opacity:1;" d="M 112.613281 117.695312 L 112.613281 109.648438 L 113.609375 109.648438 L 113.609375 112.539062 C 114.0625 112.007812 114.644531 111.738281 115.347656 111.738281 C 115.777344 111.738281 116.148438 111.824219 116.460938 111.992188 C 116.785156 112.164062 117.011719 112.398438 117.144531 112.695312 C 117.285156 112.996094 117.359375 113.433594 117.359375 114.003906 L 117.359375 117.695312 L 116.382812 117.695312 L 116.382812 114.003906 C 116.382812 113.511719 116.269531 113.152344 116.050781 112.929688 C 115.839844 112.695312 115.542969 112.578125 115.152344 112.578125 C 114.851562 112.578125 114.570312 112.65625 114.3125 112.8125 C 114.050781 112.957031 113.867188 113.160156 113.765625 113.417969 C 113.660156 113.679688 113.609375 114.042969 113.609375 114.511719 L 113.609375 117.695312 Z M 112.613281 117.695312 "/>
<path style=" stroke:none;fill-rule:nonzero;fill:rgb(0%,0%,0%);fill-opacity:1;" d="M 118.871094 110.78125 L 118.871094 109.648438 L 119.867188 109.648438 L 119.867188 110.78125 Z M 118.871094 117.695312 L 118.871094 111.855469 L 119.867188 111.855469 L 119.867188 117.695312 Z M 118.871094 117.695312 "/>
<path style=" stroke:none;fill-rule:nonzero;fill:rgb(0%,0%,0%);fill-opacity:1;" d="M 121.371094 117.695312 L 121.371094 111.855469 L 122.269531 111.855469 L 122.269531 112.695312 C 122.683594 112.058594 123.304688 111.738281 124.125 111.738281 C 124.476562 111.738281 124.792969 111.804688 125.082031 111.933594 C 125.378906 112.050781 125.597656 112.214844 125.746094 112.421875 C 125.886719 112.617188 125.988281 112.859375 126.058594 113.144531 C 126.097656 113.328125 126.117188 113.648438 126.117188 114.101562 L 126.117188 117.695312 L 125.121094 117.695312 L 125.121094 114.140625 C 125.121094 113.738281 125.082031 113.4375 125.003906 113.242188 C 124.925781 113.046875 124.789062 112.890625 124.59375 112.773438 C 124.398438 112.644531 124.167969 112.578125 123.910156 112.578125 C 123.488281 112.578125 123.128906 112.714844 122.816406 112.988281 C 122.511719 113.25 122.367188 113.757812 122.367188 114.511719 L 122.367188 117.695312 Z M 121.371094 117.695312 "/>
<path style=" stroke:none;fill-rule:nonzero;fill:rgb(0%,0%,0%);fill-opacity:1;" d="M 127.453125 118.183594 L 128.410156 118.320312 C 128.449219 118.617188 128.554688 118.832031 128.742188 118.964844 C 128.984375 119.144531 129.328125 119.238281 129.757812 119.238281 C 130.210938 119.238281 130.5625 119.144531 130.8125 118.964844 C 131.054688 118.777344 131.226562 118.523438 131.320312 118.203125 C 131.367188 117.992188 131.386719 117.574219 131.378906 116.933594 C 130.949219 117.441406 130.410156 117.695312 129.777344 117.695312 C 128.964844 117.695312 128.339844 117.410156 127.902344 116.835938 C 127.472656 116.25 127.257812 115.554688 127.257812 114.746094 C 127.257812 114.1875 127.355469 113.671875 127.550781 113.203125 C 127.753906 112.734375 128.046875 112.378906 128.429688 112.128906 C 128.804688 111.871094 129.253906 111.738281 129.777344 111.738281 C 130.464844 111.738281 131.03125 112.011719 131.476562 112.558594 L 131.476562 111.855469 L 132.394531 111.855469 L 132.394531 116.894531 C 132.394531 117.800781 132.296875 118.445312 132.101562 118.828125 C 131.914062 119.203125 131.621094 119.5 131.222656 119.726562 C 130.832031 119.945312 130.34375 120.058594 129.757812 120.058594 C 129.054688 120.058594 128.488281 119.902344 128.058594 119.589844 C 127.636719 119.277344 127.4375 118.808594 127.453125 118.183594 Z M 128.273438 114.667969 C 128.273438 115.4375 128.417969 115.996094 128.722656 116.347656 C 129.019531 116.699219 129.394531 116.875 129.855469 116.875 C 130.308594 116.875 130.695312 116.699219 131.007812 116.347656 C 131.320312 115.996094 131.476562 115.449219 131.476562 114.707031 C 131.476562 113.992188 131.308594 113.453125 130.988281 113.085938 C 130.675781 112.722656 130.292969 112.539062 129.855469 112.539062 C 129.410156 112.539062 129.035156 112.722656 128.722656 113.085938 C 128.417969 113.4375 128.273438 113.964844 128.273438 114.667969 Z M 128.273438 114.667969 "/>
<path style=" stroke:none;fill-rule:nonzero;fill:rgb(0%,0%,0%);fill-opacity:1;" d="M 155.574219 117.695312 L 155.574219 116.5625 L 156.707031 116.5625 L 156.707031 117.695312 Z M 155.574219 117.695312 "/>
<path style=" stroke:none;fill-rule:nonzero;fill:rgb(0%,0%,0%);fill-opacity:1;" d="M 188.363281 114.179688 L 188.363281 113.242188 L 193.695312 110.996094 L 193.695312 111.972656 L 189.457031 113.710938 L 193.695312 115.46875 L 193.695312 116.445312 Z M 188.363281 114.179688 "/>
<path style=" stroke:none;fill-rule:nonzero;fill:rgb(0%,0%,0%);fill-opacity:1;" d="M 199.035156 115.820312 L 200.070312 115.9375 C 199.902344 116.539062 199.59375 117.007812 199.152344 117.34375 C 198.722656 117.671875 198.167969 117.832031 197.492188 117.832031 C 196.644531 117.832031 195.96875 117.574219 195.460938 117.050781 C 194.964844 116.519531 194.71875 115.777344 194.71875 114.824219 C 194.71875 113.847656 194.972656 113.09375 195.480469 112.558594 C 195.988281 112.011719 196.644531 111.738281 197.453125 111.738281 C 198.234375 111.738281 198.867188 112.007812 199.347656 112.539062 C 199.84375 113.0625 200.089844 113.804688 200.089844 114.765625 C 200.089844 114.832031 200.089844 114.921875 200.089844 115.039062 L 195.734375 115.039062 C 195.773438 115.679688 195.957031 116.167969 196.28125 116.503906 C 196.605469 116.84375 197.015625 117.011719 197.511719 117.011719 C 197.875 117.011719 198.183594 116.921875 198.429688 116.738281 C 198.691406 116.542969 198.890625 116.238281 199.035156 115.820312 Z M 195.792969 114.21875 L 199.054688 114.21875 C 199.015625 113.726562 198.890625 113.355469 198.683594 113.105469 C 198.371094 112.730469 197.960938 112.539062 197.453125 112.539062 C 196.996094 112.539062 196.613281 112.695312 196.300781 113.007812 C 196 113.308594 195.832031 113.710938 195.792969 114.21875 Z M 195.792969 114.21875 "/>
<path style=" stroke:none;fill-rule:nonzero;fill:rgb(0%,0%,0%);fill-opacity:1;" d="M 200.9375 114.785156 C 200.9375 113.707031 201.234375 112.90625 201.835938 112.382812 C 202.34375 111.953125 202.953125 111.738281 203.671875 111.738281 C 204.476562 111.738281 205.136719 112 205.644531 112.519531 C 206.152344 113.042969 206.40625 113.765625 206.40625 114.6875 C 206.40625 115.445312 206.289062 116.035156 206.054688 116.464844 C 205.832031 116.894531 205.507812 117.234375 205.078125 117.480469 C 204.648438 117.714844 204.179688 117.832031 203.671875 117.832031 C 202.851562 117.832031 202.1875 117.574219 201.679688 117.050781 C 201.183594 116.519531 200.9375 115.761719 200.9375 114.785156 Z M 201.953125 114.785156 C 201.953125 115.527344 202.113281 116.089844 202.441406 116.464844 C 202.765625 116.832031 203.175781 117.011719 203.671875 117.011719 C 204.164062 117.011719 204.574219 116.832031 204.902344 116.464844 C 205.226562 116.089844 205.390625 115.515625 205.390625 114.746094 C 205.390625 114.03125 205.226562 113.484375 204.902344 113.105469 C 204.574219 112.730469 204.164062 112.539062 203.671875 112.539062 C 203.175781 112.539062 202.765625 112.730469 202.441406 113.105469 C 202.113281 113.472656 201.953125 114.03125 201.953125 114.785156 Z M 201.953125 114.785156 "/>
<path style=" stroke:none;fill-rule:nonzero;fill:rgb(0%,0%,0%);fill-opacity:1;" d="M 207.175781 115.957031 L 208.152344 115.800781 C 208.203125 116.191406 208.351562 116.492188 208.601562 116.699219 C 208.859375 116.910156 209.210938 117.011719 209.65625 117.011719 C 210.109375 117.011719 210.449219 116.921875 210.671875 116.738281 C 210.890625 116.558594 211.003906 116.34375 211.003906 116.09375 C 211.003906 115.859375 210.90625 115.683594 210.710938 115.566406 C 210.566406 115.476562 210.226562 115.359375 209.695312 115.214844 C 208.964844 115.035156 208.457031 114.878906 208.171875 114.746094 C 207.898438 114.617188 207.6875 114.433594 207.546875 114.199219 C 207.402344 113.964844 207.332031 113.707031 207.332031 113.417969 C 207.332031 113.160156 207.390625 112.917969 207.507812 112.695312 C 207.625 112.476562 207.785156 112.285156 207.996094 112.128906 C 208.152344 112.027344 208.359375 111.933594 208.621094 111.855469 C 208.894531 111.777344 209.179688 111.738281 209.480469 111.738281 C 209.933594 111.738281 210.332031 111.804688 210.671875 111.933594 C 211.023438 112.066406 211.28125 112.242188 211.453125 112.460938 C 211.621094 112.683594 211.738281 112.984375 211.804688 113.359375 L 210.828125 113.496094 C 210.789062 113.199219 210.65625 112.964844 210.4375 112.792969 C 210.226562 112.625 209.933594 112.539062 209.558594 112.539062 C 209.101562 112.539062 208.777344 112.617188 208.582031 112.773438 C 208.386719 112.917969 208.289062 113.09375 208.289062 113.300781 C 208.289062 113.433594 208.328125 113.542969 208.40625 113.632812 C 208.484375 113.75 208.613281 113.84375 208.796875 113.90625 C 208.886719 113.945312 209.171875 114.03125 209.65625 114.160156 C 210.359375 114.34375 210.847656 114.492188 211.121094 114.609375 C 211.40625 114.726562 211.628906 114.902344 211.785156 115.136719 C 211.941406 115.359375 212.019531 115.640625 212.019531 115.976562 C 212.019531 116.316406 211.921875 116.628906 211.726562 116.914062 C 211.53125 117.203125 211.25 117.429688 210.886719 117.597656 C 210.535156 117.753906 210.125 117.832031 209.65625 117.832031 C 208.898438 117.832031 208.320312 117.675781 207.917969 117.363281 C 207.527344 117.039062 207.277344 116.570312 207.175781 115.957031 Z M 207.175781 115.957031 "/>
<path style=" stroke:none;fill-rule:nonzero;fill:rgb(0%,0%,0%);fill-opacity:1;" d="M 218.40625 114.179688 L 213.074219 116.445312 L 213.074219 115.46875 L 217.292969 113.710938 L 213.074219 111.972656 L 213.074219 110.996094 L 218.40625 113.242188 Z M 218.40625 114.179688 "/>
<path style="fill:none;stroke-width:1;stroke-linecap:round;stroke-linejoin:round;stroke:rgb(0%,0%,0%);stroke-opacity:1;stroke-miterlimit:10;" d="M 753.875 148 L 777.875 148 L 777.875 166 L 753.875 166 Z M 753.875 148 " transform="matrix(1.25,0,0,1.25,-697.5,-115)"/>
<path style="fill:none;stroke-width:1;stroke-linecap:round;stroke-linejoin:round;stroke:rgb(0%,0%,0%);stroke-opacity:1;stroke-miterlimit:10;" d="M 796.875 148 L 820.875 148 L 820.875 166 L 796.875 166 Z M 796.875 148 " transform="matrix(1.25,0,0,1.25,-697.5,-115)"/>
<path style="fill:none;stroke-width:1;stroke-linecap:round;stroke-linejoin:round;stroke:rgb(0%,0%,0%);stroke-opacity:1;stroke-miterlimit:10;" d="M 840.3 148 L 864.3 148 L 864.3 166 L 840.3 166 Z M 840.3 148 " transform="matrix(1.25,0,0,1.25,-697.5,-115)"/>
<path style="fill:none;stroke-width:1;stroke-linecap:round;stroke-linejoin:round;stroke:rgb(0%,0%,0%);stroke-opacity:1;stroke-miterlimit:10;" d="M 883.15 148 L 907.15 148 L 907.15 166 L 883.15 166 Z M 883.15 148 " transform="matrix(1.25,0,0,1.25,-697.5,-115)"/>
<path style="fill:none;stroke-width:1;stroke-linecap:round;stroke-linejoin:round;stroke:rgb(0%,0%,0%);stroke-opacity:1;stroke-miterlimit:10;" d="M 610.325 176.15625 L 610.30625 171.9 " transform="matrix(1.25,0,0,1.25,-697.5,-115)"/>
<path style="fill:none;stroke-width:1;stroke-linecap:butt;stroke-linejoin:miter;stroke:rgb(0%,0%,0%);stroke-opacity:1;stroke-miterlimit:10;" d="M 610.284375 167.9 L 610.30625 171.9 M 608.80625 171.90625 L 610.284375 167.9 L 611.80625 171.89375 " transform="matrix(1.25,0,0,1.25,-697.5,-115)"/>
<path style="fill:none;stroke-width:1;stroke-linecap:round;stroke-linejoin:round;stroke:rgb(0%,0%,0%);stroke-opacity:1;stroke-miterlimit:10;" d="M 622.234375 157 L 628.725 157 " transform="matrix(1.25,0,0,1.25,-697.5,-115)"/>
<path style="fill:none;stroke-width:1;stroke-linecap:butt;stroke-linejoin:miter;stroke:rgb(0%,0%,0%);stroke-opacity:1;stroke-miterlimit:10;" d="M 632.725 157 L 628.725 157 M 628.725 155.5 L 632.725 157 L 628.725 158.5 " transform="matrix(1.25,0,0,1.25,-697.5,-115)"/>
<path style="fill:none;stroke-width:1;stroke-linecap:round;stroke-linejoin:round;stroke:rgb(0%,0%,0%);stroke-opacity:1;stroke-miterlimit:10;" d="M 658.625 157 L 664.875 157 " transform="matrix(1.25,0,0,1.25,-697.5,-115)"/>
<path style="fill:none;stroke-width:1;stroke-linecap:butt;stroke-linejoin:miter;stroke:rgb(0%,0%,0%);stroke-opacity:1;stroke-miterlimit:10;" d="M 668.875 157 L 664.875 157 M 664.875 155.5 L 668.875 157 L 664.875 158.5 " transform="matrix(1.25,0,0,1.25,-697.5,-115)"/>
<path style="fill:none;stroke-width:1;stroke-linecap:round;stroke-linejoin:round;stroke:rgb(0%,0%,0%);stroke-opacity:1;stroke-miterlimit:10;" d="M 694.775 157 L 702.68125 157 " transform="matrix(1.25,0,0,1.25,-697.5,-115)"/>
<path style="fill:none;stroke-width:1;stroke-linecap:butt;stroke-linejoin:miter;stroke:rgb(0%,0%,0%);stroke-opacity:1;stroke-miterlimit:10;" d="M 706.68125 157 L 702.68125 157 M 702.68125 155.5 L 706.68125 157 L 702.68125 158.5 " transform="matrix(1.25,0,0,1.25,-697.5,-115)"/>
<path style="fill:none;stroke-width:1;stroke-linecap:round;stroke-linejoin:round;stroke:rgb(0%,0%,0%);stroke-opacity:1;stroke-miterlimit:10;" d="M 646.71875 176.15625 L 646.7 171.9 " transform="matrix(1.25,0,0,1.25,-697.5,-115)"/>
<path style="fill:none;stroke-width:1;stroke-linecap:butt;stroke-linejoin:miter;stroke:rgb(0%,0%,0%);stroke-opacity:1;stroke-miterlimit:10;" d="M 646.68125 167.9 L 646.7 171.9 M 645.2 171.90625 L 646.68125 167.9 L 648.2 171.89375 " transform="matrix(1.25,0,0,1.25,-697.5,-115)"/>
<path style="fill:none;stroke-width:1;stroke-linecap:round;stroke-linejoin:round;stroke:rgb(0%,0%,0%);stroke-opacity:1;stroke-miterlimit:10;" d="M 682.8625 176.15625 L 682.84375 171.9 " transform="matrix(1.25,0,0,1.25,-697.5,-115)"/>
<path style="fill:none;stroke-width:1;stroke-linecap:butt;stroke-linejoin:miter;stroke:rgb(0%,0%,0%);stroke-opacity:1;stroke-miterlimit:10;" d="M 682.825 167.9 L 682.84375 171.9 M 681.34375 171.90625 L 682.825 167.9 L 684.34375 171.89375 " transform="matrix(1.25,0,0,1.25,-697.5,-115)"/>
<path style="fill:none;stroke-width:1;stroke-linecap:round;stroke-linejoin:round;stroke:rgb(0%,0%,0%);stroke-opacity:1;stroke-miterlimit:10;" d="M 720.66875 176.15625 L 720.65 171.9 " transform="matrix(1.25,0,0,1.25,-697.5,-115)"/>
<path style="fill:none;stroke-width:1;stroke-linecap:butt;stroke-linejoin:miter;stroke:rgb(0%,0%,0%);stroke-opacity:1;stroke-miterlimit:10;" d="M 720.628125 167.9 L 720.65 171.9 M 719.15 171.90625 L 720.628125 167.9 L 722.15 171.89375 " transform="matrix(1.25,0,0,1.25,-697.5,-115)"/>
<path style="fill:none;stroke-width:1;stroke-linecap:round;stroke-linejoin:round;stroke:rgb(0%,0%,0%);stroke-opacity:1;stroke-miterlimit:10;" d="M 820.875 157 L 834.403125 157 " transform="matrix(1.25,0,0,1.25,-697.5,-115)"/>
<path style="fill:none;stroke-width:1;stroke-linecap:butt;stroke-linejoin:miter;stroke:rgb(0%,0%,0%);stroke-opacity:1;stroke-miterlimit:10;" d="M 838.403125 157 L 834.403125 157 M 834.403125 155.5 L 838.403125 157 L 834.403125 158.5 " transform="matrix(1.25,0,0,1.25,-697.5,-115)"/>
<path style=" stroke:none;fill-rule:nonzero;fill:rgb(0%,0%,0%);fill-opacity:1;" d="M 255.371094 42.5 L 255.371094 34.453125 L 256.425781 34.453125 L 256.425781 42.5 Z M 255.371094 42.5 "/>
<path style=" stroke:none;fill-rule:nonzero;fill:rgb(0%,0%,0%);fill-opacity:1;" d="M 258.164062 42.5 L 258.164062 34.453125 L 259.140625 34.453125 L 259.140625 42.5 Z M 258.164062 42.5 "/>
<path style=" stroke:none;fill-rule:nonzero;fill:rgb(0%,0%,0%);fill-opacity:1;" d="M 260.289062 40.761719 L 261.265625 40.605469 C 261.316406 40.996094 261.464844 41.296875 261.714844 41.503906 C 261.972656 41.714844 262.324219 41.816406 262.769531 41.816406 C 263.222656 41.816406 263.5625 41.726562 263.785156 41.542969 C 264.003906 41.363281 264.117188 41.148438 264.117188 40.898438 C 264.117188 40.664062 264.019531 40.488281 263.824219 40.371094 C 263.679688 40.28125 263.339844 40.164062 262.808594 40.019531 C 262.078125 39.839844 261.570312 39.683594 261.285156 39.550781 C 261.011719 39.421875 260.800781 39.238281 260.660156 39.003906 C 260.515625 38.769531 260.445312 38.511719 260.445312 38.222656 C 260.445312 37.964844 260.503906 37.726562 260.621094 37.5 C 260.738281 37.28125 260.898438 37.089844 261.109375 36.933594 C 261.265625 36.832031 261.472656 36.738281 261.734375 36.660156 C 262.007812 36.582031 262.292969 36.542969 262.59375 36.542969 C 263.046875 36.542969 263.445312 36.609375 263.785156 36.738281 C 264.136719 36.871094 264.394531 37.046875 264.566406 37.265625 C 264.734375 37.492188 264.851562 37.789062 264.917969 38.164062 L 263.941406 38.300781 C 263.902344 38.003906 263.769531 37.769531 263.550781 37.597656 C 263.339844 37.429688 263.046875 37.34375 262.671875 37.34375 C 262.214844 37.34375 261.890625 37.421875 261.695312 37.578125 C 261.5 37.726562 261.402344 37.898438 261.402344 38.105469 C 261.402344 38.238281 261.441406 38.351562 261.519531 38.4375 C 261.597656 38.554688 261.726562 38.648438 261.910156 38.710938 C 262 38.75 262.285156 38.835938 262.769531 38.964844 C 263.472656 39.148438 263.960938 39.296875 264.234375 39.414062 C 264.519531 39.53125 264.742188 39.707031 264.898438 39.941406 C 265.054688 40.164062 265.132812 40.445312 265.132812 40.78125 C 265.132812 41.125 265.035156 41.4375 264.839844 41.71875 C 264.644531 42.007812 264.363281 42.234375 264 42.402344 C 263.648438 42.558594 263.238281 42.636719 262.769531 42.636719 C 262.011719 42.636719 261.433594 42.480469 261.03125 42.167969 C 260.640625 41.84375 260.390625 41.375 260.289062 40.761719 Z M 260.289062 40.761719 "/>
<path style=" stroke:none;fill-rule:nonzero;fill:rgb(0%,0%,0%);fill-opacity:1;" d="M 290.136719 42.5 L 290.136719 36.660156 L 291.035156 36.660156 L 291.035156 37.558594 C 291.257812 37.144531 291.464844 36.871094 291.660156 36.738281 C 291.855469 36.609375 292.070312 36.542969 292.304688 36.542969 C 292.628906 36.542969 292.96875 36.648438 293.320312 36.855469 L 292.96875 37.773438 C 292.734375 37.632812 292.492188 37.558594 292.246094 37.558594 C 292.039062 37.558594 291.84375 37.625 291.660156 37.753906 C 291.492188 37.886719 291.367188 38.066406 291.289062 38.300781 C 291.183594 38.652344 291.132812 39.039062 291.132812 39.453125 L 291.132812 42.5 Z M 290.136719 42.5 "/>
<path style=" stroke:none;fill-rule:nonzero;fill:rgb(0%,0%,0%);fill-opacity:1;" d="M 297.886719 40.625 L 298.921875 40.742188 C 298.753906 41.34375 298.445312 41.8125 298.003906 42.148438 C 297.574219 42.476562 297.019531 42.636719 296.34375 42.636719 C 295.496094 42.636719 294.820312 42.378906 294.3125 41.855469 C 293.816406 41.324219 293.570312 40.582031 293.570312 39.628906 C 293.570312 38.652344 293.824219 37.898438 294.332031 37.363281 C 294.839844 36.816406 295.496094 36.542969 296.304688 36.542969 C 297.085938 36.542969 297.71875 36.8125 298.199219 37.34375 C 298.695312 37.867188 298.941406 38.609375 298.941406 39.570312 C 298.941406 39.640625 298.941406 39.726562 298.941406 39.84375 L 294.585938 39.84375 C 294.625 40.484375 294.808594 40.972656 295.132812 41.308594 C 295.457031 41.648438 295.867188 41.816406 296.363281 41.816406 C 296.726562 41.816406 297.035156 41.726562 297.28125 41.542969 C 297.542969 41.347656 297.742188 41.046875 297.886719 40.625 Z M 294.644531 39.023438 L 297.90625 39.023438 C 297.867188 38.53125 297.742188 38.160156 297.535156 37.910156 C 297.222656 37.535156 296.8125 37.34375 296.304688 37.34375 C 295.847656 37.34375 295.464844 37.5 295.152344 37.8125 C 294.851562 38.117188 294.683594 38.515625 294.644531 39.023438 Z M 294.644531 39.023438 "/>
<path style=" stroke:none;fill-rule:nonzero;fill:rgb(0%,0%,0%);fill-opacity:1;" d="M 299.984375 42.988281 L 300.941406 43.125 C 300.980469 43.421875 301.089844 43.636719 301.273438 43.769531 C 301.519531 43.949219 301.859375 44.042969 302.289062 44.042969 C 302.746094 44.042969 303.097656 43.949219 303.34375 43.769531 C 303.589844 43.585938 303.761719 43.328125 303.851562 43.007812 C 303.902344 42.796875 303.921875 42.378906 303.910156 41.738281 C 303.480469 42.246094 302.945312 42.5 302.308594 42.5 C 301.5 42.5 300.875 42.21875 300.433594 41.640625 C 300.003906 41.054688 299.789062 40.359375 299.789062 39.550781 C 299.789062 38.992188 299.886719 38.476562 300.082031 38.007812 C 300.289062 37.539062 300.582031 37.183594 300.960938 36.933594 C 301.339844 36.675781 301.789062 36.542969 302.308594 36.542969 C 303 36.542969 303.566406 36.816406 304.007812 37.363281 L 304.007812 36.660156 L 304.925781 36.660156 L 304.925781 41.699219 C 304.925781 42.609375 304.828125 43.25 304.632812 43.632812 C 304.449219 44.007812 304.15625 44.304688 303.753906 44.53125 C 303.363281 44.75 302.875 44.863281 302.289062 44.863281 C 301.585938 44.863281 301.019531 44.707031 300.589844 44.394531 C 300.171875 44.082031 299.972656 43.613281 299.984375 42.988281 Z M 300.804688 39.472656 C 300.804688 40.242188 300.953125 40.800781 301.253906 41.152344 C 301.554688 41.503906 301.929688 41.679688 302.386719 41.679688 C 302.84375 41.679688 303.226562 41.503906 303.539062 41.152344 C 303.851562 40.800781 304.007812 40.253906 304.007812 39.511719 C 304.007812 38.796875 303.84375 38.257812 303.519531 37.890625 C 303.207031 37.53125 302.828125 37.34375 302.386719 37.34375 C 301.945312 37.34375 301.566406 37.53125 301.253906 37.890625 C 300.953125 38.242188 300.804688 38.769531 300.804688 39.472656 Z M 300.804688 39.472656 "/>
<path style=" stroke:none;fill-rule:nonzero;fill:rgb(0%,0%,0%);fill-opacity:1;" d="M 310.226562 41.777344 C 309.859375 42.089844 309.507812 42.3125 309.171875 42.441406 C 308.832031 42.570312 308.46875 42.636719 308.078125 42.636719 C 307.4375 42.636719 306.945312 42.480469 306.59375 42.167969 C 306.253906 41.855469 306.085938 41.453125 306.085938 40.957031 C 306.085938 40.671875 306.148438 40.410156 306.28125 40.175781 C 306.410156 39.941406 306.578125 39.757812 306.789062 39.609375 C 306.996094 39.46875 307.230469 39.355469 307.492188 39.277344 C 307.6875 39.238281 307.980469 39.195312 308.371094 39.140625 C 309.175781 39.054688 309.769531 38.9375 310.148438 38.789062 C 310.148438 38.664062 310.148438 38.574219 310.148438 38.535156 C 310.148438 38.132812 310.054688 37.851562 309.875 37.695312 C 309.613281 37.460938 309.234375 37.34375 308.742188 37.34375 C 308.273438 37.34375 307.925781 37.429688 307.707031 37.597656 C 307.484375 37.753906 307.320312 38.042969 307.21875 38.457031 L 306.261719 38.339844 C 306.339844 37.925781 306.476562 37.59375 306.671875 37.34375 C 306.878906 37.085938 307.171875 36.890625 307.550781 36.757812 C 307.941406 36.617188 308.382812 36.542969 308.878906 36.542969 C 309.386719 36.542969 309.789062 36.601562 310.089844 36.71875 C 310.402344 36.835938 310.628906 36.988281 310.773438 37.167969 C 310.929688 37.339844 311.03125 37.558594 311.085938 37.832031 C 311.125 38.003906 311.144531 38.300781 311.144531 38.730469 L 311.144531 40.058594 C 311.144531 40.972656 311.164062 41.554688 311.203125 41.796875 C 311.242188 42.046875 311.324219 42.28125 311.457031 42.5 L 310.421875 42.5 C 310.316406 42.296875 310.25 42.050781 310.226562 41.777344 Z M 310.148438 39.570312 C 309.78125 39.71875 309.242188 39.839844 308.527344 39.941406 C 308.121094 40.007812 307.835938 40.078125 307.667969 40.15625 C 307.496094 40.226562 307.367188 40.328125 307.277344 40.46875 C 307.183594 40.617188 307.140625 40.773438 307.140625 40.9375 C 307.140625 41.203125 307.238281 41.421875 307.433594 41.601562 C 307.628906 41.773438 307.921875 41.855469 308.3125 41.855469 C 308.6875 41.855469 309.027344 41.773438 309.328125 41.601562 C 309.625 41.4375 309.847656 41.207031 309.992188 40.917969 C 310.09375 40.699219 310.148438 40.371094 310.148438 39.941406 Z M 310.148438 39.570312 "/>
<path style=" stroke:none;fill-rule:nonzero;fill:rgb(0%,0%,0%);fill-opacity:1;" d="M 312.65625 42.5 L 312.65625 36.660156 L 313.554688 36.660156 L 313.554688 37.558594 C 313.773438 37.144531 313.984375 36.871094 314.179688 36.738281 C 314.375 36.609375 314.589844 36.542969 314.824219 36.542969 C 315.148438 36.542969 315.488281 36.648438 315.839844 36.855469 L 315.488281 37.773438 C 315.253906 37.632812 315.011719 37.558594 314.765625 37.558594 C 314.554688 37.558594 314.359375 37.625 314.179688 37.753906 C 314.007812 37.886719 313.886719 38.066406 313.808594 38.300781 C 313.703125 38.652344 313.652344 39.039062 313.652344 39.453125 L 313.652344 42.5 Z M 312.65625 42.5 "/>
<path style=" stroke:none;fill-rule:nonzero;fill:rgb(0%,0%,0%);fill-opacity:1;" d="M 320.210938 42.5 L 320.210938 41.757812 C 319.832031 42.34375 319.285156 42.636719 318.570312 42.636719 C 318.113281 42.636719 317.691406 42.503906 317.300781 42.246094 C 316.910156 41.988281 316.601562 41.632812 316.382812 41.171875 C 316.171875 40.71875 316.070312 40.191406 316.070312 39.589844 C 316.070312 39.003906 316.167969 38.476562 316.363281 38.007812 C 316.558594 37.53125 316.84375 37.164062 317.222656 36.914062 C 317.613281 36.671875 318.046875 36.542969 318.53125 36.542969 C 318.882812 36.542969 319.195312 36.617188 319.46875 36.757812 C 319.742188 36.90625 319.960938 37.101562 320.132812 37.34375 L 320.132812 34.453125 L 321.128906 34.453125 L 321.128906 42.5 Z M 317.085938 39.589844 C 317.085938 40.332031 317.242188 40.894531 317.554688 41.269531 C 317.867188 41.636719 318.238281 41.816406 318.667969 41.816406 C 319.097656 41.816406 319.460938 41.640625 319.761719 41.289062 C 320.074219 40.9375 320.230469 40.398438 320.230469 39.667969 C 320.230469 38.875 320.074219 38.289062 319.761719 37.910156 C 319.449219 37.535156 319.070312 37.34375 318.628906 37.34375 C 318.183594 37.34375 317.8125 37.53125 317.515625 37.890625 C 317.226562 38.257812 317.085938 38.824219 317.085938 39.589844 Z M 317.085938 39.589844 "/>
<path style=" stroke:none;fill-rule:nonzero;fill:rgb(0%,0%,0%);fill-opacity:1;" d="M 326.664062 40.625 L 327.699219 40.742188 C 327.527344 41.34375 327.21875 41.8125 326.78125 42.148438 C 326.351562 42.476562 325.792969 42.636719 325.121094 42.636719 C 324.269531 42.636719 323.597656 42.378906 323.089844 41.855469 C 322.589844 41.324219 322.347656 40.582031 322.347656 39.628906 C 322.347656 38.652344 322.601562 37.898438 323.109375 37.363281 C 323.617188 36.816406 324.269531 36.542969 325.082031 36.542969 C 325.863281 36.542969 326.492188 36.8125 326.976562 37.34375 C 327.46875 37.867188 327.71875 38.609375 327.71875 39.570312 C 327.71875 39.640625 327.71875 39.726562 327.71875 39.84375 L 323.363281 39.84375 C 323.402344 40.484375 323.582031 40.972656 323.910156 41.308594 C 324.230469 41.648438 324.640625 41.816406 325.140625 41.816406 C 325.5 41.816406 325.808594 41.726562 326.058594 41.542969 C 326.316406 41.347656 326.515625 41.046875 326.664062 40.625 Z M 323.421875 39.023438 L 326.683594 39.023438 C 326.644531 38.53125 326.515625 38.160156 326.3125 37.910156 C 326 37.535156 325.589844 37.34375 325.082031 37.34375 C 324.621094 37.34375 324.242188 37.5 323.929688 37.8125 C 323.625 38.117188 323.460938 38.515625 323.421875 39.023438 Z M 323.421875 39.023438 "/>
<path style=" stroke:none;fill-rule:nonzero;fill:rgb(0%,0%,0%);fill-opacity:1;" d="M 328.9375 42.5 L 328.9375 36.660156 L 329.835938 36.660156 L 329.835938 37.5 C 330.25 36.867188 330.871094 36.542969 331.691406 36.542969 C 332.042969 36.542969 332.359375 36.609375 332.648438 36.738281 C 332.945312 36.855469 333.164062 37.023438 333.3125 37.226562 C 333.453125 37.421875 333.554688 37.664062 333.625 37.949219 C 333.664062 38.132812 333.683594 38.453125 333.683594 38.90625 L 333.683594 42.5 L 332.6875 42.5 L 332.6875 38.945312 C 332.6875 38.546875 332.648438 38.242188 332.570312 38.046875 C 332.492188 37.851562 332.355469 37.695312 332.160156 37.578125 C 331.964844 37.453125 331.734375 37.382812 331.476562 37.382812 C 331.054688 37.382812 330.695312 37.519531 330.382812 37.792969 C 330.078125 38.054688 329.933594 38.5625 329.933594 39.316406 L 329.933594 42.5 Z M 328.9375 42.5 "/>
<path style=" stroke:none;fill-rule:nonzero;fill:rgb(0%,0%,0%);fill-opacity:1;" d="M 337.363281 41.621094 L 337.5 42.480469 C 337.210938 42.542969 336.960938 42.578125 336.757812 42.578125 C 336.390625 42.578125 336.113281 42.519531 335.917969 42.402344 C 335.722656 42.285156 335.574219 42.140625 335.488281 41.953125 C 335.410156 41.773438 335.371094 41.386719 335.371094 40.800781 L 335.371094 37.441406 L 334.648438 37.441406 L 334.648438 36.660156 L 335.371094 36.660156 L 335.371094 35.214844 L 336.367188 34.628906 L 336.367188 36.660156 L 337.363281 36.660156 L 337.363281 37.441406 L 336.367188 37.441406 L 336.367188 40.839844 C 336.367188 41.128906 336.375 41.308594 336.40625 41.386719 C 336.445312 41.464844 336.503906 41.53125 336.582031 41.582031 C 336.660156 41.636719 336.765625 41.660156 336.914062 41.660156 C 337.03125 41.660156 337.175781 41.648438 337.363281 41.621094 Z M 337.363281 41.621094 "/>
<path style=" stroke:none;fill-rule:nonzero;fill:rgb(0%,0%,0%);fill-opacity:1;" d="M 367.21875 42.5 L 367.21875 41.367188 L 368.351562 41.367188 L 368.351562 42.5 Z M 367.21875 42.5 "/>
<path style=" stroke:none;fill-rule:nonzero;fill:rgb(0%,0%,0%);fill-opacity:1;" d="M 406.621094 38.984375 L 406.621094 38.046875 L 411.953125 35.800781 L 411.953125 36.777344 L 407.714844 38.515625 L 411.953125 40.273438 L 411.953125 41.25 Z M 406.621094 38.984375 "/>
<path style=" stroke:none;fill-rule:nonzero;fill:rgb(0%,0%,0%);fill-opacity:1;" d="M 417.292969 40.625 L 418.328125 40.742188 C 418.15625 41.34375 417.847656 41.8125 417.410156 42.148438 C 416.980469 42.476562 416.421875 42.636719 415.75 42.636719 C 414.898438 42.636719 414.226562 42.378906 413.71875 41.855469 C 413.21875 41.324219 412.976562 40.582031 412.976562 39.628906 C 412.976562 38.652344 413.230469 37.898438 413.738281 37.363281 C 414.246094 36.816406 414.898438 36.542969 415.710938 36.542969 C 416.492188 36.542969 417.121094 36.8125 417.605469 37.34375 C 418.097656 37.867188 418.347656 38.609375 418.347656 39.570312 C 418.347656 39.640625 418.347656 39.726562 418.347656 39.84375 L 413.992188 39.84375 C 414.03125 40.484375 414.210938 40.972656 414.539062 41.308594 C 414.859375 41.648438 415.269531 41.816406 415.769531 41.816406 C 416.128906 41.816406 416.4375 41.726562 416.6875 41.542969 C 416.945312 41.347656 417.144531 41.046875 417.292969 40.625 Z M 414.050781 39.023438 L 417.3125 39.023438 C 417.273438 38.53125 417.144531 38.160156 416.941406 37.910156 C 416.628906 37.535156 416.21875 37.34375 415.710938 37.34375 C 415.25 37.34375 414.871094 37.5 414.558594 37.8125 C 414.253906 38.117188 414.089844 38.515625 414.050781 39.023438 Z M 414.050781 39.023438 "/>
<path style=" stroke:none;fill-rule:nonzero;fill:rgb(0%,0%,0%);fill-opacity:1;" d="M 419.191406 39.589844 C 419.191406 38.511719 419.492188 37.710938 420.089844 37.1875 C 420.597656 36.757812 421.210938 36.542969 421.925781 36.542969 C 422.734375 36.542969 423.390625 36.804688 423.898438 37.324219 C 424.40625 37.847656 424.660156 38.570312 424.660156 39.492188 C 424.660156 40.25 424.542969 40.839844 424.308594 41.269531 C 424.085938 41.699219 423.761719 42.039062 423.332031 42.285156 C 422.902344 42.519531 422.433594 42.636719 421.925781 42.636719 C 421.105469 42.636719 420.441406 42.378906 419.933594 41.855469 C 419.4375 41.324219 419.191406 40.566406 419.191406 39.589844 Z M 420.207031 39.589844 C 420.207031 40.332031 420.371094 40.894531 420.695312 41.269531 C 421.019531 41.636719 421.429688 41.816406 421.925781 41.816406 C 422.421875 41.816406 422.832031 41.636719 423.15625 41.269531 C 423.480469 40.894531 423.644531 40.320312 423.644531 39.550781 C 423.644531 38.835938 423.480469 38.289062 423.15625 37.910156 C 422.832031 37.535156 422.421875 37.34375 421.925781 37.34375 C 421.429688 37.34375 421.019531 37.535156 420.695312 37.910156 C 420.371094 38.277344 420.207031 38.835938 420.207031 39.589844 Z M 420.207031 39.589844 "/>
<path style=" stroke:none;fill-rule:nonzero;fill:rgb(0%,0%,0%);fill-opacity:1;" d="M 425.429688 40.761719 L 426.40625 40.605469 C 426.457031 40.996094 426.609375 41.296875 426.855469 41.503906 C 427.117188 41.714844 427.46875 41.816406 427.910156 41.816406 C 428.367188 41.816406 428.703125 41.726562 428.925781 41.542969 C 429.148438 41.363281 429.257812 41.148438 429.257812 40.898438 C 429.257812 40.664062 429.160156 40.488281 428.964844 40.371094 C 428.820312 40.28125 428.484375 40.164062 427.949219 40.019531 C 427.21875 39.839844 426.710938 39.683594 426.425781 39.550781 C 426.152344 39.421875 425.945312 39.238281 425.800781 39.003906 C 425.65625 38.769531 425.585938 38.511719 425.585938 38.222656 C 425.585938 37.964844 425.644531 37.726562 425.761719 37.5 C 425.878906 37.28125 426.042969 37.089844 426.25 36.933594 C 426.40625 36.832031 426.613281 36.738281 426.875 36.660156 C 427.148438 36.582031 427.433594 36.542969 427.734375 36.542969 C 428.191406 36.542969 428.585938 36.609375 428.925781 36.738281 C 429.277344 36.871094 429.539062 37.046875 429.707031 37.265625 C 429.875 37.492188 429.992188 37.789062 430.058594 38.164062 L 429.082031 38.300781 C 429.042969 38.003906 428.914062 37.769531 428.691406 37.597656 C 428.484375 37.429688 428.191406 37.34375 427.8125 37.34375 C 427.355469 37.34375 427.03125 37.421875 426.835938 37.578125 C 426.640625 37.726562 426.542969 37.898438 426.542969 38.105469 C 426.542969 38.238281 426.582031 38.351562 426.660156 38.4375 C 426.738281 38.554688 426.867188 38.648438 427.050781 38.710938 C 427.140625 38.75 427.429688 38.835938 427.910156 38.964844 C 428.613281 39.148438 429.101562 39.296875 429.375 39.414062 C 429.660156 39.53125 429.882812 39.707031 430.039062 39.941406 C 430.195312 40.164062 430.273438 40.445312 430.273438 40.78125 C 430.273438 41.125 430.175781 41.4375 429.980469 41.71875 C 429.785156 42.007812 429.503906 42.234375 429.140625 42.402344 C 428.789062 42.558594 428.378906 42.636719 427.910156 42.636719 C 427.15625 42.636719 426.574219 42.480469 426.171875 42.167969 C 425.78125 41.84375 425.535156 41.375 425.429688 40.761719 Z M 425.429688 40.761719 "/>
<path style=" stroke:none;fill-rule:nonzero;fill:rgb(0%,0%,0%);fill-opacity:1;" d="M 436.660156 38.984375 L 431.328125 41.25 L 431.328125 40.273438 L 435.546875 38.515625 L 431.328125 36.777344 L 431.328125 35.800781 L 436.660156 38.046875 Z M 436.660156 38.984375 "/>
<path style="fill:none;stroke-width:1;stroke-linecap:round;stroke-linejoin:round;stroke:rgb(0%,0%,0%);stroke-opacity:1;stroke-miterlimit:10;" d="M 765.89375 148 L 765.921875 136.19375 " transform="matrix(1.25,0,0,1.25,-697.5,-115)"/>
<path style="fill:none;stroke-width:1;stroke-linecap:butt;stroke-linejoin:miter;stroke:rgb(0%,0%,0%);stroke-opacity:1;stroke-miterlimit:10;" d="M 765.934375 132.19375 L 765.921875 136.19375 M 764.421875 136.190625 L 765.934375 132.19375 L 767.421875 136.2 " transform="matrix(1.25,0,0,1.25,-697.5,-115)"/>
<path style="fill:none;stroke-width:1;stroke-linecap:round;stroke-linejoin:round;stroke:rgb(0%,0%,0%);stroke-opacity:1;stroke-miterlimit:10;" d="M 808.85625 148 L 808.828125 136.19375 " transform="matrix(1.25,0,0,1.25,-697.5,-115)"/>
<path style="fill:none;stroke-width:1;stroke-linecap:butt;stroke-linejoin:miter;stroke:rgb(0%,0%,0%);stroke-opacity:1;stroke-miterlimit:10;" d="M 808.815625 132.19375 L 808.828125 136.19375 M 807.328125 136.2 L 808.815625 132.19375 L 810.328125 136.190625 " transform="matrix(1.25,0,0,1.25,-697.5,-115)"/>
<path style="fill:none;stroke-width:1;stroke-linecap:round;stroke-linejoin:round;stroke:rgb(0%,0%,0%);stroke-opacity:1;stroke-miterlimit:10;" d="M 852.278125 148 L 852.246875 136.19375 " transform="matrix(1.25,0,0,1.25,-697.5,-115)"/>
<path style="fill:none;stroke-width:1;stroke-linecap:butt;stroke-linejoin:miter;stroke:rgb(0%,0%,0%);stroke-opacity:1;stroke-miterlimit:10;" d="M 852.234375 132.19375 L 852.246875 136.19375 M 850.746875 136.2 L 852.234375 132.19375 L 853.746875 136.190625 " transform="matrix(1.25,0,0,1.25,-697.5,-115)"/>
<path style="fill:none;stroke-width:1;stroke-linecap:round;stroke-linejoin:round;stroke:rgb(0%,0%,0%);stroke-opacity:1;stroke-miterlimit:10;" d="M 895.190625 148 L 895.246875 136.19375 " transform="matrix(1.25,0,0,1.25,-697.5,-115)"/>
<path style="fill:none;stroke-width:1;stroke-linecap:butt;stroke-linejoin:miter;stroke:rgb(0%,0%,0%);stroke-opacity:1;stroke-miterlimit:10;" d="M 895.265625 132.19375 L 895.246875 136.19375 M 893.746875 136.1875 L 895.265625 132.19375 L 896.746875 136.203125 " transform="matrix(1.25,0,0,1.25,-697.5,-115)"/>
<path style="fill:none;stroke-width:1;stroke-linecap:round;stroke-linejoin:round;stroke:rgb(0%,0%,0%);stroke-opacity:1;stroke-miterlimit:10;" d="M 765.9 147.246875 C 765.8875 144.50625 768.09375 142.278125 770.83125 142.265625 C 770.846875 142.265625 770.859375 142.265625 770.875 142.265625 L 779.9875 142.296875 C 783.3 142.309375 785.975 145.00625 785.965625 148.31875 C 785.965625 148.325 785.965625 148.328125 785.965625 148.33125 L 785.94375 151.5 M 785.88125 162.5 L 785.840625 169.965625 C 785.81875 173.278125 788.4875 175.98125 791.80625 176 C 791.815625 176 791.828125 176 791.840625 176 L 798.48125 176 C 801 176 803.153125 174.45 804.04375 172.253125 " transform="matrix(1.25,0,0,1.25,-697.5,-115)"/>
<path style="fill:none;stroke-width:1;stroke-linecap:butt;stroke-linejoin:miter;stroke:rgb(0%,0%,0%);stroke-opacity:1;stroke-miterlimit:10;" d="M 804.340625 168.2625 L 804.04375 172.253125 M 802.546875 172.140625 L 804.340625 168.2625 L 805.5375 172.3625 " transform="matrix(1.25,0,0,1.25,-697.5,-115)"/>
<path style="fill:none;stroke-width:1;stroke-linecap:round;stroke-linejoin:round;stroke:rgb(0%,0%,0%);stroke-opacity:1;stroke-miterlimit:10;" d="M 777.875 157 L 790.975 157 " transform="matrix(1.25,0,0,1.25,-697.5,-115)"/>
<path style="fill:none;stroke-width:1;stroke-linecap:butt;stroke-linejoin:miter;stroke:rgb(0%,0%,0%);stroke-opacity:1;stroke-miterlimit:10;" d="M 794.975 157 L 790.975 157 M 790.975 155.5 L 794.975 157 L 790.975 158.5 " transform="matrix(1.25,0,0,1.25,-697.5,-115)"/>
<path style="fill:none;stroke-width:1;stroke-linecap:round;stroke-linejoin:round;stroke:rgb(0%,0%,0%);stroke-opacity:1;stroke-miterlimit:10;" d="M 820.875 157 L 834.403125 157 " transform="matrix(1.25,0,0,1.25,-697.5,-115)"/>
<path style="fill:none;stroke-width:1;stroke-linecap:butt;stroke-linejoin:miter;stroke:rgb(0%,0%,0%);stroke-opacity:1;stroke-miterlimit:10;" d="M 838.403125 157 L 834.403125 157 M 834.403125 155.5 L 838.403125 157 L 834.403125 158.5 " transform="matrix(1.25,0,0,1.25,-697.5,-115)"/>
<path style="fill:none;stroke-width:1;stroke-linecap:round;stroke-linejoin:round;stroke:rgb(0%,0%,0%);stroke-opacity:1;stroke-miterlimit:10;" d="M 864.3 157 L 877.246875 157 " transform="matrix(1.25,0,0,1.25,-697.5,-115)"/>
<path style="fill:none;stroke-width:1;stroke-linecap:butt;stroke-linejoin:miter;stroke:rgb(0%,0%,0%);stroke-opacity:1;stroke-miterlimit:10;" d="M 881.246875 157 L 877.246875 157 M 877.246875 155.5 L 881.246875 157 L 877.246875 158.5 " transform="matrix(1.25,0,0,1.25,-697.5,-115)"/>
<path style=" stroke:none;fill-rule:nonzero;fill:rgb(0%,0%,0%);fill-opacity:1;" d="M 92.917969 16.25 L 92.917969 8.203125 L 98.738281 8.203125 L 98.738281 9.140625 L 93.972656 9.140625 L 93.972656 11.621094 L 98.425781 11.621094 L 98.425781 12.558594 L 93.972656 12.558594 L 93.972656 15.292969 L 98.914062 15.292969 L 98.914062 16.25 Z M 92.917969 16.25 "/>
<path style=" stroke:none;fill-rule:nonzero;fill:rgb(0%,0%,0%);fill-opacity:1;" d="M 100.265625 16.25 L 100.265625 10.410156 L 101.164062 10.410156 L 101.164062 11.25 C 101.578125 10.617188 102.199219 10.292969 103.019531 10.292969 C 103.371094 10.292969 103.6875 10.359375 103.976562 10.488281 C 104.273438 10.605469 104.492188 10.773438 104.640625 10.976562 C 104.78125 11.171875 104.882812 11.414062 104.953125 11.699219 C 104.992188 11.882812 105.011719 12.203125 105.011719 12.65625 L 105.011719 16.25 L 104.015625 16.25 L 104.015625 12.695312 C 104.015625 12.296875 103.976562 11.992188 103.898438 11.796875 C 103.820312 11.601562 103.683594 11.445312 103.488281 11.328125 C 103.292969 11.203125 103.0625 11.132812 102.804688 11.132812 C 102.382812 11.132812 102.023438 11.269531 101.710938 11.542969 C 101.40625 11.804688 101.261719 12.3125 101.261719 13.066406 L 101.261719 16.25 Z M 100.265625 16.25 "/>
<path style=" stroke:none;fill-rule:nonzero;fill:rgb(0%,0%,0%);fill-opacity:1;" d="M 110.328125 14.121094 L 111.304688 14.238281 C 111.199219 14.917969 110.925781 15.445312 110.484375 15.820312 C 110.042969 16.203125 109.5 16.386719 108.863281 16.386719 C 108.070312 16.386719 107.429688 16.128906 106.949219 15.605469 C 106.46875 15.085938 106.226562 14.335938 106.226562 13.359375 C 106.226562 12.726562 106.332031 12.167969 106.539062 11.699219 C 106.746094 11.230469 107.058594 10.878906 107.476562 10.644531 C 107.90625 10.410156 108.375 10.292969 108.882812 10.292969 C 109.507812 10.292969 110.023438 10.460938 110.425781 10.78125 C 110.828125 11.09375 111.089844 11.542969 111.207031 12.128906 L 110.25 12.285156 C 110.160156 11.894531 109.996094 11.601562 109.761719 11.40625 C 109.527344 11.203125 109.246094 11.09375 108.921875 11.09375 C 108.414062 11.09375 108.003906 11.28125 107.691406 11.640625 C 107.390625 11.992188 107.242188 12.554688 107.242188 13.320312 C 107.242188 14.117188 107.390625 14.6875 107.691406 15.039062 C 107.992188 15.390625 108.382812 15.566406 108.863281 15.566406 C 109.253906 15.566406 109.578125 15.449219 109.839844 15.214844 C 110.101562 14.980469 110.261719 14.617188 110.328125 14.121094 Z M 110.328125 14.121094 "/>
<path style=" stroke:none;fill-rule:nonzero;fill:rgb(0%,0%,0%);fill-opacity:1;" d="M 111.773438 13.339844 C 111.773438 12.261719 112.074219 11.460938 112.671875 10.9375 C 113.179688 10.507812 113.792969 10.292969 114.507812 10.292969 C 115.316406 10.292969 115.972656 10.554688 116.480469 11.074219 C 116.988281 11.597656 117.242188 12.320312 117.242188 13.242188 C 117.242188 14 117.125 14.589844 116.890625 15.019531 C 116.667969 15.449219 116.34375 15.789062 115.914062 16.035156 C 115.484375 16.269531 115.015625 16.386719 114.507812 16.386719 C 113.6875 16.386719 113.023438 16.128906 112.515625 15.605469 C 112.019531 15.074219 111.773438 14.316406 111.773438 13.339844 Z M 112.789062 13.339844 C 112.789062 14.082031 112.953125 14.644531 113.277344 15.019531 C 113.601562 15.386719 114.011719 15.566406 114.507812 15.566406 C 115.003906 15.566406 115.414062 15.386719 115.738281 15.019531 C 116.0625 14.644531 116.226562 14.070312 116.226562 13.300781 C 116.226562 12.585938 116.0625 12.039062 115.738281 11.660156 C 115.414062 11.285156 115.003906 11.09375 114.507812 11.09375 C 114.011719 11.09375 113.601562 11.285156 113.277344 11.660156 C 112.953125 12.027344 112.789062 12.585938 112.789062 13.339844 Z M 112.789062 13.339844 "/>
<path style=" stroke:none;fill-rule:nonzero;fill:rgb(0%,0%,0%);fill-opacity:1;" d="M 122.191406 16.25 L 122.191406 15.507812 C 121.8125 16.09375 121.265625 16.386719 120.550781 16.386719 C 120.09375 16.386719 119.671875 16.253906 119.28125 15.996094 C 118.890625 15.738281 118.582031 15.382812 118.363281 14.921875 C 118.152344 14.46875 118.050781 13.941406 118.050781 13.339844 C 118.050781 12.753906 118.148438 12.226562 118.34375 11.757812 C 118.539062 11.28125 118.824219 10.914062 119.203125 10.664062 C 119.59375 10.421875 120.027344 10.292969 120.511719 10.292969 C 120.863281 10.292969 121.175781 10.367188 121.449219 10.507812 C 121.722656 10.65625 121.941406 10.851562 122.113281 11.09375 L 122.113281 8.203125 L 123.109375 8.203125 L 123.109375 16.25 Z M 119.066406 13.339844 C 119.066406 14.082031 119.222656 14.644531 119.535156 15.019531 C 119.847656 15.386719 120.21875 15.566406 120.648438 15.566406 C 121.078125 15.566406 121.441406 15.390625 121.742188 15.039062 C 122.054688 14.6875 122.210938 14.148438 122.210938 13.417969 C 122.210938 12.625 122.054688 12.039062 121.742188 11.660156 C 121.429688 11.285156 121.050781 11.09375 120.609375 11.09375 C 120.164062 11.09375 119.792969 11.28125 119.496094 11.640625 C 119.207031 12.007812 119.066406 12.574219 119.066406 13.339844 Z M 119.066406 13.339844 "/>
<path style=" stroke:none;fill-rule:nonzero;fill:rgb(0%,0%,0%);fill-opacity:1;" d="M 128.644531 14.375 L 129.679688 14.492188 C 129.507812 15.09375 129.203125 15.5625 128.761719 15.898438 C 128.332031 16.226562 127.777344 16.386719 127.101562 16.386719 C 126.253906 16.386719 125.578125 16.128906 125.070312 15.605469 C 124.574219 15.074219 124.328125 14.332031 124.328125 13.378906 C 124.328125 12.402344 124.582031 11.648438 125.089844 11.113281 C 125.597656 10.566406 126.253906 10.292969 127.0625 10.292969 C 127.84375 10.292969 128.472656 10.5625 128.957031 11.09375 C 129.449219 11.617188 129.699219 12.359375 129.699219 13.320312 C 129.699219 13.390625 129.699219 13.476562 129.699219 13.59375 L 125.34375 13.59375 C 125.382812 14.234375 125.5625 14.722656 125.890625 15.058594 C 126.214844 15.398438 126.625 15.566406 127.121094 15.566406 C 127.484375 15.566406 127.789062 15.476562 128.039062 15.292969 C 128.296875 15.097656 128.5 14.796875 128.644531 14.375 Z M 125.402344 12.773438 L 128.664062 12.773438 C 128.625 12.28125 128.5 11.910156 128.292969 11.660156 C 127.980469 11.285156 127.570312 11.09375 127.0625 11.09375 C 126.605469 11.09375 126.222656 11.25 125.910156 11.5625 C 125.609375 11.867188 125.441406 12.265625 125.402344 12.773438 Z M 125.402344 12.773438 "/>
<path style=" stroke:none;fill-rule:nonzero;fill:rgb(0%,0%,0%);fill-opacity:1;" d="M 130.898438 16.25 L 130.898438 10.410156 L 131.796875 10.410156 L 131.796875 11.308594 C 132.015625 10.894531 132.226562 10.621094 132.421875 10.488281 C 132.617188 10.359375 132.832031 10.292969 133.066406 10.292969 C 133.386719 10.292969 133.730469 10.398438 134.082031 10.605469 L 133.730469 11.523438 C 133.496094 11.382812 133.25 11.308594 133.007812 11.308594 C 132.796875 11.308594 132.601562 11.375 132.421875 11.503906 C 132.25 11.636719 132.128906 11.816406 132.050781 12.050781 C 131.941406 12.402344 131.894531 12.789062 131.894531 13.203125 L 131.894531 16.25 Z M 130.898438 16.25 "/>
<path style=" stroke:none;fill-rule:nonzero;fill:rgb(0%,0%,0%);fill-opacity:1;" d="M 317.566406 16.25 L 317.566406 8.203125 L 320.339844 8.203125 C 320.976562 8.203125 321.457031 8.242188 321.785156 8.320312 C 322.238281 8.429688 322.628906 8.613281 322.957031 8.886719 C 323.386719 9.253906 323.703125 9.71875 323.914062 10.273438 C 324.121094 10.820312 324.226562 11.460938 324.226562 12.1875 C 324.226562 12.804688 324.152344 13.339844 324.011719 13.808594 C 323.867188 14.277344 323.683594 14.667969 323.464844 14.980469 C 323.242188 15.292969 322.996094 15.542969 322.722656 15.722656 C 322.460938 15.894531 322.140625 16.023438 321.765625 16.113281 C 321.398438 16.207031 320.96875 16.25 320.476562 16.25 Z M 318.640625 15.292969 L 320.359375 15.292969 C 320.890625 15.292969 321.308594 15.25 321.609375 15.15625 C 321.90625 15.054688 322.148438 14.914062 322.332031 14.726562 C 322.578125 14.484375 322.773438 14.140625 322.917969 13.710938 C 323.058594 13.28125 323.132812 12.769531 323.132812 12.167969 C 323.132812 11.324219 322.996094 10.679688 322.722656 10.234375 C 322.449219 9.78125 322.109375 9.472656 321.707031 9.316406 C 321.417969 9.199219 320.964844 9.140625 320.339844 9.140625 L 318.640625 9.140625 Z M 318.640625 15.292969 "/>
<path style=" stroke:none;fill-rule:nonzero;fill:rgb(0%,0%,0%);fill-opacity:1;" d="M 329.558594 14.375 L 330.59375 14.492188 C 330.421875 15.09375 330.117188 15.5625 329.675781 15.898438 C 329.246094 16.226562 328.691406 16.386719 328.015625 16.386719 C 327.167969 16.386719 326.492188 16.128906 325.984375 15.605469 C 325.488281 15.074219 325.242188 14.332031 325.242188 13.378906 C 325.242188 12.402344 325.496094 11.648438 326.003906 11.113281 C 326.511719 10.566406 327.167969 10.292969 327.976562 10.292969 C 328.757812 10.292969 329.386719 10.5625 329.871094 11.09375 C 330.363281 11.617188 330.613281 12.359375 330.613281 13.320312 C 330.613281 13.390625 330.613281 13.476562 330.613281 13.59375 L 326.257812 13.59375 C 326.296875 14.234375 326.476562 14.722656 326.804688 15.058594 C 327.128906 15.398438 327.539062 15.566406 328.035156 15.566406 C 328.398438 15.566406 328.703125 15.476562 328.953125 15.292969 C 329.210938 15.097656 329.414062 14.796875 329.558594 14.375 Z M 326.316406 12.773438 L 329.578125 12.773438 C 329.539062 12.28125 329.414062 11.910156 329.207031 11.660156 C 328.894531 11.285156 328.484375 11.09375 327.976562 11.09375 C 327.519531 11.09375 327.136719 11.25 326.824219 11.5625 C 326.523438 11.867188 326.355469 12.265625 326.316406 12.773438 Z M 326.316406 12.773438 "/>
<path style=" stroke:none;fill-rule:nonzero;fill:rgb(0%,0%,0%);fill-opacity:1;" d="M 335.640625 14.121094 L 336.617188 14.238281 C 336.507812 14.917969 336.234375 15.445312 335.796875 15.820312 C 335.351562 16.203125 334.808594 16.386719 334.175781 16.386719 C 333.378906 16.386719 332.738281 16.128906 332.261719 15.605469 C 331.777344 15.085938 331.539062 14.335938 331.539062 13.359375 C 331.539062 12.726562 331.640625 12.167969 331.851562 11.699219 C 332.054688 11.230469 332.367188 10.878906 332.789062 10.644531 C 333.21875 10.410156 333.6875 10.292969 334.195312 10.292969 C 334.820312 10.292969 335.332031 10.460938 335.738281 10.78125 C 336.136719 11.09375 336.402344 11.542969 336.519531 12.128906 L 335.5625 12.285156 C 335.46875 11.894531 335.308594 11.601562 335.074219 11.40625 C 334.839844 11.203125 334.554688 11.09375 334.234375 11.09375 C 333.726562 11.09375 333.316406 11.28125 333.003906 11.640625 C 332.699219 11.992188 332.554688 12.554688 332.554688 13.320312 C 332.554688 14.117188 332.699219 14.6875 333.003906 15.039062 C 333.300781 15.390625 333.691406 15.566406 334.175781 15.566406 C 334.566406 15.566406 334.886719 15.449219 335.152344 15.214844 C 335.410156 14.980469 335.570312 14.617188 335.640625 14.121094 Z M 335.640625 14.121094 "/>
<path style=" stroke:none;fill-rule:nonzero;fill:rgb(0%,0%,0%);fill-opacity:1;" d="M 337.085938 13.339844 C 337.085938 12.261719 337.382812 11.460938 337.984375 10.9375 C 338.492188 10.507812 339.101562 10.292969 339.820312 10.292969 C 340.625 10.292969 341.285156 10.554688 341.792969 11.074219 C 342.300781 11.597656 342.554688 12.320312 342.554688 13.242188 C 342.554688 14 342.4375 14.589844 342.203125 15.019531 C 341.976562 15.449219 341.65625 15.789062 341.226562 16.035156 C 340.796875 16.269531 340.328125 16.386719 339.820312 16.386719 C 339 16.386719 338.335938 16.128906 337.828125 15.605469 C 337.328125 15.074219 337.085938 14.316406 337.085938 13.339844 Z M 338.101562 13.339844 C 338.101562 14.082031 338.261719 14.644531 338.589844 15.019531 C 338.910156 15.386719 339.320312 15.566406 339.820312 15.566406 C 340.3125 15.566406 340.722656 15.386719 341.050781 15.019531 C 341.371094 14.644531 341.539062 14.070312 341.539062 13.300781 C 341.539062 12.585938 341.371094 12.039062 341.050781 11.660156 C 340.722656 11.285156 340.3125 11.09375 339.820312 11.09375 C 339.320312 11.09375 338.910156 11.285156 338.589844 11.660156 C 338.261719 12.027344 338.101562 12.585938 338.101562 13.339844 Z M 338.101562 13.339844 "/>
<path style=" stroke:none;fill-rule:nonzero;fill:rgb(0%,0%,0%);fill-opacity:1;" d="M 347.503906 16.25 L 347.503906 15.507812 C 347.121094 16.09375 346.574219 16.386719 345.863281 16.386719 C 345.402344 16.386719 344.984375 16.253906 344.59375 15.996094 C 344.203125 15.738281 343.894531 15.382812 343.675781 14.921875 C 343.464844 14.46875 343.363281 13.941406 343.363281 13.339844 C 343.363281 12.753906 343.460938 12.226562 343.65625 11.757812 C 343.851562 11.28125 344.132812 10.914062 344.515625 10.664062 C 344.90625 10.421875 345.339844 10.292969 345.824219 10.292969 C 346.175781 10.292969 346.488281 10.367188 346.761719 10.507812 C 347.035156 10.65625 347.253906 10.851562 347.425781 11.09375 L 347.425781 8.203125 L 348.421875 8.203125 L 348.421875 16.25 Z M 344.378906 13.339844 C 344.378906 14.082031 344.535156 14.644531 344.847656 15.019531 C 345.160156 15.386719 345.53125 15.566406 345.960938 15.566406 C 346.390625 15.566406 346.75 15.390625 347.054688 15.039062 C 347.367188 14.6875 347.523438 14.148438 347.523438 13.417969 C 347.523438 12.625 347.367188 12.039062 347.054688 11.660156 C 346.742188 11.285156 346.359375 11.09375 345.921875 11.09375 C 345.476562 11.09375 345.105469 11.28125 344.808594 11.640625 C 344.519531 12.007812 344.378906 12.574219 344.378906 13.339844 Z M 344.378906 13.339844 "/>
<path style=" stroke:none;fill-rule:nonzero;fill:rgb(0%,0%,0%);fill-opacity:1;" d="M 353.957031 14.375 L 354.992188 14.492188 C 354.820312 15.09375 354.511719 15.5625 354.074219 15.898438 C 353.644531 16.226562 353.085938 16.386719 352.414062 16.386719 C 351.5625 16.386719 350.890625 16.128906 350.382812 15.605469 C 349.882812 15.074219 349.640625 14.332031 349.640625 13.378906 C 349.640625 12.402344 349.894531 11.648438 350.402344 11.113281 C 350.910156 10.566406 351.5625 10.292969 352.375 10.292969 C 353.15625 10.292969 353.785156 10.5625 354.269531 11.09375 C 354.761719 11.617188 355.011719 12.359375 355.011719 13.320312 C 355.011719 13.390625 355.011719 13.476562 355.011719 13.59375 L 350.65625 13.59375 C 350.695312 14.234375 350.875 14.722656 351.203125 15.058594 C 351.523438 15.398438 351.933594 15.566406 352.433594 15.566406 C 352.792969 15.566406 353.101562 15.476562 353.351562 15.292969 C 353.609375 15.097656 353.808594 14.796875 353.957031 14.375 Z M 350.714844 12.773438 L 353.976562 12.773438 C 353.9375 12.28125 353.808594 11.910156 353.605469 11.660156 C 353.292969 11.285156 352.882812 11.09375 352.375 11.09375 C 351.914062 11.09375 351.535156 11.25 351.222656 11.5625 C 350.917969 11.867188 350.753906 12.265625 350.714844 12.773438 Z M 350.714844 12.773438 "/>
<path style=" stroke:none;fill-rule:nonzero;fill:rgb(0%,0%,0%);fill-opacity:1;" d="M 356.207031 16.25 L 356.207031 10.410156 L 357.105469 10.410156 L 357.105469 11.308594 C 357.328125 10.894531 357.535156 10.621094 357.730469 10.488281 C 357.925781 10.359375 358.140625 10.292969 358.375 10.292969 C 358.699219 10.292969 359.039062 10.398438 359.390625 10.605469 L 359.039062 11.523438 C 358.804688 11.382812 358.5625 11.308594 358.316406 11.308594 C 358.109375 11.308594 357.914062 11.375 357.730469 11.503906 C 357.5625 11.636719 357.4375 11.816406 357.359375 12.050781 C 357.253906 12.402344 357.203125 12.789062 357.203125 13.203125 L 357.203125 16.25 Z M 356.207031 16.25 "/>
<path style=" stroke:none;fill-rule:nonzero;fill:rgb(0%,0%,0%);fill-opacity:1;" d="M 240.132812 130.019531 L 240.132812 129.082031 L 245.464844 126.835938 L 245.464844 127.8125 L 241.226562 129.550781 L 245.464844 131.308594 L 245.464844 132.285156 Z M 240.132812 130.019531 "/>
<path style=" stroke:none;fill-rule:nonzero;fill:rgb(0%,0%,0%);fill-opacity:1;" d="M 247.734375 133.535156 L 246.816406 133.535156 L 246.816406 125.488281 L 247.792969 125.488281 L 247.792969 128.359375 C 248.210938 127.84375 248.742188 127.578125 249.394531 127.578125 C 249.757812 127.578125 250.097656 127.652344 250.410156 127.792969 C 250.734375 127.941406 251.003906 128.140625 251.210938 128.398438 C 251.417969 128.664062 251.582031 128.980469 251.699219 129.355469 C 251.816406 129.722656 251.875 130.113281 251.875 130.527344 C 251.875 131.535156 251.628906 132.304688 251.132812 132.851562 C 250.636719 133.398438 250.046875 133.671875 249.355469 133.671875 C 248.664062 133.671875 248.125 133.390625 247.734375 132.8125 Z M 247.714844 130.566406 C 247.714844 131.269531 247.8125 131.777344 248.007812 132.089844 C 248.320312 132.597656 248.738281 132.851562 249.257812 132.851562 C 249.699219 132.851562 250.078125 132.667969 250.390625 132.285156 C 250.703125 131.910156 250.859375 131.347656 250.859375 130.605469 C 250.859375 129.855469 250.710938 129.292969 250.410156 128.925781 C 250.109375 128.566406 249.746094 128.378906 249.316406 128.378906 C 248.875 128.378906 248.496094 128.570312 248.183594 128.945312 C 247.871094 129.328125 247.714844 129.863281 247.714844 130.566406 Z M 247.714844 130.566406 "/>
<path style=" stroke:none;fill-rule:nonzero;fill:rgb(0%,0%,0%);fill-opacity:1;" d="M 252.703125 130.625 C 252.703125 129.546875 253.003906 128.746094 253.601562 128.222656 C 254.109375 127.792969 254.722656 127.578125 255.4375 127.578125 C 256.246094 127.578125 256.902344 127.84375 257.410156 128.359375 C 257.917969 128.882812 258.171875 129.605469 258.171875 130.527344 C 258.171875 131.285156 258.054688 131.875 257.820312 132.304688 C 257.597656 132.734375 257.273438 133.078125 256.84375 133.320312 C 256.414062 133.554688 255.945312 133.671875 255.4375 133.671875 C 254.617188 133.671875 253.953125 133.414062 253.445312 132.890625 C 252.949219 132.359375 252.703125 131.601562 252.703125 130.625 Z M 253.71875 130.625 C 253.71875 131.367188 253.882812 131.929688 254.207031 132.304688 C 254.53125 132.671875 254.941406 132.851562 255.4375 132.851562 C 255.933594 132.851562 256.34375 132.671875 256.667969 132.304688 C 256.992188 131.929688 257.15625 131.359375 257.15625 130.585938 C 257.15625 129.875 256.992188 129.328125 256.667969 128.945312 C 256.34375 128.570312 255.933594 128.378906 255.4375 128.378906 C 254.941406 128.378906 254.53125 128.570312 254.207031 128.945312 C 253.882812 129.3125 253.71875 129.875 253.71875 130.625 Z M 253.71875 130.625 "/>
<path style=" stroke:none;fill-rule:nonzero;fill:rgb(0%,0%,0%);fill-opacity:1;" d="M 258.941406 131.796875 L 259.917969 131.640625 C 259.96875 132.03125 260.117188 132.335938 260.367188 132.539062 C 260.625 132.75 260.976562 132.851562 261.421875 132.851562 C 261.875 132.851562 262.214844 132.765625 262.4375 132.578125 C 262.65625 132.398438 262.769531 132.183594 262.769531 131.933594 C 262.769531 131.699219 262.671875 131.523438 262.476562 131.40625 C 262.332031 131.320312 261.992188 131.203125 261.460938 131.054688 C 260.730469 130.875 260.222656 130.71875 259.9375 130.585938 C 259.664062 130.460938 259.453125 130.273438 259.3125 130.039062 C 259.167969 129.804688 259.097656 129.546875 259.097656 129.257812 C 259.097656 129 259.15625 128.761719 259.273438 128.535156 C 259.390625 128.316406 259.550781 128.125 259.761719 127.96875 C 259.917969 127.867188 260.125 127.773438 260.386719 127.695312 C 260.660156 127.617188 260.945312 127.578125 261.246094 127.578125 C 261.699219 127.578125 262.097656 127.648438 262.4375 127.773438 C 262.789062 127.90625 263.046875 128.082031 263.21875 128.300781 C 263.386719 128.527344 263.503906 128.824219 263.570312 129.199219 L 262.59375 129.335938 C 262.554688 129.039062 262.421875 128.804688 262.203125 128.632812 C 261.992188 128.46875 261.699219 128.378906 261.324219 128.378906 C 260.867188 128.378906 260.542969 128.457031 260.347656 128.613281 C 260.152344 128.761719 260.054688 128.9375 260.054688 129.140625 C 260.054688 129.273438 260.09375 129.386719 260.171875 129.472656 C 260.25 129.589844 260.378906 129.683594 260.5625 129.746094 C 260.652344 129.785156 260.9375 129.875 261.421875 130 C 262.125 130.1875 262.613281 130.332031 262.886719 130.449219 C 263.171875 130.566406 263.394531 130.742188 263.550781 130.976562 C 263.707031 131.203125 263.785156 131.480469 263.785156 131.816406 C 263.785156 132.160156 263.6875 132.472656 263.492188 132.753906 C 263.296875 133.042969 263.015625 133.273438 262.652344 133.4375 C 262.300781 133.59375 261.890625 133.671875 261.421875 133.671875 C 260.664062 133.671875 260.085938 133.515625 259.683594 133.203125 C 259.292969 132.882812 259.042969 132.414062 258.941406 131.796875 Z M 258.941406 131.796875 "/>
<path style=" stroke:none;fill-rule:nonzero;fill:rgb(0%,0%,0%);fill-opacity:1;" d="M 270.171875 130.019531 L 264.839844 132.285156 L 264.839844 131.308594 L 269.058594 129.550781 L 264.839844 127.8125 L 264.839844 126.835938 L 270.171875 129.082031 Z M 270.171875 130.019531 "/>
<path style="fill:none;stroke-width:1;stroke-linecap:round;stroke-linejoin:round;stroke:rgb(0%,0%,0%);stroke-opacity:1;stroke-miterlimit:10;" d="M 761.421875 180.340625 L 807.86875 180.08125 C 811.16875 180.065625 813.8375 177.38125 813.8375 174.08125 L 813.8375 171.95 " transform="matrix(1.25,0,0,1.25,-697.5,-115)"/>
<path style="fill:none;stroke-width:1;stroke-linecap:butt;stroke-linejoin:miter;stroke:rgb(0%,0%,0%);stroke-opacity:1;stroke-miterlimit:10;" d="M 813.8375 167.95 L 813.8375 171.95 M 812.3375 171.95 L 813.8375 167.95 L 815.3375 171.95 " transform="matrix(1.25,0,0,1.25,-697.5,-115)"/>
<path style="fill:none;stroke-width:1;stroke-linecap:round;stroke-linejoin:round;stroke:rgb(0%,0%,0%);stroke-opacity:1;stroke-miterlimit:10;" d="M 795.1875 180.140625 L 851.203125 179.909375 C 854.50625 179.9 857.18125 177.215625 857.18125 173.909375 L 857.18125 171.784375 " transform="matrix(1.25,0,0,1.25,-697.5,-115)"/>
<path style="fill:none;stroke-width:1;stroke-linecap:butt;stroke-linejoin:miter;stroke:rgb(0%,0%,0%);stroke-opacity:1;stroke-miterlimit:10;" d="M 857.18125 167.784375 L 857.18125 171.784375 M 855.68125 171.784375 L 857.18125 167.784375 L 858.68125 171.784375 " transform="matrix(1.25,0,0,1.25,-697.5,-115)"/>
<path style="fill:none;stroke-width:1;stroke-linecap:round;stroke-linejoin:round;stroke:rgb(0%,0%,0%);stroke-opacity:1;stroke-miterlimit:10;" d="M 837.66875 179.93125 L 893.684375 179.7 C 896.9875 179.6875 899.659375 177.003125 899.659375 173.7 L 899.659375 171.575 " transform="matrix(1.25,0,0,1.25,-697.5,-115)"/>
<path style="fill:none;stroke-width:1;stroke-linecap:butt;stroke-linejoin:miter;stroke:rgb(0%,0%,0%);stroke-opacity:1;stroke-miterlimit:10;" d="M 899.659375 167.575 L 899.659375 171.575 M 898.159375 171.575 L 899.659375 167.575 L 901.159375 171.575 " transform="matrix(1.25,0,0,1.25,-697.5,-115)"/>
</g>
</svg>
