<?xml version="1.0" encoding="UTF-8"?>
<svg xmlns="http://www.w3.org/2000/svg" xmlns:xlink="http://www.w3.org/1999/xlink" width="261pt" height="104pt" viewBox="0 0 261 104" version="1.1">
<g id="surface1">
<path style="fill-rule:nonzero;fill:rgb(100%,100%,100%);fill-opacity:1;stroke-width:1;stroke-linecap:round;stroke-linejoin:round;stroke:rgb(0%,0%,0%);stroke-opacity:1;stroke-miterlimit:10;" d="M 242.215625 157.215625 L 260.215625 157.215625 L 260.215625 175.215625 L 242.215625 175.215625 Z M 242.215625 157.215625 " transform="matrix(1.25,0,0,1.25,-66.25,-128.75)"/>
<path style=" stroke:none;fill-rule:nonzero;fill:rgb(0%,0%,0%);fill-opacity:1;" d="M 245.144531 82.144531 L 245.144531 80.210938 L 241.648438 80.210938 L 241.648438 79.3125 L 245.320312 74.097656 L 246.140625 74.097656 L 246.140625 79.3125 L 247.234375 79.3125 L 247.234375 80.210938 L 246.140625 80.210938 L 246.140625 82.144531 Z M 245.144531 79.3125 L 245.144531 75.679688 L 242.625 79.3125 Z M 245.144531 79.3125 "/>
<path style=" stroke:none;fill-rule:nonzero;fill:rgb(0%,0%,0%);fill-opacity:1;" d="M 248.238281 80.015625 L 249.234375 79.878906 C 249.351562 80.441406 249.539062 80.847656 249.800781 81.089844 C 250.074219 81.339844 250.414062 81.460938 250.816406 81.460938 C 251.273438 81.460938 251.65625 81.304688 251.96875 80.992188 C 252.292969 80.671875 252.457031 80.265625 252.457031 79.78125 C 252.457031 79.328125 252.308594 78.957031 252.007812 78.667969 C 251.722656 78.371094 251.351562 78.21875 250.894531 78.21875 C 250.699219 78.21875 250.464844 78.257812 250.191406 78.335938 L 250.308594 77.457031 C 250.375 77.472656 250.425781 77.476562 250.464844 77.476562 C 250.882812 77.476562 251.257812 77.371094 251.597656 77.144531 C 251.9375 76.925781 252.105469 76.589844 252.105469 76.128906 C 252.105469 75.769531 251.980469 75.464844 251.734375 75.230469 C 251.488281 74.996094 251.167969 74.878906 250.777344 74.878906 C 250.398438 74.878906 250.082031 75.007812 249.820312 75.25 C 249.574219 75.484375 249.410156 75.847656 249.332031 76.324219 L 248.335938 76.148438 C 248.464844 75.484375 248.738281 74.972656 249.15625 74.605469 C 249.585938 74.246094 250.121094 74.058594 250.757812 74.058594 C 251.199219 74.058594 251.605469 74.15625 251.96875 74.351562 C 252.347656 74.539062 252.632812 74.792969 252.828125 75.113281 C 253.023438 75.441406 253.121094 75.789062 253.121094 76.148438 C 253.121094 76.5 253.023438 76.824219 252.828125 77.105469 C 252.644531 77.394531 252.371094 77.625 252.007812 77.789062 C 252.488281 77.898438 252.859375 78.121094 253.121094 78.472656 C 253.382812 78.816406 253.511719 79.246094 253.511719 79.761719 C 253.511719 80.464844 253.25 81.066406 252.730469 81.558594 C 252.222656 82.042969 251.578125 82.28125 250.796875 82.28125 C 250.09375 82.28125 249.507812 82.078125 249.039062 81.65625 C 248.570312 81.242188 248.304688 80.695312 248.238281 80.015625 Z M 248.238281 80.015625 "/>
<path style="fill-rule:nonzero;fill:rgb(100%,100%,100%);fill-opacity:1;stroke-width:1;stroke-linecap:round;stroke-linejoin:round;stroke:rgb(0%,0%,0%);stroke-opacity:1;stroke-miterlimit:10;" d="M 224.215625 157.215625 L 242.215625 157.215625 L 242.215625 175.215625 L 224.215625 175.215625 Z M 224.215625 157.215625 " transform="matrix(1.25,0,0,1.25,-66.25,-128.75)"/>
<path style=" stroke:none;fill-rule:nonzero;fill:rgb(0%,0%,0%);fill-opacity:1;" d="M 219.480469 80.015625 L 220.476562 79.878906 C 220.59375 80.441406 220.78125 80.847656 221.042969 81.089844 C 221.316406 81.339844 221.65625 81.460938 222.058594 81.460938 C 222.515625 81.460938 222.898438 81.304688 223.210938 80.992188 C 223.535156 80.671875 223.699219 80.265625 223.699219 79.78125 C 223.699219 79.328125 223.550781 78.957031 223.25 78.667969 C 222.964844 78.371094 222.59375 78.21875 222.136719 78.21875 C 221.941406 78.21875 221.707031 78.257812 221.433594 78.335938 L 221.550781 77.457031 C 221.617188 77.472656 221.667969 77.476562 221.707031 77.476562 C 222.125 77.476562 222.5 77.371094 222.839844 77.144531 C 223.179688 76.925781 223.347656 76.589844 223.347656 76.128906 C 223.347656 75.769531 223.222656 75.464844 222.976562 75.230469 C 222.730469 74.996094 222.410156 74.878906 222.019531 74.878906 C 221.640625 74.878906 221.324219 75.007812 221.0625 75.25 C 220.816406 75.484375 220.652344 75.847656 220.574219 76.324219 L 219.578125 76.148438 C 219.707031 75.484375 219.980469 74.972656 220.398438 74.605469 C 220.828125 74.246094 221.363281 74.058594 222 74.058594 C 222.441406 74.058594 222.847656 74.15625 223.210938 74.351562 C 223.589844 74.539062 223.875 74.792969 224.070312 75.113281 C 224.265625 75.441406 224.363281 75.789062 224.363281 76.148438 C 224.363281 76.5 224.265625 76.824219 224.070312 77.105469 C 223.886719 77.394531 223.613281 77.625 223.25 77.789062 C 223.730469 77.898438 224.101562 78.121094 224.363281 78.472656 C 224.625 78.816406 224.753906 79.246094 224.753906 79.761719 C 224.753906 80.464844 224.492188 81.066406 223.972656 81.558594 C 223.464844 82.042969 222.820312 82.28125 222.039062 82.28125 C 221.335938 82.28125 220.75 82.078125 220.28125 81.65625 C 219.8125 81.242188 219.546875 80.695312 219.480469 80.015625 Z M 219.480469 80.015625 "/>
<path style=" stroke:none;fill-rule:nonzero;fill:rgb(0%,0%,0%);fill-opacity:1;" d="M 225.796875 75.152344 L 225.796875 74.195312 L 231.011719 74.195312 L 231.011719 74.957031 C 230.503906 75.503906 229.996094 76.238281 229.488281 77.144531 C 228.980469 78.042969 228.589844 78.976562 228.316406 79.9375 C 228.121094 80.601562 227.996094 81.339844 227.945312 82.144531 L 226.929688 82.144531 C 226.941406 81.511719 227.066406 80.75 227.300781 79.859375 C 227.535156 78.960938 227.875 78.097656 228.316406 77.261719 C 228.773438 76.433594 229.246094 75.730469 229.742188 75.152344 Z M 225.796875 75.152344 "/>
<path style="fill-rule:nonzero;fill:rgb(100%,100%,100%);fill-opacity:1;stroke-width:1;stroke-linecap:round;stroke-linejoin:round;stroke:rgb(0%,0%,0%);stroke-opacity:1;stroke-miterlimit:10;" d="M 242.215625 139.215625 L 260.215625 139.215625 L 260.215625 157.215625 L 242.215625 157.215625 Z M 242.215625 139.215625 " transform="matrix(1.25,0,0,1.25,-66.25,-128.75)"/>
<path style=" stroke:none;fill-rule:nonzero;fill:rgb(0%,0%,0%);fill-opacity:1;" d="M 247.175781 58.6875 L 247.175781 59.644531 L 241.84375 59.644531 C 241.84375 59.410156 241.882812 59.1875 241.960938 58.960938 C 242.105469 58.601562 242.324219 58.238281 242.625 57.886719 C 242.925781 57.535156 243.355469 57.136719 243.914062 56.675781 C 244.785156 55.949219 245.371094 55.378906 245.671875 54.957031 C 245.984375 54.542969 246.140625 54.148438 246.140625 53.765625 C 246.140625 53.375 245.996094 53.054688 245.710938 52.789062 C 245.4375 52.515625 245.078125 52.378906 244.636719 52.378906 C 244.15625 52.378906 243.769531 52.527344 243.484375 52.808594 C 243.199219 53.097656 243.054688 53.492188 243.054688 54 L 242.039062 53.882812 C 242.105469 53.132812 242.363281 52.554688 242.820312 52.164062 C 243.277344 51.765625 243.886719 51.558594 244.65625 51.558594 C 245.425781 51.558594 246.03125 51.773438 246.472656 52.203125 C 246.929688 52.632812 247.15625 53.160156 247.15625 53.785156 C 247.15625 54.113281 247.089844 54.429688 246.960938 54.742188 C 246.832031 55.054688 246.609375 55.386719 246.296875 55.738281 C 245.996094 56.082031 245.496094 56.550781 244.792969 57.144531 C 244.195312 57.644531 243.808594 57.980469 243.640625 58.160156 C 243.472656 58.347656 243.335938 58.523438 243.230469 58.6875 Z M 247.175781 58.6875 "/>
<path style=" stroke:none;fill-rule:nonzero;fill:rgb(0%,0%,0%);fill-opacity:1;" d="M 248.238281 57.535156 L 249.273438 57.4375 C 249.351562 57.945312 249.527344 58.332031 249.800781 58.589844 C 250.085938 58.839844 250.425781 58.960938 250.816406 58.960938 C 251.296875 58.960938 251.703125 58.785156 252.027344 58.433594 C 252.367188 58.074219 252.535156 57.59375 252.535156 57.007812 C 252.535156 56.4375 252.371094 55.988281 252.046875 55.660156 C 251.734375 55.339844 251.324219 55.171875 250.816406 55.171875 C 250.492188 55.171875 250.199219 55.25 249.9375 55.40625 C 249.691406 55.554688 249.488281 55.734375 249.332031 55.953125 L 248.414062 55.835938 L 249.195312 51.695312 L 253.199219 51.695312 L 253.199219 52.652344 L 249.976562 52.652344 L 249.546875 54.800781 C 250.027344 54.480469 250.535156 54.3125 251.070312 54.3125 C 251.773438 54.3125 252.367188 54.558594 252.847656 55.035156 C 253.328125 55.519531 253.570312 56.144531 253.570312 56.910156 C 253.570312 57.644531 253.363281 58.273438 252.945312 58.804688 C 252.425781 59.460938 251.714844 59.78125 250.816406 59.78125 C 250.085938 59.78125 249.488281 59.582031 249.019531 59.175781 C 248.5625 58.761719 248.304688 58.214844 248.238281 57.535156 Z M 248.238281 57.535156 "/>
<path style="fill-rule:nonzero;fill:rgb(69.803922%,85.098039%,100%);fill-opacity:1;stroke-width:1;stroke-linecap:round;stroke-linejoin:round;stroke:rgb(0%,0%,0%);stroke-opacity:1;stroke-miterlimit:10;" d="M 224.215625 139.215625 L 242.215625 139.215625 L 242.215625 157.215625 L 224.215625 157.215625 Z M 224.215625 139.215625 " transform="matrix(1.25,0,0,1.25,-66.25,-128.75)"/>
<path style=" stroke:none;fill-rule:nonzero;fill:rgb(0%,0%,0%);fill-opacity:1;" d="M 223.210938 59.644531 L 222.214844 59.644531 L 222.214844 53.335938 C 221.980469 53.570312 221.667969 53.804688 221.277344 54.039062 C 220.886719 54.265625 220.542969 54.425781 220.242188 54.527344 L 220.242188 53.570312 C 220.789062 53.328125 221.269531 53.019531 221.6875 52.652344 C 222.105469 52.277344 222.398438 51.910156 222.566406 51.558594 L 223.210938 51.558594 Z M 223.210938 59.644531 "/>
<path style=" stroke:none;fill-rule:nonzero;fill:rgb(0%,0%,0%);fill-opacity:1;" d="M 225.894531 57.789062 L 226.832031 57.691406 C 226.910156 58.136719 227.058594 58.464844 227.28125 58.667969 C 227.515625 58.863281 227.816406 58.960938 228.179688 58.960938 C 228.480469 58.960938 228.738281 58.898438 228.960938 58.765625 C 229.195312 58.625 229.382812 58.433594 229.527344 58.199219 C 229.683594 57.964844 229.808594 57.652344 229.898438 57.261719 C 230.003906 56.871094 230.054688 56.472656 230.054688 56.050781 C 230.054688 56.011719 230.046875 55.949219 230.035156 55.855469 C 229.839844 56.167969 229.574219 56.421875 229.234375 56.617188 C 228.894531 56.8125 228.523438 56.910156 228.121094 56.910156 C 227.457031 56.910156 226.890625 56.671875 226.421875 56.1875 C 225.964844 55.710938 225.738281 55.070312 225.738281 54.273438 C 225.738281 53.453125 225.980469 52.800781 226.460938 52.300781 C 226.941406 51.808594 227.546875 51.558594 228.277344 51.558594 C 228.796875 51.558594 229.273438 51.707031 229.703125 51.988281 C 230.132812 52.261719 230.457031 52.664062 230.679688 53.179688 C 230.914062 53.703125 231.03125 54.460938 231.03125 55.445312 C 231.03125 56.476562 230.921875 57.296875 230.699219 57.90625 C 230.476562 58.523438 230.144531 58.992188 229.703125 59.3125 C 229.261719 59.625 228.738281 59.78125 228.140625 59.78125 C 227.515625 59.78125 227 59.605469 226.597656 59.253906 C 226.207031 58.902344 225.972656 58.414062 225.894531 57.789062 Z M 229.9375 54.234375 C 229.9375 53.664062 229.78125 53.214844 229.46875 52.886719 C 229.167969 52.550781 228.8125 52.378906 228.394531 52.378906 C 227.953125 52.378906 227.566406 52.566406 227.242188 52.925781 C 226.917969 53.277344 226.753906 53.742188 226.753906 54.3125 C 226.753906 54.820312 226.902344 55.242188 227.203125 55.5625 C 227.515625 55.875 227.898438 56.03125 228.355469 56.03125 C 228.824219 56.03125 229.203125 55.875 229.488281 55.5625 C 229.789062 55.242188 229.9375 54.796875 229.9375 54.234375 Z M 229.9375 54.234375 "/>
<path style=" stroke:none;fill-rule:nonzero;fill:rgb(0%,0%,0%);fill-opacity:1;" d="M 86.808594 67.300781 L 87.316406 65.738281 C 88.472656 66.144531 89.320312 66.496094 89.855469 66.792969 C 89.710938 65.480469 89.640625 64.566406 89.640625 64.058594 L 91.222656 64.058594 C 91.195312 64.792969 91.109375 65.699219 90.96875 66.792969 C 91.722656 66.417969 92.589844 66.066406 93.566406 65.738281 L 94.074219 67.300781 C 93.136719 67.605469 92.222656 67.804688 91.339844 67.90625 C 91.78125 68.296875 92.414062 68.992188 93.234375 69.976562 L 91.90625 70.914062 C 91.476562 70.34375 90.972656 69.558594 90.402344 68.550781 C 89.855469 69.597656 89.378906 70.382812 88.976562 70.914062 L 87.667969 69.976562 C 88.527344 68.9375 89.136719 68.25 89.503906 67.90625 C 88.550781 67.726562 87.652344 67.527344 86.808594 67.300781 Z M 86.808594 67.300781 "/>
<path style=" stroke:none;fill-rule:nonzero;fill:rgb(0%,0%,0%);fill-opacity:1;" d="M 190.738281 65.171875 L 180.09375 65.171875 L 180.09375 63.335938 L 190.738281 63.335938 Z M 190.738281 70.054688 L 180.09375 70.054688 L 180.09375 68.21875 L 190.738281 68.21875 Z M 190.738281 70.054688 "/>
<path style="fill-rule:nonzero;fill:rgb(100%,100%,100%);fill-opacity:1;stroke-width:1;stroke-linecap:round;stroke-linejoin:round;stroke:rgb(0%,0%,0%);stroke-opacity:1;stroke-miterlimit:10;" d="M 72 166.61875 L 90 166.61875 L 90 184.61875 L 72 184.61875 Z M 72 166.61875 " transform="matrix(1.25,0,0,1.25,-66.25,-128.75)"/>
<path style=" stroke:none;fill-rule:nonzero;fill:rgb(0%,0%,0%);fill-opacity:1;" d="M 32.398438 86.90625 L 32.398438 85.949219 L 37.613281 85.949219 L 37.613281 86.710938 C 37.105469 87.257812 36.597656 87.992188 36.089844 88.898438 C 35.582031 89.796875 35.191406 90.730469 34.917969 91.691406 C 34.722656 92.355469 34.597656 93.09375 34.546875 93.898438 L 33.53125 93.898438 C 33.542969 93.265625 33.667969 92.503906 33.902344 91.613281 C 34.136719 90.714844 34.472656 89.851562 34.917969 89.015625 C 35.371094 88.1875 35.847656 87.484375 36.34375 86.90625 Z M 32.398438 86.90625 "/>
<path style="fill-rule:nonzero;fill:rgb(69.803922%,85.098039%,100%);fill-opacity:1;stroke-width:1;stroke-linecap:round;stroke-linejoin:round;stroke:rgb(0%,0%,0%);stroke-opacity:1;stroke-miterlimit:10;" d="M 72 130.61875 L 90 130.61875 L 90 148.61875 L 72 148.61875 Z M 72 130.61875 " transform="matrix(1.25,0,0,1.25,-66.25,-128.75)"/>
<path style=" stroke:none;fill-rule:nonzero;fill:rgb(0%,0%,0%);fill-opacity:1;" d="M 36.070312 48.898438 L 35.074219 48.898438 L 35.074219 42.589844 C 34.839844 42.824219 34.527344 43.058594 34.136719 43.292969 C 33.746094 43.519531 33.398438 43.679688 33.101562 43.78125 L 33.101562 42.824219 C 33.648438 42.582031 34.128906 42.273438 34.546875 41.90625 C 34.960938 41.53125 35.253906 41.164062 35.425781 40.8125 L 36.070312 40.8125 Z M 36.070312 48.898438 "/>
<path style="fill-rule:nonzero;fill:rgb(69.803922%,85.098039%,100%);fill-opacity:1;stroke-width:1;stroke-linecap:round;stroke-linejoin:round;stroke:rgb(0%,0%,0%);stroke-opacity:1;stroke-miterlimit:10;" d="M 72 148.61875 L 90 148.61875 L 90 166.61875 L 72 166.61875 Z M 72 148.61875 " transform="matrix(1.25,0,0,1.25,-66.25,-128.75)"/>
<path style=" stroke:none;fill-rule:nonzero;fill:rgb(0%,0%,0%);fill-opacity:1;" d="M 35.503906 71.398438 L 35.503906 69.464844 L 32.007812 69.464844 L 32.007812 68.566406 L 35.679688 63.351562 L 36.5 63.351562 L 36.5 68.566406 L 37.59375 68.566406 L 37.59375 69.464844 L 36.5 69.464844 L 36.5 71.398438 Z M 35.503906 68.566406 L 35.503906 64.933594 L 32.984375 68.566406 Z M 35.503906 68.566406 "/>
<path style="fill-rule:nonzero;fill:rgb(100%,100%,100%);fill-opacity:1;stroke-width:1;stroke-linecap:round;stroke-linejoin:round;stroke:rgb(0%,0%,0%);stroke-opacity:1;stroke-miterlimit:10;" d="M 54 166.61875 L 72 166.61875 L 72 184.61875 L 54 184.61875 Z M 54 166.61875 " transform="matrix(1.25,0,0,1.25,-66.25,-128.75)"/>
<path style=" stroke:none;fill-rule:nonzero;fill:rgb(0%,0%,0%);fill-opacity:1;" d="M 14.976562 87.824219 L 13.980469 87.902344 C 13.902344 87.511719 13.777344 87.230469 13.609375 87.042969 C 13.347656 86.769531 13.023438 86.632812 12.632812 86.632812 C 12.304688 86.632812 12.027344 86.722656 11.792969 86.886719 C 11.480469 87.121094 11.230469 87.453125 11.050781 87.882812 C 10.878906 88.3125 10.789062 88.933594 10.777344 89.738281 C 11.011719 89.386719 11.296875 89.128906 11.636719 88.957031 C 11.988281 88.777344 12.351562 88.683594 12.730469 88.683594 C 13.394531 88.683594 13.953125 88.929688 14.410156 89.40625 C 14.878906 89.890625 15.113281 90.515625 15.113281 91.28125 C 15.113281 91.789062 15 92.269531 14.78125 92.707031 C 14.558594 93.136719 14.257812 93.46875 13.882812 93.703125 C 13.503906 93.921875 13.074219 94.035156 12.59375 94.035156 C 11.773438 94.035156 11.101562 93.738281 10.582031 93.136719 C 10.058594 92.527344 9.800781 91.527344 9.800781 90.128906 C 9.800781 88.582031 10.085938 87.449219 10.660156 86.730469 C 11.152344 86.121094 11.832031 85.8125 12.691406 85.8125 C 13.316406 85.8125 13.828125 86 14.234375 86.359375 C 14.636719 86.710938 14.882812 87.199219 14.976562 87.824219 Z M 10.933594 91.28125 C 10.933594 91.632812 11.003906 91.964844 11.148438 92.277344 C 11.289062 92.582031 11.492188 92.816406 11.753906 92.980469 C 12.011719 93.136719 12.285156 93.214844 12.574219 93.214844 C 12.988281 93.214844 13.347656 93.054688 13.648438 92.726562 C 13.945312 92.390625 14.097656 91.925781 14.097656 91.339844 C 14.097656 90.785156 13.945312 90.34375 13.648438 90.03125 C 13.359375 89.710938 12.988281 89.542969 12.535156 89.542969 C 12.089844 89.542969 11.714844 89.710938 11.402344 90.03125 C 11.089844 90.34375 10.933594 90.765625 10.933594 91.28125 Z M 10.933594 91.28125 "/>
<path style="fill-rule:nonzero;fill:rgb(100%,100%,100%);fill-opacity:1;stroke-width:1;stroke-linecap:round;stroke-linejoin:round;stroke:rgb(0%,0%,0%);stroke-opacity:1;stroke-miterlimit:10;" d="M 90 148.61875 L 108 148.61875 L 108 166.61875 L 90 166.61875 Z M 90 148.61875 " transform="matrix(1.25,0,0,1.25,-66.25,-128.75)"/>
<path style=" stroke:none;fill-rule:nonzero;fill:rgb(0%,0%,0%);fill-opacity:1;" d="M 54.839844 69.289062 L 55.875 69.191406 C 55.953125 69.699219 56.128906 70.085938 56.402344 70.34375 C 56.6875 70.59375 57.027344 70.714844 57.417969 70.714844 C 57.898438 70.714844 58.300781 70.539062 58.628906 70.1875 C 58.964844 69.828125 59.136719 69.347656 59.136719 68.761719 C 59.136719 68.191406 58.972656 67.742188 58.648438 67.414062 C 58.335938 67.09375 57.925781 66.925781 57.417969 66.925781 C 57.089844 66.925781 56.796875 67.003906 56.539062 67.160156 C 56.289062 67.308594 56.089844 67.488281 55.933594 67.707031 L 55.015625 67.589844 L 55.796875 63.449219 L 59.800781 63.449219 L 59.800781 64.40625 L 56.578125 64.40625 L 56.148438 66.554688 C 56.628906 66.234375 57.136719 66.066406 57.671875 66.066406 C 58.375 66.066406 58.964844 66.3125 59.449219 66.789062 C 59.929688 67.273438 60.171875 67.898438 60.171875 68.664062 C 60.171875 69.398438 59.960938 70.027344 59.546875 70.558594 C 59.023438 71.214844 58.316406 71.535156 57.417969 71.535156 C 56.6875 71.535156 56.089844 71.335938 55.621094 70.929688 C 55.164062 70.515625 54.902344 69.96875 54.839844 69.289062 Z M 54.839844 69.289062 "/>
<path style="fill-rule:nonzero;fill:rgb(69.803922%,85.098039%,100%);fill-opacity:1;stroke-width:1;stroke-linecap:round;stroke-linejoin:round;stroke:rgb(0%,0%,0%);stroke-opacity:1;stroke-miterlimit:10;" d="M 54 148.61875 L 72 148.61875 L 72 166.61875 L 54 166.61875 Z M 54 148.61875 " transform="matrix(1.25,0,0,1.25,-66.25,-128.75)"/>
<path style=" stroke:none;fill-rule:nonzero;fill:rgb(0%,0%,0%);fill-opacity:1;" d="M 9.839844 69.269531 L 10.835938 69.132812 C 10.953125 69.695312 11.140625 70.101562 11.402344 70.34375 C 11.675781 70.59375 12.011719 70.714844 12.417969 70.714844 C 12.871094 70.714844 13.257812 70.558594 13.570312 70.246094 C 13.894531 69.925781 14.058594 69.519531 14.058594 69.035156 C 14.058594 68.582031 13.90625 68.210938 13.609375 67.921875 C 13.320312 67.625 12.949219 67.472656 12.496094 67.472656 C 12.300781 67.472656 12.066406 67.511719 11.792969 67.589844 L 11.910156 66.710938 C 11.972656 66.726562 12.027344 66.730469 12.066406 66.730469 C 12.480469 66.730469 12.859375 66.625 13.199219 66.398438 C 13.535156 66.179688 13.707031 65.84375 13.707031 65.382812 C 13.707031 65.023438 13.582031 64.71875 13.335938 64.484375 C 13.085938 64.25 12.769531 64.132812 12.378906 64.132812 C 12 64.132812 11.679688 64.261719 11.421875 64.503906 C 11.171875 64.738281 11.011719 65.101562 10.933594 65.578125 L 9.9375 65.402344 C 10.066406 64.738281 10.339844 64.226562 10.757812 63.859375 C 11.1875 63.5 11.71875 63.3125 12.359375 63.3125 C 12.800781 63.3125 13.203125 63.410156 13.570312 63.605469 C 13.945312 63.792969 14.234375 64.046875 14.429688 64.367188 C 14.625 64.695312 14.722656 65.042969 14.722656 65.402344 C 14.722656 65.753906 14.625 66.078125 14.429688 66.359375 C 14.246094 66.648438 13.972656 66.878906 13.609375 67.042969 C 14.089844 67.152344 14.460938 67.375 14.722656 67.726562 C 14.980469 68.070312 15.113281 68.5 15.113281 69.015625 C 15.113281 69.71875 14.851562 70.320312 14.332031 70.8125 C 13.824219 71.296875 13.179688 71.535156 12.398438 71.535156 C 11.695312 71.535156 11.109375 71.332031 10.640625 70.910156 C 10.171875 70.496094 9.902344 69.949219 9.839844 69.269531 Z M 9.839844 69.269531 "/>
<path style="fill-rule:nonzero;fill:rgb(100%,100%,100%);fill-opacity:1;stroke-width:1;stroke-linecap:round;stroke-linejoin:round;stroke:rgb(0%,0%,0%);stroke-opacity:1;stroke-miterlimit:10;" d="M 90 166.61875 L 108 166.61875 L 108 184.61875 L 90 184.61875 Z M 90 166.61875 " transform="matrix(1.25,0,0,1.25,-66.25,-128.75)"/>
<path style=" stroke:none;fill-rule:nonzero;fill:rgb(0%,0%,0%);fill-opacity:1;" d="M 56.363281 89.523438 C 55.945312 89.382812 55.640625 89.171875 55.445312 88.898438 C 55.25 88.617188 55.152344 88.273438 55.152344 87.882812 C 55.152344 87.296875 55.359375 86.808594 55.777344 86.417969 C 56.207031 86.019531 56.765625 85.8125 57.457031 85.8125 C 58.160156 85.8125 58.726562 86.023438 59.15625 86.4375 C 59.585938 86.84375 59.800781 87.335938 59.800781 87.921875 C 59.800781 88.289062 59.703125 88.617188 59.507812 88.898438 C 59.3125 89.171875 59.011719 89.382812 58.609375 89.523438 C 59.101562 89.695312 59.480469 89.964844 59.742188 90.324219 C 60 90.675781 60.132812 91.101562 60.132812 91.59375 C 60.132812 92.289062 59.882812 92.863281 59.390625 93.332031 C 58.90625 93.800781 58.269531 94.035156 57.476562 94.035156 C 56.679688 94.035156 56.035156 93.800781 55.542969 93.332031 C 55.058594 92.863281 54.820312 92.277344 54.820312 91.574219 C 54.820312 91.058594 54.949219 90.617188 55.210938 90.265625 C 55.484375 89.90625 55.867188 89.65625 56.363281 89.523438 Z M 56.167969 87.863281 C 56.167969 88.246094 56.285156 88.558594 56.519531 88.800781 C 56.765625 89.035156 57.085938 89.152344 57.476562 89.152344 C 57.867188 89.152344 58.179688 89.035156 58.414062 88.800781 C 58.660156 88.558594 58.785156 88.253906 58.785156 87.902344 C 58.785156 87.550781 58.660156 87.253906 58.414062 87.003906 C 58.164062 86.761719 57.851562 86.632812 57.476562 86.632812 C 57.097656 86.632812 56.785156 86.761719 56.539062 87.003906 C 56.289062 87.238281 56.167969 87.527344 56.167969 87.863281 Z M 55.835938 91.574219 C 55.835938 91.863281 55.898438 92.136719 56.03125 92.394531 C 56.171875 92.660156 56.375 92.859375 56.636719 93 C 56.894531 93.148438 57.183594 93.214844 57.496094 93.214844 C 57.964844 93.214844 58.347656 93.070312 58.648438 92.765625 C 58.960938 92.46875 59.117188 92.082031 59.117188 91.613281 C 59.117188 91.136719 58.960938 90.734375 58.648438 90.421875 C 58.335938 90.109375 57.9375 89.953125 57.457031 89.953125 C 56.988281 89.953125 56.597656 90.109375 56.285156 90.421875 C 55.984375 90.734375 55.835938 91.121094 55.835938 91.574219 Z M 55.835938 91.574219 "/>
<path style="fill-rule:nonzero;fill:rgb(100%,100%,100%);fill-opacity:1;stroke-width:1;stroke-linecap:round;stroke-linejoin:round;stroke:rgb(0%,0%,0%);stroke-opacity:1;stroke-miterlimit:10;" d="M 90 130.61875 L 108 130.61875 L 108 148.61875 L 90 148.61875 Z M 90 130.61875 " transform="matrix(1.25,0,0,1.25,-66.25,-128.75)"/>
<path style=" stroke:none;fill-rule:nonzero;fill:rgb(0%,0%,0%);fill-opacity:1;" d="M 60.035156 47.941406 L 60.035156 48.898438 L 54.703125 48.898438 C 54.703125 48.664062 54.742188 48.441406 54.820312 48.214844 C 54.960938 47.855469 55.183594 47.492188 55.484375 47.140625 C 55.78125 46.789062 56.210938 46.390625 56.773438 45.929688 C 57.644531 45.203125 58.230469 44.632812 58.53125 44.210938 C 58.84375 43.796875 59 43.402344 59 43.019531 C 59 42.628906 58.855469 42.308594 58.570312 42.042969 C 58.296875 41.769531 57.9375 41.632812 57.496094 41.632812 C 57.011719 41.632812 56.628906 41.78125 56.34375 42.0625 C 56.054688 42.351562 55.914062 42.746094 55.914062 43.253906 L 54.898438 43.136719 C 54.960938 42.386719 55.222656 41.808594 55.679688 41.417969 C 56.132812 41.019531 56.746094 40.8125 57.515625 40.8125 C 58.28125 40.8125 58.886719 41.027344 59.332031 41.457031 C 59.785156 41.886719 60.015625 42.414062 60.015625 43.039062 C 60.015625 43.367188 59.949219 43.683594 59.820312 43.996094 C 59.6875 44.308594 59.46875 44.640625 59.15625 44.992188 C 58.855469 45.335938 58.355469 45.804688 57.652344 46.398438 C 57.050781 46.898438 56.667969 47.234375 56.5 47.414062 C 56.328125 47.601562 56.191406 47.777344 56.089844 47.941406 Z M 60.035156 47.941406 "/>
<path style="fill-rule:nonzero;fill:rgb(69.803922%,85.098039%,100%);fill-opacity:1;stroke-width:1;stroke-linecap:round;stroke-linejoin:round;stroke:rgb(0%,0%,0%);stroke-opacity:1;stroke-miterlimit:10;" d="M 54 130.61875 L 72 130.61875 L 72 148.61875 L 54 148.61875 Z M 54 130.61875 " transform="matrix(1.25,0,0,1.25,-66.25,-128.75)"/>
<path style=" stroke:none;fill-rule:nonzero;fill:rgb(0%,0%,0%);fill-opacity:1;" d="M 9.839844 44.933594 C 9.839844 43.988281 9.9375 43.214844 10.132812 42.628906 C 10.328125 42.042969 10.613281 41.59375 10.992188 41.28125 C 11.382812 40.96875 11.871094 40.8125 12.457031 40.8125 C 12.898438 40.8125 13.28125 40.90625 13.609375 41.085938 C 13.933594 41.257812 14.199219 41.507812 14.410156 41.828125 C 14.617188 42.15625 14.78125 42.550781 14.898438 43.019531 C 15.027344 43.488281 15.09375 44.128906 15.09375 44.933594 C 15.09375 45.871094 14.996094 46.632812 14.800781 47.21875 C 14.605469 47.796875 14.3125 48.246094 13.921875 48.566406 C 13.542969 48.878906 13.054688 49.035156 12.457031 49.035156 C 11.6875 49.035156 11.082031 48.757812 10.640625 48.195312 C 10.105469 47.53125 9.839844 46.449219 9.839844 44.933594 Z M 10.855469 44.933594 C 10.855469 46.253906 11.003906 47.132812 11.304688 47.570312 C 11.617188 48 12 48.214844 12.457031 48.214844 C 12.910156 48.214844 13.296875 48 13.609375 47.570312 C 13.921875 47.132812 14.078125 46.253906 14.078125 44.933594 C 14.078125 43.605469 13.921875 42.726562 13.609375 42.296875 C 13.296875 41.859375 12.910156 41.632812 12.457031 41.632812 C 12 41.632812 11.636719 41.824219 11.363281 42.199219 C 11.023438 42.699219 10.855469 43.605469 10.855469 44.933594 Z M 10.855469 44.933594 "/>
<path style="fill-rule:nonzero;fill:rgb(69.803922%,85.098039%,100%);fill-opacity:1;stroke-width:1;stroke-linecap:round;stroke-linejoin:round;stroke:rgb(0%,0%,0%);stroke-opacity:1;stroke-miterlimit:10;" d="M 144.03125 157.215625 L 162.03125 157.215625 L 162.03125 175.215625 L 144.03125 175.215625 Z M 144.03125 157.215625 " transform="matrix(1.25,0,0,1.25,-66.25,-128.75)"/>
<path style=" stroke:none;fill-rule:nonzero;fill:rgb(0%,0%,0%);fill-opacity:1;" d="M 127.574219 81.1875 L 127.574219 82.144531 L 122.242188 82.144531 C 122.242188 81.910156 122.28125 81.6875 122.359375 81.460938 C 122.503906 81.101562 122.722656 80.738281 123.023438 80.386719 C 123.324219 80.035156 123.753906 79.636719 124.3125 79.175781 C 125.183594 78.449219 125.769531 77.878906 126.070312 77.457031 C 126.382812 77.042969 126.539062 76.648438 126.539062 76.265625 C 126.539062 75.875 126.394531 75.554688 126.109375 75.289062 C 125.835938 75.015625 125.476562 74.878906 125.035156 74.878906 C 124.554688 74.878906 124.167969 75.027344 123.882812 75.308594 C 123.597656 75.597656 123.453125 75.992188 123.453125 76.5 L 122.4375 76.382812 C 122.503906 75.632812 122.761719 75.054688 123.21875 74.664062 C 123.675781 74.265625 124.285156 74.058594 125.054688 74.058594 C 125.824219 74.058594 126.429688 74.273438 126.871094 74.703125 C 127.328125 75.132812 127.554688 75.660156 127.554688 76.285156 C 127.554688 76.613281 127.488281 76.929688 127.359375 77.242188 C 127.230469 77.554688 127.007812 77.886719 126.695312 78.238281 C 126.394531 78.582031 125.894531 79.050781 125.191406 79.644531 C 124.59375 80.144531 124.207031 80.480469 124.039062 80.660156 C 123.871094 80.847656 123.734375 81.023438 123.628906 81.1875 Z M 127.574219 81.1875 "/>
<path style="fill-rule:nonzero;fill:rgb(69.803922%,85.098039%,100%);fill-opacity:1;stroke-width:1;stroke-linecap:round;stroke-linejoin:round;stroke:rgb(0%,0%,0%);stroke-opacity:1;stroke-miterlimit:10;" d="M 162.03125 157.215625 L 180.03125 157.215625 L 180.03125 175.215625 L 162.03125 175.215625 Z M 162.03125 157.215625 " transform="matrix(1.25,0,0,1.25,-66.25,-128.75)"/>
<path style=" stroke:none;fill-rule:nonzero;fill:rgb(0%,0%,0%);fill-opacity:1;" d="M 144.878906 80.015625 L 145.875 79.878906 C 145.992188 80.441406 146.179688 80.847656 146.441406 81.089844 C 146.714844 81.339844 147.054688 81.460938 147.457031 81.460938 C 147.914062 81.460938 148.296875 81.304688 148.609375 80.992188 C 148.933594 80.671875 149.097656 80.265625 149.097656 79.78125 C 149.097656 79.328125 148.949219 78.957031 148.648438 78.667969 C 148.363281 78.371094 147.992188 78.21875 147.535156 78.21875 C 147.339844 78.21875 147.105469 78.257812 146.832031 78.335938 L 146.949219 77.457031 C 147.015625 77.472656 147.066406 77.476562 147.105469 77.476562 C 147.523438 77.476562 147.898438 77.371094 148.238281 77.144531 C 148.578125 76.925781 148.746094 76.589844 148.746094 76.128906 C 148.746094 75.769531 148.621094 75.464844 148.375 75.230469 C 148.128906 74.996094 147.808594 74.878906 147.417969 74.878906 C 147.039062 74.878906 146.722656 75.007812 146.460938 75.25 C 146.214844 75.484375 146.050781 75.847656 145.972656 76.324219 L 144.976562 76.148438 C 145.105469 75.484375 145.378906 74.972656 145.796875 74.605469 C 146.226562 74.246094 146.761719 74.058594 147.398438 74.058594 C 147.839844 74.058594 148.246094 74.15625 148.609375 74.351562 C 148.988281 74.539062 149.273438 74.792969 149.46875 75.113281 C 149.664062 75.441406 149.761719 75.789062 149.761719 76.148438 C 149.761719 76.5 149.664062 76.824219 149.46875 77.105469 C 149.285156 77.394531 149.011719 77.625 148.648438 77.789062 C 149.128906 77.898438 149.5 78.121094 149.761719 78.472656 C 150.023438 78.816406 150.152344 79.246094 150.152344 79.761719 C 150.152344 80.464844 149.890625 81.066406 149.371094 81.558594 C 148.863281 82.042969 148.21875 82.28125 147.4375 82.28125 C 146.734375 82.28125 146.148438 82.078125 145.679688 81.65625 C 145.210938 81.242188 144.945312 80.695312 144.878906 80.015625 Z M 144.878906 80.015625 "/>
<path style="fill-rule:nonzero;fill:rgb(69.803922%,85.098039%,100%);fill-opacity:1;stroke-width:1;stroke-linecap:round;stroke-linejoin:round;stroke:rgb(0%,0%,0%);stroke-opacity:1;stroke-miterlimit:10;" d="M 162.03125 139.215625 L 180.03125 139.215625 L 180.03125 157.215625 L 162.03125 157.215625 Z M 162.03125 139.215625 " transform="matrix(1.25,0,0,1.25,-66.25,-128.75)"/>
<path style=" stroke:none;fill-rule:nonzero;fill:rgb(0%,0%,0%);fill-opacity:1;" d="M 148.609375 59.644531 L 147.613281 59.644531 L 147.613281 53.335938 C 147.378906 53.570312 147.066406 53.804688 146.675781 54.039062 C 146.285156 54.265625 145.941406 54.425781 145.640625 54.527344 L 145.640625 53.570312 C 146.1875 53.328125 146.667969 53.019531 147.085938 52.652344 C 147.503906 52.277344 147.796875 51.910156 147.964844 51.558594 L 148.609375 51.558594 Z M 148.609375 59.644531 "/>
<path style="fill-rule:nonzero;fill:rgb(69.803922%,85.098039%,100%);fill-opacity:1;stroke-width:1;stroke-linecap:round;stroke-linejoin:round;stroke:rgb(0%,0%,0%);stroke-opacity:1;stroke-miterlimit:10;" d="M 144.03125 139.215625 L 162.03125 139.215625 L 162.03125 157.215625 L 144.03125 157.215625 Z M 144.03125 139.215625 " transform="matrix(1.25,0,0,1.25,-66.25,-128.75)"/>
<path style=" stroke:none;fill-rule:nonzero;fill:rgb(0%,0%,0%);fill-opacity:1;" d="M 122.378906 55.679688 C 122.378906 54.734375 122.476562 53.960938 122.671875 53.375 C 122.867188 52.789062 123.152344 52.339844 123.53125 52.027344 C 123.921875 51.714844 124.410156 51.558594 124.996094 51.558594 C 125.4375 51.558594 125.824219 51.652344 126.148438 51.832031 C 126.472656 52.003906 126.742188 52.253906 126.949219 52.574219 C 127.15625 52.902344 127.320312 53.296875 127.4375 53.765625 C 127.566406 54.234375 127.632812 54.875 127.632812 55.679688 C 127.632812 56.617188 127.535156 57.378906 127.339844 57.964844 C 127.144531 58.542969 126.851562 58.992188 126.460938 59.3125 C 126.082031 59.625 125.59375 59.78125 124.996094 59.78125 C 124.226562 59.78125 123.621094 59.503906 123.179688 58.941406 C 122.644531 58.277344 122.378906 57.195312 122.378906 55.679688 Z M 123.394531 55.679688 C 123.394531 57 123.542969 57.878906 123.84375 58.316406 C 124.15625 58.746094 124.539062 58.960938 124.996094 58.960938 C 125.453125 58.960938 125.835938 58.746094 126.148438 58.316406 C 126.460938 57.878906 126.617188 57 126.617188 55.679688 C 126.617188 54.351562 126.460938 53.472656 126.148438 53.042969 C 125.835938 52.605469 125.453125 52.378906 124.996094 52.378906 C 124.539062 52.378906 124.175781 52.570312 123.902344 52.945312 C 123.5625 53.445312 123.394531 54.351562 123.394531 55.679688 Z M 123.394531 55.679688 "/>
<path style=" stroke:none;fill-rule:nonzero;fill:rgb(0%,0%,0%);fill-opacity:1;" d="M 220.179688 12.324219 C 220.179688 10.996094 220.539062 9.957031 221.253906 9.199219 C 221.96875 8.433594 222.894531 8.046875 224.027344 8.046875 C 224.769531 8.046875 225.441406 8.234375 226.039062 8.59375 C 226.636719 8.945312 227.09375 9.445312 227.40625 10.078125 C 227.71875 10.71875 227.875 11.4375 227.875 12.226562 C 227.875 13.046875 227.710938 13.785156 227.386719 14.433594 C 227.0625 15.074219 226.59375 15.5625 225.980469 15.898438 C 225.382812 16.226562 224.730469 16.386719 224.027344 16.386719 C 223.273438 16.386719 222.59375 16.207031 221.996094 15.839844 C 221.398438 15.476562 220.941406 14.976562 220.628906 14.335938 C 220.328125 13.703125 220.179688 13.027344 220.179688 12.324219 Z M 221.273438 12.34375 C 221.273438 13.320312 221.535156 14.09375 222.054688 14.648438 C 222.574219 15.195312 223.234375 15.46875 224.027344 15.46875 C 224.820312 15.46875 225.480469 15.191406 226 14.628906 C 226.519531 14.070312 226.78125 13.273438 226.78125 12.226562 C 226.78125 11.578125 226.671875 11.011719 226.449219 10.527344 C 226.226562 10.035156 225.902344 9.648438 225.472656 9.375 C 225.042969 9.101562 224.566406 8.964844 224.046875 8.964844 C 223.292969 8.964844 222.640625 9.226562 222.09375 9.746094 C 221.546875 10.269531 221.273438 11.132812 221.273438 12.34375 Z M 221.273438 12.34375 "/>
<path style=" stroke:none;fill-rule:nonzero;fill:rgb(0%,0%,0%);fill-opacity:1;" d="M 232.953125 16.25 L 232.953125 15.390625 C 232.496094 16.054688 231.878906 16.386719 231.097656 16.386719 C 230.757812 16.386719 230.441406 16.316406 230.140625 16.191406 C 229.839844 16.050781 229.613281 15.878906 229.457031 15.683594 C 229.3125 15.488281 229.214844 15.25 229.164062 14.960938 C 229.125 14.765625 229.105469 14.453125 229.105469 14.023438 L 229.105469 10.410156 L 230.082031 10.410156 L 230.082031 13.652344 C 230.082031 14.175781 230.109375 14.523438 230.160156 14.6875 C 230.210938 14.953125 230.335938 15.15625 230.53125 15.3125 C 230.738281 15.460938 230.992188 15.527344 231.292969 15.527344 C 231.59375 15.527344 231.871094 15.460938 232.132812 15.3125 C 232.394531 15.15625 232.574219 14.953125 232.679688 14.6875 C 232.785156 14.429688 232.835938 14.042969 232.835938 13.535156 L 232.835938 10.410156 L 233.832031 10.410156 L 233.832031 16.25 Z M 232.953125 16.25 "/>
<path style=" stroke:none;fill-rule:nonzero;fill:rgb(0%,0%,0%);fill-opacity:1;" d="M 237.546875 15.371094 L 237.683594 16.230469 C 237.394531 16.292969 237.148438 16.328125 236.941406 16.328125 C 236.574219 16.328125 236.296875 16.269531 236.101562 16.152344 C 235.90625 16.035156 235.761719 15.890625 235.671875 15.703125 C 235.59375 15.523438 235.554688 15.136719 235.554688 14.550781 L 235.554688 11.191406 L 234.832031 11.191406 L 234.832031 10.410156 L 235.554688 10.410156 L 235.554688 8.964844 L 236.550781 8.378906 L 236.550781 10.410156 L 237.546875 10.410156 L 237.546875 11.191406 L 236.550781 11.191406 L 236.550781 14.589844 C 236.550781 14.878906 236.5625 15.058594 236.589844 15.136719 C 236.628906 15.214844 236.6875 15.28125 236.765625 15.332031 C 236.84375 15.386719 236.953125 15.410156 237.097656 15.410156 C 237.214844 15.410156 237.363281 15.398438 237.546875 15.371094 Z M 237.546875 15.371094 "/>
<path style=" stroke:none;fill-rule:nonzero;fill:rgb(0%,0%,0%);fill-opacity:1;" d="M 238.503906 18.476562 L 238.503906 10.410156 L 239.402344 10.410156 L 239.402344 11.171875 C 239.609375 10.875 239.84375 10.65625 240.105469 10.507812 C 240.378906 10.367188 240.710938 10.292969 241.101562 10.292969 C 241.59375 10.292969 242.03125 10.425781 242.410156 10.683594 C 242.785156 10.933594 243.074219 11.289062 243.269531 11.757812 C 243.464844 12.226562 243.5625 12.734375 243.5625 13.28125 C 243.5625 13.882812 243.449219 14.421875 243.230469 14.902344 C 243.019531 15.386719 242.714844 15.757812 242.3125 16.015625 C 241.90625 16.257812 241.476562 16.386719 241.023438 16.386719 C 240.695312 16.386719 240.402344 16.3125 240.144531 16.171875 C 239.882812 16.03125 239.667969 15.855469 239.5 15.644531 L 239.5 18.476562 Z M 239.402344 13.359375 C 239.402344 14.117188 239.550781 14.679688 239.851562 15.039062 C 240.164062 15.390625 240.535156 15.566406 240.964844 15.566406 C 241.394531 15.566406 241.765625 15.386719 242.078125 15.019531 C 242.402344 14.644531 242.566406 14.0625 242.566406 13.28125 C 242.566406 12.539062 242.410156 11.988281 242.097656 11.621094 C 241.796875 11.246094 241.433594 11.054688 241.003906 11.054688 C 240.585938 11.054688 240.214844 11.257812 239.890625 11.660156 C 239.5625 12.050781 239.402344 12.617188 239.402344 13.359375 Z M 239.402344 13.359375 "/>
<path style=" stroke:none;fill-rule:nonzero;fill:rgb(0%,0%,0%);fill-opacity:1;" d="M 248.585938 16.25 L 248.585938 15.390625 C 248.125 16.054688 247.511719 16.386719 246.730469 16.386719 C 246.386719 16.386719 246.070312 16.316406 245.773438 16.191406 C 245.46875 16.050781 245.246094 15.878906 245.089844 15.683594 C 244.941406 15.488281 244.84375 15.25 244.796875 14.960938 C 244.757812 14.765625 244.738281 14.453125 244.738281 14.023438 L 244.738281 10.410156 L 245.714844 10.410156 L 245.714844 13.652344 C 245.714844 14.175781 245.738281 14.523438 245.792969 14.6875 C 245.839844 14.953125 245.96875 15.15625 246.164062 15.3125 C 246.367188 15.460938 246.621094 15.527344 246.925781 15.527344 C 247.222656 15.527344 247.5 15.460938 247.765625 15.3125 C 248.023438 15.15625 248.203125 14.953125 248.3125 14.6875 C 248.414062 14.429688 248.46875 14.042969 248.46875 13.535156 L 248.46875 10.410156 L 249.464844 10.410156 L 249.464844 16.25 Z M 248.585938 16.25 "/>
<path style=" stroke:none;fill-rule:nonzero;fill:rgb(0%,0%,0%);fill-opacity:1;" d="M 253.179688 15.371094 L 253.316406 16.230469 C 253.027344 16.292969 252.777344 16.328125 252.574219 16.328125 C 252.207031 16.328125 251.929688 16.269531 251.734375 16.152344 C 251.539062 16.035156 251.390625 15.890625 251.304688 15.703125 C 251.226562 15.523438 251.1875 15.136719 251.1875 14.550781 L 251.1875 11.191406 L 250.464844 11.191406 L 250.464844 10.410156 L 251.1875 10.410156 L 251.1875 8.964844 L 252.183594 8.378906 L 252.183594 10.410156 L 253.179688 10.410156 L 253.179688 11.191406 L 252.183594 11.191406 L 252.183594 14.589844 C 252.183594 14.878906 252.191406 15.058594 252.222656 15.136719 C 252.261719 15.214844 252.320312 15.28125 252.398438 15.332031 C 252.476562 15.386719 252.582031 15.410156 252.730469 15.410156 C 252.847656 15.410156 252.992188 15.398438 253.179688 15.371094 Z M 253.179688 15.371094 "/>
<path style=" stroke:none;fill-rule:nonzero;fill:rgb(0%,0%,0%);fill-opacity:1;" d="M 120.1875 16.25 L 120.1875 8.203125 L 121.261719 8.203125 L 121.261719 12.1875 L 125.265625 8.203125 L 126.691406 8.203125 L 123.332031 11.464844 L 126.847656 16.25 L 125.441406 16.25 L 122.570312 12.167969 L 121.261719 13.457031 L 121.261719 16.25 Z M 120.1875 16.25 "/>
<path style=" stroke:none;fill-rule:nonzero;fill:rgb(0%,0%,0%);fill-opacity:1;" d="M 131.59375 14.375 L 132.628906 14.492188 C 132.460938 15.09375 132.152344 15.5625 131.710938 15.898438 C 131.28125 16.226562 130.726562 16.386719 130.050781 16.386719 C 129.203125 16.386719 128.527344 16.128906 128.019531 15.605469 C 127.523438 15.074219 127.277344 14.332031 127.277344 13.378906 C 127.277344 12.402344 127.53125 11.648438 128.039062 11.113281 C 128.546875 10.566406 129.203125 10.292969 130.011719 10.292969 C 130.792969 10.292969 131.425781 10.5625 131.90625 11.09375 C 132.402344 11.617188 132.648438 12.359375 132.648438 13.320312 C 132.648438 13.390625 132.648438 13.476562 132.648438 13.59375 L 128.292969 13.59375 C 128.332031 14.234375 128.515625 14.722656 128.839844 15.058594 C 129.164062 15.398438 129.574219 15.566406 130.070312 15.566406 C 130.433594 15.566406 130.742188 15.476562 130.988281 15.292969 C 131.25 15.097656 131.449219 14.796875 131.59375 14.375 Z M 128.351562 12.773438 L 131.613281 12.773438 C 131.574219 12.28125 131.449219 11.910156 131.242188 11.660156 C 130.929688 11.285156 130.519531 11.09375 130.011719 11.09375 C 129.554688 11.09375 129.171875 11.25 128.859375 11.5625 C 128.558594 11.867188 128.390625 12.265625 128.351562 12.773438 Z M 128.351562 12.773438 "/>
<path style=" stroke:none;fill-rule:nonzero;fill:rgb(0%,0%,0%);fill-opacity:1;" d="M 133.847656 16.25 L 133.847656 10.410156 L 134.746094 10.410156 L 134.746094 11.308594 C 134.96875 10.894531 135.175781 10.621094 135.371094 10.488281 C 135.566406 10.359375 135.78125 10.292969 136.015625 10.292969 C 136.339844 10.292969 136.679688 10.398438 137.03125 10.605469 L 136.679688 11.523438 C 136.445312 11.382812 136.203125 11.308594 135.957031 11.308594 C 135.75 11.308594 135.554688 11.375 135.371094 11.503906 C 135.203125 11.636719 135.078125 11.816406 135 12.050781 C 134.894531 12.402344 134.84375 12.789062 134.84375 13.203125 L 134.84375 16.25 Z M 133.847656 16.25 "/>
<path style=" stroke:none;fill-rule:nonzero;fill:rgb(0%,0%,0%);fill-opacity:1;" d="M 137.613281 16.25 L 137.613281 10.410156 L 138.511719 10.410156 L 138.511719 11.25 C 138.929688 10.617188 139.546875 10.292969 140.367188 10.292969 C 140.71875 10.292969 141.039062 10.359375 141.324219 10.488281 C 141.625 10.605469 141.84375 10.773438 141.988281 10.976562 C 142.132812 11.171875 142.234375 11.414062 142.300781 11.699219 C 142.339844 11.882812 142.359375 12.203125 142.359375 12.65625 L 142.359375 16.25 L 141.363281 16.25 L 141.363281 12.695312 C 141.363281 12.296875 141.324219 11.992188 141.246094 11.796875 C 141.167969 11.601562 141.03125 11.445312 140.835938 11.328125 C 140.640625 11.203125 140.414062 11.132812 140.152344 11.132812 C 139.734375 11.132812 139.371094 11.269531 139.058594 11.542969 C 138.757812 11.804688 138.609375 12.3125 138.609375 13.066406 L 138.609375 16.25 Z M 137.613281 16.25 "/>
<path style=" stroke:none;fill-rule:nonzero;fill:rgb(0%,0%,0%);fill-opacity:1;" d="M 147.855469 14.375 L 148.890625 14.492188 C 148.71875 15.09375 148.414062 15.5625 147.972656 15.898438 C 147.542969 16.226562 146.988281 16.386719 146.3125 16.386719 C 145.464844 16.386719 144.789062 16.128906 144.28125 15.605469 C 143.785156 15.074219 143.539062 14.332031 143.539062 13.378906 C 143.539062 12.402344 143.792969 11.648438 144.300781 11.113281 C 144.808594 10.566406 145.464844 10.292969 146.273438 10.292969 C 147.054688 10.292969 147.683594 10.5625 148.167969 11.09375 C 148.660156 11.617188 148.910156 12.359375 148.910156 13.320312 C 148.910156 13.390625 148.910156 13.476562 148.910156 13.59375 L 144.554688 13.59375 C 144.59375 14.234375 144.773438 14.722656 145.101562 15.058594 C 145.425781 15.398438 145.835938 15.566406 146.332031 15.566406 C 146.695312 15.566406 147 15.476562 147.25 15.292969 C 147.507812 15.097656 147.710938 14.796875 147.855469 14.375 Z M 144.613281 12.773438 L 147.875 12.773438 C 147.835938 12.28125 147.710938 11.910156 147.503906 11.660156 C 147.191406 11.285156 146.78125 11.09375 146.273438 11.09375 C 145.816406 11.09375 145.433594 11.25 145.121094 11.5625 C 144.820312 11.867188 144.652344 12.265625 144.613281 12.773438 Z M 144.613281 12.773438 "/>
<path style=" stroke:none;fill-rule:nonzero;fill:rgb(0%,0%,0%);fill-opacity:1;" d="M 150.109375 16.25 L 150.109375 8.203125 L 151.085938 8.203125 L 151.085938 16.25 Z M 150.109375 16.25 "/>
<path style=" stroke:none;fill-rule:nonzero;fill:rgb(0%,0%,0%);fill-opacity:1;" d="M 24.792969 16.25 L 24.792969 8.203125 L 25.847656 8.203125 L 25.847656 16.25 Z M 24.792969 16.25 "/>
<path style=" stroke:none;fill-rule:nonzero;fill:rgb(0%,0%,0%);fill-opacity:1;" d="M 27.605469 16.25 L 27.605469 10.410156 L 28.503906 10.410156 L 28.503906 11.25 C 28.921875 10.617188 29.539062 10.292969 30.359375 10.292969 C 30.710938 10.292969 31.03125 10.359375 31.316406 10.488281 C 31.617188 10.605469 31.835938 10.773438 31.980469 10.976562 C 32.125 11.171875 32.226562 11.414062 32.292969 11.699219 C 32.332031 11.882812 32.351562 12.203125 32.351562 12.65625 L 32.351562 16.25 L 31.355469 16.25 L 31.355469 12.695312 C 31.355469 12.296875 31.316406 11.992188 31.238281 11.796875 C 31.160156 11.601562 31.023438 11.445312 30.828125 11.328125 C 30.632812 11.203125 30.40625 11.132812 30.144531 11.132812 C 29.726562 11.132812 29.363281 11.269531 29.050781 11.542969 C 28.75 11.804688 28.601562 12.3125 28.601562 13.066406 L 28.601562 16.25 Z M 27.605469 16.25 "/>
<path style=" stroke:none;fill-rule:nonzero;fill:rgb(0%,0%,0%);fill-opacity:1;" d="M 33.859375 18.476562 L 33.859375 10.410156 L 34.757812 10.410156 L 34.757812 11.171875 C 34.964844 10.875 35.199219 10.65625 35.460938 10.507812 C 35.734375 10.367188 36.066406 10.292969 36.457031 10.292969 C 36.949219 10.292969 37.386719 10.425781 37.765625 10.683594 C 38.140625 10.933594 38.429688 11.289062 38.625 11.757812 C 38.820312 12.226562 38.917969 12.734375 38.917969 13.28125 C 38.917969 13.882812 38.804688 14.421875 38.585938 14.902344 C 38.375 15.386719 38.070312 15.757812 37.667969 16.015625 C 37.261719 16.257812 36.832031 16.386719 36.378906 16.386719 C 36.050781 16.386719 35.757812 16.3125 35.5 16.171875 C 35.238281 16.03125 35.023438 15.855469 34.855469 15.644531 L 34.855469 18.476562 Z M 34.757812 13.359375 C 34.757812 14.117188 34.90625 14.679688 35.207031 15.039062 C 35.519531 15.390625 35.890625 15.566406 36.320312 15.566406 C 36.75 15.566406 37.121094 15.386719 37.433594 15.019531 C 37.757812 14.644531 37.921875 14.0625 37.921875 13.28125 C 37.921875 12.539062 37.765625 11.988281 37.453125 11.621094 C 37.152344 11.246094 36.789062 11.054688 36.359375 11.054688 C 35.941406 11.054688 35.570312 11.257812 35.246094 11.660156 C 34.917969 12.050781 34.757812 12.617188 34.757812 13.359375 Z M 34.757812 13.359375 "/>
<path style=" stroke:none;fill-rule:nonzero;fill:rgb(0%,0%,0%);fill-opacity:1;" d="M 43.941406 16.25 L 43.941406 15.390625 C 43.480469 16.054688 42.867188 16.386719 42.085938 16.386719 C 41.742188 16.386719 41.425781 16.316406 41.128906 16.191406 C 40.824219 16.050781 40.601562 15.878906 40.445312 15.683594 C 40.296875 15.488281 40.199219 15.25 40.152344 14.960938 C 40.113281 14.765625 40.09375 14.453125 40.09375 14.023438 L 40.09375 10.410156 L 41.070312 10.410156 L 41.070312 13.652344 C 41.070312 14.175781 41.09375 14.523438 41.148438 14.6875 C 41.195312 14.953125 41.324219 15.15625 41.519531 15.3125 C 41.722656 15.460938 41.976562 15.527344 42.28125 15.527344 C 42.578125 15.527344 42.855469 15.460938 43.121094 15.3125 C 43.378906 15.15625 43.558594 14.953125 43.667969 14.6875 C 43.769531 14.429688 43.824219 14.042969 43.824219 13.535156 L 43.824219 10.410156 L 44.820312 10.410156 L 44.820312 16.25 Z M 43.941406 16.25 "/>
<path style=" stroke:none;fill-rule:nonzero;fill:rgb(0%,0%,0%);fill-opacity:1;" d="M 48.53125 15.371094 L 48.667969 16.230469 C 48.382812 16.292969 48.132812 16.328125 47.925781 16.328125 C 47.5625 16.328125 47.28125 16.269531 47.085938 16.152344 C 46.890625 16.035156 46.746094 15.890625 46.65625 15.703125 C 46.578125 15.523438 46.539062 15.136719 46.539062 14.550781 L 46.539062 11.191406 L 45.816406 11.191406 L 45.816406 10.410156 L 46.539062 10.410156 L 46.539062 8.964844 L 47.535156 8.378906 L 47.535156 10.410156 L 48.53125 10.410156 L 48.53125 11.191406 L 47.535156 11.191406 L 47.535156 14.589844 C 47.535156 14.878906 47.546875 15.058594 47.574219 15.136719 C 47.613281 15.214844 47.671875 15.28125 47.75 15.332031 C 47.828125 15.386719 47.9375 15.410156 48.082031 15.410156 C 48.199219 15.410156 48.347656 15.398438 48.53125 15.371094 Z M 48.53125 15.371094 "/>
</g>
</svg>
