<?xml version="1.0" encoding="UTF-8"?>
<svg xmlns="http://www.w3.org/2000/svg" xmlns:xlink="http://www.w3.org/1999/xlink" width="493pt" height="75pt" viewBox="0 0 493 75" version="1.1">
<g id="surface1">
<path style=" stroke:none;fill-rule:nonzero;fill:rgb(0%,0%,0%);fill-opacity:1;" d="M 202.792969 48.402344 L 203.300781 46.839844 C 204.457031 47.246094 205.300781 47.597656 205.839844 47.894531 C 205.691406 46.582031 205.625 45.667969 205.625 45.160156 L 207.207031 45.160156 C 207.175781 45.894531 207.09375 46.800781 206.953125 47.894531 C 207.703125 47.519531 208.574219 47.167969 209.550781 46.839844 L 210.058594 48.402344 C 209.121094 48.707031 208.207031 48.90625 207.324219 49.007812 C 207.761719 49.398438 208.398438 50.09375 209.21875 51.078125 L 207.890625 52.015625 C 207.460938 51.445312 206.957031 50.660156 206.386719 49.652344 C 205.839844 50.699219 205.359375 51.484375 204.960938 52.015625 L 203.652344 51.078125 C 204.511719 50.039062 205.121094 49.351562 205.488281 49.007812 C 204.535156 48.828125 203.636719 48.628906 202.792969 48.402344 Z M 202.792969 48.402344 "/>
<path style=" stroke:none;fill-rule:nonzero;fill:rgb(0%,0%,0%);fill-opacity:1;" d="M 311.269531 45.824219 L 300.625 45.824219 L 300.625 43.988281 L 311.269531 43.988281 Z M 311.269531 50.707031 L 300.625 50.707031 L 300.625 48.871094 L 311.269531 48.871094 Z M 311.269531 50.707031 "/>
<path style="fill-rule:nonzero;fill:rgb(69.803922%,85.098039%,100%);fill-opacity:1;stroke-width:1;stroke-linecap:round;stroke-linejoin:round;stroke:rgb(0%,0%,0%);stroke-opacity:1;stroke-miterlimit:10;" d="M -49.7625 93.2375 L -28.7625 93.2375 L -28.7625 114.2375 L -49.7625 114.2375 Z M -49.7625 93.2375 " transform="matrix(1.25,0,0,1.25,63.75,-81.25)"/>
<path style=" stroke:none;fill-rule:nonzero;fill:rgb(0%,0%,0%);fill-opacity:1;" d="M 12.011719 47.582031 C 12.011719 46.636719 12.109375 45.863281 12.304688 45.277344 C 12.5 44.691406 12.785156 44.242188 13.164062 43.929688 C 13.554688 43.617188 14.042969 43.460938 14.628906 43.460938 C 15.070312 43.460938 15.457031 43.554688 15.78125 43.734375 C 16.105469 43.90625 16.375 44.15625 16.582031 44.476562 C 16.789062 44.804688 16.953125 45.199219 17.070312 45.667969 C 17.199219 46.136719 17.265625 46.777344 17.265625 47.582031 C 17.265625 48.519531 17.167969 49.28125 16.972656 49.867188 C 16.777344 50.445312 16.484375 50.894531 16.09375 51.214844 C 15.714844 51.527344 15.226562 51.683594 14.628906 51.683594 C 13.859375 51.683594 13.253906 51.40625 12.8125 50.84375 C 12.277344 50.179688 12.011719 49.097656 12.011719 47.582031 Z M 13.027344 47.582031 C 13.027344 48.902344 13.175781 49.78125 13.476562 50.21875 C 13.789062 50.648438 14.171875 50.863281 14.628906 50.863281 C 15.085938 50.863281 15.46875 50.648438 15.78125 50.21875 C 16.09375 49.78125 16.25 48.902344 16.25 47.582031 C 16.25 46.253906 16.09375 45.375 15.78125 44.945312 C 15.46875 44.507812 15.085938 44.28125 14.628906 44.28125 C 14.171875 44.28125 13.808594 44.472656 13.535156 44.847656 C 13.195312 45.347656 13.027344 46.253906 13.027344 47.582031 Z M 13.027344 47.582031 "/>
<path style="fill-rule:nonzero;fill:rgb(69.803922%,85.098039%,100%);fill-opacity:1;stroke-width:1;stroke-linecap:round;stroke-linejoin:round;stroke:rgb(0%,0%,0%);stroke-opacity:1;stroke-miterlimit:10;" d="M -28.7625 93.2375 L -7.7625 93.2375 L -7.7625 114.2375 L -28.7625 114.2375 Z M -28.7625 93.2375 " transform="matrix(1.25,0,0,1.25,63.75,-81.25)"/>
<path style=" stroke:none;fill-rule:nonzero;fill:rgb(0%,0%,0%);fill-opacity:1;" d="M 41.992188 51.546875 L 40.996094 51.546875 L 40.996094 45.238281 C 40.761719 45.472656 40.449219 45.707031 40.058594 45.941406 C 39.667969 46.167969 39.324219 46.328125 39.023438 46.429688 L 39.023438 45.472656 C 39.570312 45.230469 40.050781 44.921875 40.46875 44.554688 C 40.886719 44.179688 41.179688 43.8125 41.347656 43.460938 L 41.992188 43.460938 Z M 41.992188 51.546875 "/>
<path style="fill-rule:nonzero;fill:rgb(100%,100%,100%);fill-opacity:1;stroke-width:1;stroke-linecap:round;stroke-linejoin:round;stroke:rgb(0%,0%,0%);stroke-opacity:1;stroke-miterlimit:10;" d="M -7.7625 93.2375 L 13.2375 93.2375 L 13.2375 114.2375 L -7.7625 114.2375 Z M -7.7625 93.2375 " transform="matrix(1.25,0,0,1.25,63.75,-81.25)"/>
<path style=" stroke:none;fill-rule:nonzero;fill:rgb(0%,0%,0%);fill-opacity:1;" d="M 69.707031 50.589844 L 69.707031 51.546875 L 64.375 51.546875 C 64.375 51.3125 64.414062 51.089844 64.492188 50.863281 C 64.636719 50.503906 64.855469 50.140625 65.15625 49.789062 C 65.457031 49.4375 65.886719 49.039062 66.445312 48.578125 C 67.316406 47.851562 67.902344 47.28125 68.203125 46.859375 C 68.515625 46.445312 68.671875 46.050781 68.671875 45.667969 C 68.671875 45.277344 68.527344 44.957031 68.242188 44.691406 C 67.96875 44.417969 67.609375 44.28125 67.167969 44.28125 C 66.6875 44.28125 66.300781 44.429688 66.015625 44.710938 C 65.730469 45 65.585938 45.394531 65.585938 45.902344 L 64.570312 45.785156 C 64.636719 45.035156 64.894531 44.457031 65.351562 44.066406 C 65.808594 43.667969 66.417969 43.460938 67.1875 43.460938 C 67.957031 43.460938 68.5625 43.675781 69.003906 44.105469 C 69.460938 44.535156 69.6875 45.0625 69.6875 45.6875 C 69.6875 46.015625 69.621094 46.332031 69.492188 46.644531 C 69.363281 46.957031 69.140625 47.289062 68.828125 47.640625 C 68.527344 47.984375 68.027344 48.453125 67.324219 49.046875 C 66.726562 49.546875 66.339844 49.882812 66.171875 50.0625 C 66.003906 50.25 65.867188 50.425781 65.761719 50.589844 Z M 69.707031 50.589844 "/>
<path style="fill-rule:nonzero;fill:rgb(100%,100%,100%);fill-opacity:1;stroke-width:1;stroke-linecap:round;stroke-linejoin:round;stroke:rgb(0%,0%,0%);stroke-opacity:1;stroke-miterlimit:10;" d="M 13.2375 93.2375 L 34.2375 93.2375 L 34.2375 114.2375 L 13.2375 114.2375 Z M 13.2375 93.2375 " transform="matrix(1.25,0,0,1.25,63.75,-81.25)"/>
<path style=" stroke:none;fill-rule:nonzero;fill:rgb(0%,0%,0%);fill-opacity:1;" d="M 90.761719 49.417969 L 91.757812 49.28125 C 91.875 49.84375 92.0625 50.25 92.324219 50.492188 C 92.597656 50.742188 92.9375 50.863281 93.339844 50.863281 C 93.796875 50.863281 94.179688 50.707031 94.492188 50.394531 C 94.816406 50.074219 94.980469 49.667969 94.980469 49.183594 C 94.980469 48.730469 94.832031 48.359375 94.53125 48.070312 C 94.246094 47.773438 93.875 47.621094 93.417969 47.621094 C 93.222656 47.621094 92.988281 47.660156 92.714844 47.738281 L 92.832031 46.859375 C 92.898438 46.875 92.949219 46.878906 92.988281 46.878906 C 93.40625 46.878906 93.78125 46.773438 94.121094 46.546875 C 94.460938 46.328125 94.628906 45.992188 94.628906 45.53125 C 94.628906 45.171875 94.503906 44.867188 94.257812 44.632812 C 94.011719 44.398438 93.691406 44.28125 93.300781 44.28125 C 92.921875 44.28125 92.605469 44.410156 92.34375 44.652344 C 92.097656 44.886719 91.933594 45.25 91.855469 45.726562 L 90.859375 45.550781 C 90.988281 44.886719 91.261719 44.375 91.679688 44.007812 C 92.109375 43.648438 92.644531 43.460938 93.28125 43.460938 C 93.722656 43.460938 94.128906 43.558594 94.492188 43.753906 C 94.871094 43.941406 95.15625 44.195312 95.351562 44.515625 C 95.546875 44.84375 95.644531 45.191406 95.644531 45.550781 C 95.644531 45.902344 95.546875 46.226562 95.351562 46.507812 C 95.167969 46.796875 94.894531 47.027344 94.53125 47.191406 C 95.011719 47.300781 95.382812 47.523438 95.644531 47.875 C 95.90625 48.21875 96.035156 48.648438 96.035156 49.164062 C 96.035156 49.867188 95.773438 50.46875 95.253906 50.960938 C 94.746094 51.445312 94.101562 51.683594 93.320312 51.683594 C 92.617188 51.683594 92.03125 51.480469 91.5625 51.058594 C 91.09375 50.644531 90.828125 50.097656 90.761719 49.417969 Z M 90.761719 49.417969 "/>
<path style="fill-rule:nonzero;fill:rgb(100%,100%,100%);fill-opacity:1;stroke-width:1;stroke-linecap:round;stroke-linejoin:round;stroke:rgb(0%,0%,0%);stroke-opacity:1;stroke-miterlimit:10;" d="M 55.2375 93.2375 L 76.2375 93.2375 L 76.2375 114.2375 L 55.2375 114.2375 Z M 55.2375 93.2375 " transform="matrix(1.25,0,0,1.25,63.75,-81.25)"/>
<path style=" stroke:none;fill-rule:nonzero;fill:rgb(0%,0%,0%);fill-opacity:1;" d="M 143.261719 49.4375 L 144.296875 49.339844 C 144.375 49.847656 144.550781 50.234375 144.824219 50.492188 C 145.109375 50.742188 145.449219 50.863281 145.839844 50.863281 C 146.320312 50.863281 146.726562 50.6875 147.050781 50.335938 C 147.390625 49.976562 147.558594 49.496094 147.558594 48.910156 C 147.558594 48.339844 147.394531 47.890625 147.070312 47.5625 C 146.757812 47.242188 146.347656 47.074219 145.839844 47.074219 C 145.515625 47.074219 145.222656 47.152344 144.960938 47.308594 C 144.714844 47.457031 144.511719 47.636719 144.355469 47.855469 L 143.4375 47.738281 L 144.21875 43.597656 L 148.222656 43.597656 L 148.222656 44.554688 L 145 44.554688 L 144.570312 46.703125 C 145.050781 46.382812 145.558594 46.214844 146.09375 46.214844 C 146.796875 46.214844 147.390625 46.460938 147.871094 46.9375 C 148.351562 47.421875 148.59375 48.046875 148.59375 48.8125 C 148.59375 49.546875 148.386719 50.175781 147.96875 50.707031 C 147.449219 51.363281 146.738281 51.683594 145.839844 51.683594 C 145.109375 51.683594 144.511719 51.484375 144.042969 51.078125 C 143.585938 50.664062 143.328125 50.117188 143.261719 49.4375 Z M 143.261719 49.4375 "/>
<path style="fill-rule:nonzero;fill:rgb(100%,100%,100%);fill-opacity:1;stroke-width:1;stroke-linecap:round;stroke-linejoin:round;stroke:rgb(0%,0%,0%);stroke-opacity:1;stroke-miterlimit:10;" d="M 76.2375 93.2375 L 97.2375 93.2375 L 97.2375 114.2375 L 76.2375 114.2375 Z M 76.2375 93.2375 " transform="matrix(1.25,0,0,1.25,63.75,-81.25)"/>
<path style=" stroke:none;fill-rule:nonzero;fill:rgb(0%,0%,0%);fill-opacity:1;" d="M 174.648438 45.472656 L 173.652344 45.550781 C 173.574219 45.160156 173.449219 44.878906 173.28125 44.691406 C 173.019531 44.417969 172.695312 44.28125 172.304688 44.28125 C 171.980469 44.28125 171.699219 44.371094 171.464844 44.535156 C 171.152344 44.769531 170.90625 45.101562 170.722656 45.53125 C 170.554688 45.960938 170.460938 46.582031 170.449219 47.386719 C 170.683594 47.035156 170.96875 46.777344 171.308594 46.605469 C 171.660156 46.425781 172.023438 46.332031 172.402344 46.332031 C 173.066406 46.332031 173.625 46.578125 174.082031 47.054688 C 174.550781 47.539062 174.785156 48.164062 174.785156 48.929688 C 174.785156 49.4375 174.675781 49.917969 174.453125 50.355469 C 174.230469 50.785156 173.933594 51.117188 173.554688 51.351562 C 173.175781 51.570312 172.746094 51.683594 172.265625 51.683594 C 171.445312 51.683594 170.773438 51.386719 170.253906 50.785156 C 169.734375 50.175781 169.472656 49.175781 169.472656 47.777344 C 169.472656 46.230469 169.757812 45.097656 170.332031 44.378906 C 170.828125 43.769531 171.503906 43.460938 172.363281 43.460938 C 172.988281 43.460938 173.503906 43.648438 173.90625 44.007812 C 174.308594 44.359375 174.558594 44.847656 174.648438 45.472656 Z M 170.605469 48.929688 C 170.605469 49.28125 170.675781 49.613281 170.820312 49.925781 C 170.964844 50.230469 171.164062 50.464844 171.425781 50.628906 C 171.6875 50.785156 171.960938 50.863281 172.246094 50.863281 C 172.664062 50.863281 173.019531 50.703125 173.320312 50.375 C 173.621094 50.039062 173.769531 49.574219 173.769531 48.988281 C 173.769531 48.433594 173.621094 47.992188 173.320312 47.679688 C 173.035156 47.359375 172.664062 47.191406 172.207031 47.191406 C 171.765625 47.191406 171.386719 47.359375 171.074219 47.679688 C 170.761719 47.992188 170.605469 48.414062 170.605469 48.929688 Z M 170.605469 48.929688 "/>
<path style="fill-rule:nonzero;fill:rgb(100%,100%,100%);fill-opacity:1;stroke-width:1;stroke-linecap:round;stroke-linejoin:round;stroke:rgb(0%,0%,0%);stroke-opacity:1;stroke-miterlimit:10;" d="M 34.2375 93.2375 L 55.2375 93.2375 L 55.2375 114.2375 L 34.2375 114.2375 Z M 34.2375 93.2375 " transform="matrix(1.25,0,0,1.25,63.75,-81.25)"/>
<path style=" stroke:none;fill-rule:nonzero;fill:rgb(0%,0%,0%);fill-opacity:1;" d="M 120.175781 51.546875 L 120.175781 49.613281 L 116.679688 49.613281 L 116.679688 48.714844 L 120.351562 43.5 L 121.171875 43.5 L 121.171875 48.714844 L 122.265625 48.714844 L 122.265625 49.613281 L 121.171875 49.613281 L 121.171875 51.546875 Z M 120.175781 48.714844 L 120.175781 45.082031 L 117.65625 48.714844 Z M 120.175781 48.714844 "/>
<path style="fill-rule:nonzero;fill:rgb(69.803922%,85.098039%,100%);fill-opacity:1;stroke-width:1;stroke-linecap:round;stroke-linejoin:round;stroke:rgb(0%,0%,0%);stroke-opacity:1;stroke-miterlimit:10;" d="M 151.325 93.2375 L 172.325 93.2375 L 172.325 114.2375 L 151.325 114.2375 Z M 151.325 93.2375 " transform="matrix(1.25,0,0,1.25,63.75,-81.25)"/>
<path style=" stroke:none;fill-rule:nonzero;fill:rgb(0%,0%,0%);fill-opacity:1;" d="M 268.5625 50.589844 L 268.5625 51.546875 L 263.230469 51.546875 C 263.230469 51.3125 263.269531 51.089844 263.347656 50.863281 C 263.492188 50.503906 263.710938 50.140625 264.011719 49.789062 C 264.3125 49.4375 264.742188 49.039062 265.300781 48.578125 C 266.171875 47.851562 266.757812 47.28125 267.058594 46.859375 C 267.371094 46.445312 267.527344 46.050781 267.527344 45.667969 C 267.527344 45.277344 267.382812 44.957031 267.097656 44.691406 C 266.824219 44.417969 266.464844 44.28125 266.023438 44.28125 C 265.542969 44.28125 265.15625 44.429688 264.871094 44.710938 C 264.585938 45 264.441406 45.394531 264.441406 45.902344 L 263.425781 45.785156 C 263.492188 45.035156 263.75 44.457031 264.207031 44.066406 C 264.664062 43.667969 265.273438 43.460938 266.042969 43.460938 C 266.8125 43.460938 267.417969 43.675781 267.859375 44.105469 C 268.316406 44.535156 268.542969 45.0625 268.542969 45.6875 C 268.542969 46.015625 268.476562 46.332031 268.347656 46.644531 C 268.21875 46.957031 267.996094 47.289062 267.683594 47.640625 C 267.382812 47.984375 266.882812 48.453125 266.179688 49.046875 C 265.582031 49.546875 265.195312 49.882812 265.027344 50.0625 C 264.859375 50.25 264.722656 50.425781 264.617188 50.589844 Z M 268.5625 50.589844 "/>
<path style="fill-rule:nonzero;fill:rgb(69.803922%,85.098039%,100%);fill-opacity:1;stroke-width:1;stroke-linecap:round;stroke-linejoin:round;stroke:rgb(0%,0%,0%);stroke-opacity:1;stroke-miterlimit:10;" d="M 130.325 93.2375 L 151.325 93.2375 L 151.325 114.2375 L 130.325 114.2375 Z M 130.325 93.2375 " transform="matrix(1.25,0,0,1.25,63.75,-81.25)"/>
<path style=" stroke:none;fill-rule:nonzero;fill:rgb(0%,0%,0%);fill-opacity:1;" d="M 240.847656 51.546875 L 239.851562 51.546875 L 239.851562 45.238281 C 239.617188 45.472656 239.304688 45.707031 238.914062 45.941406 C 238.523438 46.167969 238.179688 46.328125 237.878906 46.429688 L 237.878906 45.472656 C 238.425781 45.230469 238.90625 44.921875 239.324219 44.554688 C 239.742188 44.179688 240.035156 43.8125 240.203125 43.460938 L 240.847656 43.460938 Z M 240.847656 51.546875 "/>
<path style="fill-rule:nonzero;fill:rgb(100%,100%,100%);fill-opacity:1;stroke-width:1;stroke-linecap:round;stroke-linejoin:round;stroke:rgb(0%,0%,0%);stroke-opacity:1;stroke-miterlimit:10;" d="M 320.675 93.2375 L 341.675 93.2375 L 341.675 114.2375 L 320.675 114.2375 Z M 320.675 93.2375 " transform="matrix(1.25,0,0,1.25,63.75,-81.25)"/>
<path style=" stroke:none;fill-rule:nonzero;fill:rgb(0%,0%,0%);fill-opacity:1;" d="M 475.664062 51.546875 L 474.667969 51.546875 L 474.667969 45.238281 C 474.433594 45.472656 474.121094 45.707031 473.730469 45.941406 C 473.339844 46.167969 472.992188 46.328125 472.695312 46.429688 L 472.695312 45.472656 C 473.242188 45.230469 473.722656 44.921875 474.140625 44.554688 C 474.554688 44.179688 474.847656 43.8125 475.019531 43.460938 L 475.664062 43.460938 Z M 475.664062 51.546875 "/>
<path style=" stroke:none;fill-rule:nonzero;fill:rgb(0%,0%,0%);fill-opacity:1;" d="M 478.25 44.554688 L 478.25 43.597656 L 483.464844 43.597656 L 483.464844 44.359375 C 482.957031 44.90625 482.449219 45.640625 481.941406 46.546875 C 481.433594 47.445312 481.042969 48.378906 480.769531 49.339844 C 480.574219 50.003906 480.445312 50.742188 480.398438 51.546875 L 479.382812 51.546875 C 479.390625 50.914062 479.519531 50.152344 479.753906 49.261719 C 479.988281 48.363281 480.324219 47.5 480.769531 46.664062 C 481.222656 45.835938 481.695312 45.132812 482.195312 44.554688 Z M 478.25 44.554688 "/>
<path style="fill-rule:nonzero;fill:rgb(69.803922%,85.098039%,100%);fill-opacity:1;stroke-width:1;stroke-linecap:round;stroke-linejoin:round;stroke:rgb(0%,0%,0%);stroke-opacity:1;stroke-miterlimit:10;" d="M 215.675 93.2375 L 236.675 93.2375 L 236.675 114.2375 L 215.675 114.2375 Z M 215.675 93.2375 " transform="matrix(1.25,0,0,1.25,63.75,-81.25)"/>
<path style=" stroke:none;fill-rule:nonzero;fill:rgb(0%,0%,0%);fill-opacity:1;" d="M 349.007812 50.589844 L 349.007812 51.546875 L 343.675781 51.546875 C 343.675781 51.3125 343.714844 51.089844 343.792969 50.863281 C 343.933594 50.503906 344.152344 50.140625 344.457031 49.789062 C 344.753906 49.4375 345.183594 49.039062 345.746094 48.578125 C 346.613281 47.851562 347.199219 47.28125 347.503906 46.859375 C 347.816406 46.445312 347.972656 46.050781 347.972656 45.667969 C 347.972656 45.277344 347.824219 44.957031 347.542969 44.691406 C 347.269531 44.417969 346.90625 44.28125 346.46875 44.28125 C 345.984375 44.28125 345.597656 44.429688 345.316406 44.710938 C 345.027344 45 344.886719 45.394531 344.886719 45.902344 L 343.871094 45.785156 C 343.933594 45.035156 344.191406 44.457031 344.652344 44.066406 C 345.105469 43.667969 345.714844 43.460938 346.488281 43.460938 C 347.253906 43.460938 347.859375 43.675781 348.304688 44.105469 C 348.757812 44.535156 348.988281 45.0625 348.988281 45.6875 C 348.988281 46.015625 348.917969 46.332031 348.792969 46.644531 C 348.660156 46.957031 348.441406 47.289062 348.128906 47.640625 C 347.824219 47.984375 347.328125 48.453125 346.625 49.046875 C 346.023438 49.546875 345.636719 49.882812 345.472656 50.0625 C 345.300781 50.25 345.164062 50.425781 345.0625 50.589844 Z M 349.007812 50.589844 "/>
<path style="fill-rule:nonzero;fill:rgb(100%,100%,100%);fill-opacity:1;stroke-width:1;stroke-linecap:round;stroke-linejoin:round;stroke:rgb(0%,0%,0%);stroke-opacity:1;stroke-miterlimit:10;" d="M 236.675 93.2375 L 257.675 93.2375 L 257.675 114.2375 L 236.675 114.2375 Z M 236.675 93.2375 " transform="matrix(1.25,0,0,1.25,63.75,-81.25)"/>
<path style=" stroke:none;fill-rule:nonzero;fill:rgb(0%,0%,0%);fill-opacity:1;" d="M 370.0625 49.4375 L 371.097656 49.339844 C 371.175781 49.847656 371.351562 50.234375 371.625 50.492188 C 371.90625 50.742188 372.25 50.863281 372.640625 50.863281 C 373.117188 50.863281 373.523438 50.6875 373.851562 50.335938 C 374.1875 49.976562 374.359375 49.496094 374.359375 48.910156 C 374.359375 48.339844 374.191406 47.890625 373.871094 47.5625 C 373.558594 47.242188 373.148438 47.074219 372.640625 47.074219 C 372.3125 47.074219 372.019531 47.152344 371.761719 47.308594 C 371.511719 47.457031 371.3125 47.636719 371.15625 47.855469 L 370.238281 47.738281 L 371.019531 43.597656 L 375.023438 43.597656 L 375.023438 44.554688 L 371.800781 44.554688 L 371.371094 46.703125 C 371.847656 46.382812 372.355469 46.214844 372.894531 46.214844 C 373.597656 46.214844 374.1875 46.460938 374.671875 46.9375 C 375.148438 47.421875 375.394531 48.046875 375.394531 48.8125 C 375.394531 49.546875 375.183594 50.175781 374.769531 50.707031 C 374.246094 51.363281 373.539062 51.683594 372.640625 51.683594 C 371.90625 51.683594 371.3125 51.484375 370.84375 51.078125 C 370.382812 50.664062 370.125 50.117188 370.0625 49.4375 Z M 370.0625 49.4375 "/>
<path style="fill-rule:nonzero;fill:rgb(100%,100%,100%);fill-opacity:1;stroke-width:1;stroke-linecap:round;stroke-linejoin:round;stroke:rgb(0%,0%,0%);stroke-opacity:1;stroke-miterlimit:10;" d="M 257.675 93.2375 L 278.675 93.2375 L 278.675 114.2375 L 257.675 114.2375 Z M 257.675 93.2375 " transform="matrix(1.25,0,0,1.25,63.75,-81.25)"/>
<path style=" stroke:none;fill-rule:nonzero;fill:rgb(0%,0%,0%);fill-opacity:1;" d="M 397.835938 47.171875 C 397.414062 47.03125 397.113281 46.820312 396.917969 46.546875 C 396.722656 46.265625 396.625 45.921875 396.625 45.53125 C 396.625 44.945312 396.828125 44.457031 397.25 44.066406 C 397.679688 43.667969 398.234375 43.460938 398.929688 43.460938 C 399.632812 43.460938 400.199219 43.671875 400.628906 44.085938 C 401.058594 44.492188 401.273438 44.984375 401.273438 45.570312 C 401.273438 45.9375 401.175781 46.265625 400.980469 46.546875 C 400.785156 46.820312 400.480469 47.03125 400.082031 47.171875 C 400.574219 47.34375 400.949219 47.613281 401.214844 47.972656 C 401.472656 48.324219 401.605469 48.75 401.605469 49.242188 C 401.605469 49.9375 401.355469 50.511719 400.863281 50.980469 C 400.378906 51.449219 399.738281 51.683594 398.949219 51.683594 C 398.152344 51.683594 397.507812 51.449219 397.015625 50.980469 C 396.53125 50.511719 396.292969 49.925781 396.292969 49.222656 C 396.292969 48.707031 396.417969 48.265625 396.683594 47.914062 C 396.957031 47.554688 397.335938 47.304688 397.835938 47.171875 Z M 397.640625 45.511719 C 397.640625 45.894531 397.757812 46.207031 397.992188 46.449219 C 398.234375 46.683594 398.558594 46.800781 398.949219 46.800781 C 399.339844 46.800781 399.652344 46.683594 399.886719 46.449219 C 400.128906 46.207031 400.257812 45.902344 400.257812 45.550781 C 400.257812 45.199219 400.128906 44.902344 399.886719 44.652344 C 399.636719 44.410156 399.324219 44.28125 398.949219 44.28125 C 398.566406 44.28125 398.253906 44.410156 398.011719 44.652344 C 397.761719 44.886719 397.640625 45.175781 397.640625 45.511719 Z M 397.308594 49.222656 C 397.308594 49.511719 397.371094 49.785156 397.503906 50.042969 C 397.644531 50.308594 397.84375 50.507812 398.109375 50.648438 C 398.367188 50.796875 398.65625 50.863281 398.96875 50.863281 C 399.4375 50.863281 399.816406 50.71875 400.121094 50.414062 C 400.433594 50.117188 400.589844 49.730469 400.589844 49.261719 C 400.589844 48.785156 400.433594 48.382812 400.121094 48.070312 C 399.808594 47.757812 399.40625 47.601562 398.929688 47.601562 C 398.460938 47.601562 398.070312 47.757812 397.757812 48.070312 C 397.453125 48.382812 397.308594 48.769531 397.308594 49.222656 Z M 397.308594 49.222656 "/>
<path style="fill-rule:nonzero;fill:rgb(100%,100%,100%);fill-opacity:1;stroke-width:1;stroke-linecap:round;stroke-linejoin:round;stroke:rgb(0%,0%,0%);stroke-opacity:1;stroke-miterlimit:10;" d="M 278.675 93.2375 L 299.675 93.2375 L 299.675 114.2375 L 278.675 114.2375 Z M 278.675 93.2375 " transform="matrix(1.25,0,0,1.25,63.75,-81.25)"/>
<path style=" stroke:none;fill-rule:nonzero;fill:rgb(0%,0%,0%);fill-opacity:1;" d="M 423.582031 51.546875 L 422.585938 51.546875 L 422.585938 45.238281 C 422.351562 45.472656 422.039062 45.707031 421.648438 45.941406 C 421.257812 46.167969 420.910156 46.328125 420.613281 46.429688 L 420.613281 45.472656 C 421.160156 45.230469 421.636719 44.921875 422.058594 44.554688 C 422.472656 44.179688 422.765625 43.8125 422.9375 43.460938 L 423.582031 43.460938 Z M 423.582031 51.546875 "/>
<path style=" stroke:none;fill-rule:nonzero;fill:rgb(0%,0%,0%);fill-opacity:1;" d="M 429.003906 51.546875 L 428.007812 51.546875 L 428.007812 45.238281 C 427.773438 45.472656 427.460938 45.707031 427.070312 45.941406 C 426.679688 46.167969 426.332031 46.328125 426.035156 46.429688 L 426.035156 45.472656 C 426.582031 45.230469 427.058594 44.921875 427.480469 44.554688 C 427.894531 44.179688 428.1875 43.8125 428.359375 43.460938 L 429.003906 43.460938 Z M 429.003906 51.546875 "/>
<path style="fill-rule:nonzero;fill:rgb(100%,100%,100%);fill-opacity:1;stroke-width:1;stroke-linecap:round;stroke-linejoin:round;stroke:rgb(0%,0%,0%);stroke-opacity:1;stroke-miterlimit:10;" d="M 299.675 93.2375 L 320.675 93.2375 L 320.675 114.2375 L 299.675 114.2375 Z M 299.675 93.2375 " transform="matrix(1.25,0,0,1.25,63.75,-81.25)"/>
<path style=" stroke:none;fill-rule:nonzero;fill:rgb(0%,0%,0%);fill-opacity:1;" d="M 449.414062 51.546875 L 448.417969 51.546875 L 448.417969 45.238281 C 448.183594 45.472656 447.871094 45.707031 447.480469 45.941406 C 447.089844 46.167969 446.742188 46.328125 446.445312 46.429688 L 446.445312 45.472656 C 446.992188 45.230469 447.472656 44.921875 447.890625 44.554688 C 448.304688 44.179688 448.597656 43.8125 448.769531 43.460938 L 449.414062 43.460938 Z M 449.414062 51.546875 "/>
<path style=" stroke:none;fill-rule:nonzero;fill:rgb(0%,0%,0%);fill-opacity:1;" d="M 455.105469 51.546875 L 455.105469 49.613281 L 451.609375 49.613281 L 451.609375 48.714844 L 455.28125 43.5 L 456.101562 43.5 L 456.101562 48.714844 L 457.195312 48.714844 L 457.195312 49.613281 L 456.101562 49.613281 L 456.101562 51.546875 Z M 455.105469 48.714844 L 455.105469 45.082031 L 452.585938 48.714844 Z M 455.105469 48.714844 "/>
<path style=" stroke:none;fill-rule:nonzero;fill:rgb(0%,0%,0%);fill-opacity:1;" d="M 79.167969 16.25 L 79.167969 8.203125 L 80.222656 8.203125 L 80.222656 16.25 Z M 79.167969 16.25 "/>
<path style=" stroke:none;fill-rule:nonzero;fill:rgb(0%,0%,0%);fill-opacity:1;" d="M 81.980469 16.25 L 81.980469 10.410156 L 82.878906 10.410156 L 82.878906 11.25 C 83.296875 10.617188 83.914062 10.292969 84.734375 10.292969 C 85.085938 10.292969 85.40625 10.359375 85.691406 10.488281 C 85.992188 10.605469 86.210938 10.773438 86.355469 10.976562 C 86.5 11.171875 86.601562 11.414062 86.667969 11.699219 C 86.707031 11.882812 86.726562 12.203125 86.726562 12.65625 L 86.726562 16.25 L 85.730469 16.25 L 85.730469 12.695312 C 85.730469 12.296875 85.691406 11.992188 85.613281 11.796875 C 85.535156 11.601562 85.398438 11.445312 85.203125 11.328125 C 85.007812 11.203125 84.78125 11.132812 84.519531 11.132812 C 84.101562 11.132812 83.738281 11.269531 83.425781 11.542969 C 83.125 11.804688 82.976562 12.3125 82.976562 13.066406 L 82.976562 16.25 Z M 81.980469 16.25 "/>
<path style=" stroke:none;fill-rule:nonzero;fill:rgb(0%,0%,0%);fill-opacity:1;" d="M 88.234375 18.476562 L 88.234375 10.410156 L 89.132812 10.410156 L 89.132812 11.171875 C 89.339844 10.875 89.574219 10.65625 89.835938 10.507812 C 90.109375 10.367188 90.441406 10.292969 90.832031 10.292969 C 91.324219 10.292969 91.761719 10.425781 92.140625 10.683594 C 92.515625 10.933594 92.804688 11.289062 93 11.757812 C 93.195312 12.226562 93.292969 12.734375 93.292969 13.28125 C 93.292969 13.882812 93.179688 14.421875 92.960938 14.902344 C 92.75 15.386719 92.445312 15.757812 92.042969 16.015625 C 91.636719 16.257812 91.207031 16.386719 90.753906 16.386719 C 90.425781 16.386719 90.132812 16.3125 89.875 16.171875 C 89.613281 16.03125 89.398438 15.855469 89.230469 15.644531 L 89.230469 18.476562 Z M 89.132812 13.359375 C 89.132812 14.117188 89.28125 14.679688 89.582031 15.039062 C 89.894531 15.390625 90.265625 15.566406 90.695312 15.566406 C 91.125 15.566406 91.496094 15.386719 91.808594 15.019531 C 92.132812 14.644531 92.296875 14.0625 92.296875 13.28125 C 92.296875 12.539062 92.140625 11.988281 91.828125 11.621094 C 91.527344 11.246094 91.164062 11.054688 90.734375 11.054688 C 90.316406 11.054688 89.945312 11.257812 89.621094 11.660156 C 89.292969 12.050781 89.132812 12.617188 89.132812 13.359375 Z M 89.132812 13.359375 "/>
<path style=" stroke:none;fill-rule:nonzero;fill:rgb(0%,0%,0%);fill-opacity:1;" d="M 98.316406 16.25 L 98.316406 15.390625 C 97.855469 16.054688 97.242188 16.386719 96.460938 16.386719 C 96.117188 16.386719 95.800781 16.320312 95.503906 16.191406 C 95.199219 16.050781 94.976562 15.878906 94.820312 15.683594 C 94.671875 15.488281 94.574219 15.25 94.527344 14.960938 C 94.488281 14.765625 94.46875 14.453125 94.46875 14.023438 L 94.46875 10.410156 L 95.445312 10.410156 L 95.445312 13.652344 C 95.445312 14.175781 95.46875 14.523438 95.523438 14.6875 C 95.570312 14.953125 95.699219 15.15625 95.894531 15.3125 C 96.097656 15.460938 96.351562 15.527344 96.65625 15.527344 C 96.953125 15.527344 97.230469 15.460938 97.496094 15.3125 C 97.753906 15.15625 97.933594 14.953125 98.042969 14.6875 C 98.144531 14.429688 98.199219 14.042969 98.199219 13.535156 L 98.199219 10.410156 L 99.195312 10.410156 L 99.195312 16.25 Z M 98.316406 16.25 "/>
<path style=" stroke:none;fill-rule:nonzero;fill:rgb(0%,0%,0%);fill-opacity:1;" d="M 102.90625 15.371094 L 103.042969 16.230469 C 102.757812 16.292969 102.507812 16.328125 102.300781 16.328125 C 101.9375 16.328125 101.65625 16.269531 101.460938 16.152344 C 101.265625 16.035156 101.121094 15.890625 101.03125 15.703125 C 100.953125 15.523438 100.914062 15.136719 100.914062 14.550781 L 100.914062 11.191406 L 100.191406 11.191406 L 100.191406 10.410156 L 100.914062 10.410156 L 100.914062 8.964844 L 101.910156 8.378906 L 101.910156 10.410156 L 102.90625 10.410156 L 102.90625 11.191406 L 101.910156 11.191406 L 101.910156 14.589844 C 101.910156 14.878906 101.921875 15.058594 101.949219 15.136719 C 101.988281 15.214844 102.046875 15.28125 102.125 15.332031 C 102.203125 15.386719 102.3125 15.410156 102.457031 15.410156 C 102.574219 15.410156 102.722656 15.398438 102.90625 15.371094 Z M 102.90625 15.371094 "/>
<path style=" stroke:none;fill-rule:nonzero;fill:rgb(0%,0%,0%);fill-opacity:1;" d="M 395.757812 12.324219 C 395.757812 10.996094 396.113281 9.957031 396.832031 9.199219 C 397.542969 8.433594 398.472656 8.046875 399.605469 8.046875 C 400.347656 8.046875 401.015625 8.234375 401.617188 8.59375 C 402.210938 8.945312 402.671875 9.445312 402.984375 10.078125 C 403.296875 10.71875 403.453125 11.4375 403.453125 12.226562 C 403.453125 13.046875 403.285156 13.785156 402.964844 14.433594 C 402.636719 15.074219 402.167969 15.5625 401.558594 15.898438 C 400.957031 16.226562 400.308594 16.386719 399.605469 16.386719 C 398.847656 16.386719 398.167969 16.207031 397.574219 15.839844 C 396.972656 15.476562 396.519531 14.976562 396.207031 14.335938 C 395.902344 13.703125 395.757812 13.027344 395.757812 12.324219 Z M 396.851562 12.34375 C 396.851562 13.320312 397.109375 14.09375 397.632812 14.648438 C 398.148438 15.195312 398.808594 15.46875 399.605469 15.46875 C 400.394531 15.46875 401.054688 15.191406 401.578125 14.628906 C 402.09375 14.070312 402.359375 13.273438 402.359375 12.226562 C 402.359375 11.578125 402.246094 11.011719 402.027344 10.527344 C 401.800781 10.035156 401.480469 9.648438 401.050781 9.375 C 400.621094 9.101562 400.140625 8.964844 399.625 8.964844 C 398.867188 8.964844 398.21875 9.226562 397.671875 9.746094 C 397.125 10.269531 396.851562 11.132812 396.851562 12.34375 Z M 396.851562 12.34375 "/>
<path style=" stroke:none;fill-rule:nonzero;fill:rgb(0%,0%,0%);fill-opacity:1;" d="M 408.53125 16.25 L 408.53125 15.390625 C 408.070312 16.054688 407.457031 16.386719 406.675781 16.386719 C 406.332031 16.386719 406.015625 16.320312 405.71875 16.191406 C 405.414062 16.050781 405.191406 15.878906 405.035156 15.683594 C 404.886719 15.488281 404.789062 15.25 404.742188 14.960938 C 404.703125 14.765625 404.683594 14.453125 404.683594 14.023438 L 404.683594 10.410156 L 405.660156 10.410156 L 405.660156 13.652344 C 405.660156 14.175781 405.683594 14.523438 405.738281 14.6875 C 405.785156 14.953125 405.914062 15.15625 406.109375 15.3125 C 406.3125 15.460938 406.566406 15.527344 406.871094 15.527344 C 407.167969 15.527344 407.445312 15.460938 407.710938 15.3125 C 407.96875 15.15625 408.148438 14.953125 408.257812 14.6875 C 408.359375 14.429688 408.414062 14.042969 408.414062 13.535156 L 408.414062 10.410156 L 409.410156 10.410156 L 409.410156 16.25 Z M 408.53125 16.25 "/>
<path style=" stroke:none;fill-rule:nonzero;fill:rgb(0%,0%,0%);fill-opacity:1;" d="M 413.125 15.371094 L 413.261719 16.230469 C 412.972656 16.292969 412.722656 16.328125 412.519531 16.328125 C 412.152344 16.328125 411.875 16.269531 411.679688 16.152344 C 411.484375 16.035156 411.335938 15.890625 411.25 15.703125 C 411.171875 15.523438 411.132812 15.136719 411.132812 14.550781 L 411.132812 11.191406 L 410.410156 11.191406 L 410.410156 10.410156 L 411.132812 10.410156 L 411.132812 8.964844 L 412.128906 8.378906 L 412.128906 10.410156 L 413.125 10.410156 L 413.125 11.191406 L 412.128906 11.191406 L 412.128906 14.589844 C 412.128906 14.878906 412.136719 15.058594 412.167969 15.136719 C 412.207031 15.214844 412.265625 15.28125 412.34375 15.332031 C 412.421875 15.386719 412.527344 15.410156 412.675781 15.410156 C 412.792969 15.410156 412.9375 15.398438 413.125 15.371094 Z M 413.125 15.371094 "/>
<path style=" stroke:none;fill-rule:nonzero;fill:rgb(0%,0%,0%);fill-opacity:1;" d="M 414.082031 18.476562 L 414.082031 10.410156 L 414.980469 10.410156 L 414.980469 11.171875 C 415.183594 10.875 415.417969 10.65625 415.683594 10.507812 C 415.957031 10.367188 416.289062 10.292969 416.679688 10.292969 C 417.171875 10.292969 417.605469 10.425781 417.988281 10.683594 C 418.363281 10.933594 418.652344 11.289062 418.847656 11.757812 C 419.042969 12.226562 419.140625 12.734375 419.140625 13.28125 C 419.140625 13.882812 419.027344 14.421875 418.808594 14.902344 C 418.597656 15.386719 418.289062 15.757812 417.890625 16.015625 C 417.484375 16.257812 417.054688 16.386719 416.601562 16.386719 C 416.273438 16.386719 415.980469 16.3125 415.722656 16.171875 C 415.457031 16.03125 415.242188 15.855469 415.078125 15.644531 L 415.078125 18.476562 Z M 414.980469 13.359375 C 414.980469 14.117188 415.125 14.679688 415.429688 15.039062 C 415.742188 15.390625 416.113281 15.566406 416.542969 15.566406 C 416.972656 15.566406 417.34375 15.386719 417.65625 15.019531 C 417.976562 14.644531 418.144531 14.0625 418.144531 13.28125 C 418.144531 12.539062 417.988281 11.988281 417.675781 11.621094 C 417.371094 11.246094 417.011719 11.054688 416.582031 11.054688 C 416.160156 11.054688 415.789062 11.257812 415.46875 11.660156 C 415.140625 12.050781 414.980469 12.617188 414.980469 13.359375 Z M 414.980469 13.359375 "/>
<path style=" stroke:none;fill-rule:nonzero;fill:rgb(0%,0%,0%);fill-opacity:1;" d="M 424.160156 16.25 L 424.160156 15.390625 C 423.703125 16.054688 423.085938 16.386719 422.304688 16.386719 C 421.964844 16.386719 421.648438 16.320312 421.347656 16.191406 C 421.046875 16.050781 420.820312 15.878906 420.664062 15.683594 C 420.519531 15.488281 420.421875 15.25 420.371094 14.960938 C 420.332031 14.765625 420.3125 14.453125 420.3125 14.023438 L 420.3125 10.410156 L 421.289062 10.410156 L 421.289062 13.652344 C 421.289062 14.175781 421.316406 14.523438 421.367188 14.6875 C 421.417969 14.953125 421.542969 15.15625 421.738281 15.3125 C 421.945312 15.460938 422.199219 15.527344 422.5 15.527344 C 422.800781 15.527344 423.078125 15.460938 423.339844 15.3125 C 423.601562 15.15625 423.78125 14.953125 423.886719 14.6875 C 423.992188 14.429688 424.042969 14.042969 424.042969 13.535156 L 424.042969 10.410156 L 425.039062 10.410156 L 425.039062 16.25 Z M 424.160156 16.25 "/>
<path style=" stroke:none;fill-rule:nonzero;fill:rgb(0%,0%,0%);fill-opacity:1;" d="M 428.753906 15.371094 L 428.890625 16.230469 C 428.601562 16.292969 428.355469 16.328125 428.148438 16.328125 C 427.78125 16.328125 427.503906 16.269531 427.308594 16.152344 C 427.113281 16.035156 426.96875 15.890625 426.878906 15.703125 C 426.800781 15.523438 426.761719 15.136719 426.761719 14.550781 L 426.761719 11.191406 L 426.039062 11.191406 L 426.039062 10.410156 L 426.761719 10.410156 L 426.761719 8.964844 L 427.757812 8.378906 L 427.757812 10.410156 L 428.753906 10.410156 L 428.753906 11.191406 L 427.757812 11.191406 L 427.757812 14.589844 C 427.757812 14.878906 427.769531 15.058594 427.796875 15.136719 C 427.835938 15.214844 427.894531 15.28125 427.972656 15.332031 C 428.050781 15.386719 428.160156 15.410156 428.304688 15.410156 C 428.421875 15.410156 428.570312 15.398438 428.753906 15.371094 Z M 428.753906 15.371094 "/>
<path style=" stroke:none;fill-rule:nonzero;fill:rgb(0%,0%,0%);fill-opacity:1;" d="M 237.464844 16.25 L 237.464844 8.203125 L 238.539062 8.203125 L 238.539062 12.1875 L 242.542969 8.203125 L 243.96875 8.203125 L 240.609375 11.464844 L 244.125 16.25 L 242.71875 16.25 L 239.847656 12.167969 L 238.539062 13.457031 L 238.539062 16.25 Z M 237.464844 16.25 "/>
<path style=" stroke:none;fill-rule:nonzero;fill:rgb(0%,0%,0%);fill-opacity:1;" d="M 248.875 14.375 L 249.910156 14.492188 C 249.738281 15.09375 249.429688 15.5625 248.992188 15.898438 C 248.5625 16.226562 248.003906 16.386719 247.332031 16.386719 C 246.480469 16.386719 245.808594 16.128906 245.300781 15.605469 C 244.800781 15.074219 244.558594 14.332031 244.558594 13.378906 C 244.558594 12.402344 244.8125 11.648438 245.320312 11.113281 C 245.828125 10.566406 246.480469 10.292969 247.292969 10.292969 C 248.074219 10.292969 248.703125 10.5625 249.1875 11.09375 C 249.679688 11.617188 249.929688 12.359375 249.929688 13.320312 C 249.929688 13.390625 249.929688 13.476562 249.929688 13.59375 L 245.574219 13.59375 C 245.613281 14.234375 245.792969 14.722656 246.121094 15.058594 C 246.441406 15.398438 246.851562 15.566406 247.351562 15.566406 C 247.710938 15.566406 248.019531 15.476562 248.269531 15.292969 C 248.527344 15.097656 248.726562 14.796875 248.875 14.375 Z M 245.632812 12.773438 L 248.894531 12.773438 C 248.855469 12.28125 248.726562 11.910156 248.523438 11.660156 C 248.210938 11.285156 247.800781 11.09375 247.292969 11.09375 C 246.832031 11.09375 246.453125 11.25 246.140625 11.5625 C 245.835938 11.867188 245.671875 12.265625 245.632812 12.773438 Z M 245.632812 12.773438 "/>
<path style=" stroke:none;fill-rule:nonzero;fill:rgb(0%,0%,0%);fill-opacity:1;" d="M 251.128906 16.25 L 251.128906 10.410156 L 252.027344 10.410156 L 252.027344 11.308594 C 252.246094 10.894531 252.457031 10.621094 252.652344 10.488281 C 252.847656 10.359375 253.0625 10.292969 253.296875 10.292969 C 253.617188 10.292969 253.960938 10.398438 254.3125 10.605469 L 253.960938 11.523438 C 253.726562 11.382812 253.480469 11.308594 253.238281 11.308594 C 253.027344 11.308594 252.832031 11.375 252.652344 11.503906 C 252.480469 11.636719 252.359375 11.816406 252.28125 12.050781 C 252.171875 12.402344 252.125 12.789062 252.125 13.203125 L 252.125 16.25 Z M 251.128906 16.25 "/>
<path style=" stroke:none;fill-rule:nonzero;fill:rgb(0%,0%,0%);fill-opacity:1;" d="M 254.894531 16.25 L 254.894531 10.410156 L 255.792969 10.410156 L 255.792969 11.25 C 256.207031 10.617188 256.828125 10.292969 257.648438 10.292969 C 258 10.292969 258.316406 10.359375 258.605469 10.488281 C 258.902344 10.605469 259.121094 10.773438 259.269531 10.976562 C 259.410156 11.171875 259.511719 11.414062 259.582031 11.699219 C 259.621094 11.882812 259.640625 12.203125 259.640625 12.65625 L 259.640625 16.25 L 258.644531 16.25 L 258.644531 12.695312 C 258.644531 12.296875 258.605469 11.992188 258.527344 11.796875 C 258.449219 11.601562 258.3125 11.445312 258.117188 11.328125 C 257.921875 11.203125 257.691406 11.132812 257.433594 11.132812 C 257.011719 11.132812 256.652344 11.269531 256.339844 11.542969 C 256.035156 11.804688 255.890625 12.3125 255.890625 13.066406 L 255.890625 16.25 Z M 254.894531 16.25 "/>
<path style=" stroke:none;fill-rule:nonzero;fill:rgb(0%,0%,0%);fill-opacity:1;" d="M 265.132812 14.375 L 266.167969 14.492188 C 266 15.09375 265.691406 15.5625 265.25 15.898438 C 264.820312 16.226562 264.265625 16.386719 263.589844 16.386719 C 262.742188 16.386719 262.066406 16.128906 261.558594 15.605469 C 261.0625 15.074219 260.816406 14.332031 260.816406 13.378906 C 260.816406 12.402344 261.070312 11.648438 261.578125 11.113281 C 262.085938 10.566406 262.742188 10.292969 263.550781 10.292969 C 264.332031 10.292969 264.964844 10.5625 265.445312 11.09375 C 265.941406 11.617188 266.1875 12.359375 266.1875 13.320312 C 266.1875 13.390625 266.1875 13.476562 266.1875 13.59375 L 261.832031 13.59375 C 261.871094 14.234375 262.054688 14.722656 262.378906 15.058594 C 262.703125 15.398438 263.113281 15.566406 263.609375 15.566406 C 263.972656 15.566406 264.28125 15.476562 264.527344 15.292969 C 264.789062 15.097656 264.988281 14.796875 265.132812 14.375 Z M 261.890625 12.773438 L 265.152344 12.773438 C 265.113281 12.28125 264.988281 11.910156 264.78125 11.660156 C 264.46875 11.285156 264.058594 11.09375 263.550781 11.09375 C 263.09375 11.09375 262.710938 11.25 262.398438 11.5625 C 262.097656 11.867188 261.929688 12.265625 261.890625 12.773438 Z M 261.890625 12.773438 "/>
<path style=" stroke:none;fill-rule:nonzero;fill:rgb(0%,0%,0%);fill-opacity:1;" d="M 267.386719 16.25 L 267.386719 8.203125 L 268.363281 8.203125 L 268.363281 16.25 Z M 267.386719 16.25 "/>
</g>
</svg>
