<?xml version="1.0" standalone="yes"?>

<svg version="1.1" viewBox="0.0 0.0 234.1233595800525 133.997375328084" fill="none" stroke="none" stroke-linecap="square" stroke-miterlimit="10" xmlns="http://www.w3.org/2000/svg" xmlns:xlink="http://www.w3.org/1999/xlink"><desc>A 3x3 matrix. Each cell contains a different one-digit integer.</desc><clipPath id="p.0"><path d="m0 0l234.12335 0l0 133.99738l-234.12335 0l0 -133.99738z" clip-rule="nonzero"></path></clipPath><g clip-path="url(#p.0)"><path fill="#000000" fill-opacity="0.0" d="m0 0l234.12335 0l0 133.99738l-234.12335 0z" fill-rule="evenodd"></path><path fill="#fff2cc" d="m3.551232 3.2911034l15.740346 0l0 13.014908l-15.740346 0z" fill-rule="evenodd"></path><path stroke="#000000" stroke-width="1.0" stroke-linejoin="round" stroke-linecap="butt" d="m3.551232 3.2911034l15.740346 0l0 13.014908l-15.740346 0z" fill-rule="evenodd"></path><path fill="#000000" d="m14.894982 11.8798065q0 0.625 -0.28125 1.15625q-0.265625 0.515625 -0.75 0.890625q-0.46875 0.375 -1.125 0.578125q-0.640625 0.203125 -1.40625 0.203125q-0.1875 0 -0.40625 -0.015625q-0.21875 0 -0.4375 -0.015625q-0.203125 -0.015625 -0.40625 -0.03125q-0.203125 -0.015625 -0.375 -0.046875l0 -1.03125q0.359375 0.09375 0.8125 0.140625q0.453125 0.03125 0.90625 0.03125q0.515625 0 0.9375 -0.125q0.421875 -0.125 0.703125 -0.359375q0.296875 -0.234375 0.453125 -0.5625q0.15625 -0.328125 0.15625 -0.734375q0 -0.796875 -0.578125 -1.15625q-0.5625 -0.359375 -1.625 -0.359375l-1.609375 0l0 -4.34375l4.578125 0l0 0.984375l-3.515625 0l0 2.390625l0.75 0q0.609375 0 1.1875 0.109375q0.578125 0.109375 1.03125 0.390625q0.453125 0.265625 0.71875 0.734375q0.28125 0.46875 0.28125 1.171875z" fill-rule="nonzero"></path><path fill="#cfe2f3" d="m34.9366 3.2911034l15.740345 0l0 13.014908l-15.740345 0z" fill-rule="evenodd"></path><path stroke="#000000" stroke-width="1.0" stroke-linejoin="round" stroke-linecap="butt" d="m34.9366 3.2911034l15.740345 0l0 13.014908l-15.740345 0z" fill-rule="evenodd"></path><path fill="#000000" d="m46.420975 14.5985565l-5.34375 0l0 -1.046875l2.1875 0l0 -6.21875l-2.03125 1.109375l-0.421875 -0.96875l2.703125 -1.421875l1.015625 0l0 7.5l1.890625 0l0 1.046875z" fill-rule="nonzero"></path><path fill="#fff2cc" d="m19.304955 3.2911034l15.740349 0l0 13.014908l-15.740349 0z" fill-rule="evenodd"></path><path stroke="#000000" stroke-width="1.0" stroke-linejoin="round" stroke-linecap="butt" d="m19.304955 3.2911034l15.740349 0l0 13.014908l-15.740349 0z" fill-rule="evenodd"></path><path fill="#000000" d="m30.69558 12.0204315q0 0.546875 -0.234375 1.046875q-0.21875 0.484375 -0.671875 0.859375q-0.453125 0.359375 -1.140625 0.578125q-0.6875 0.203125 -1.609375 0.203125q-0.515625 0 -0.921875 -0.03125q-0.390625 -0.03125 -0.75 -0.078125l0 -1.015625q0.40625 0.078125 0.859375 0.125q0.453125 0.03125 0.921875 0.03125q0.625 0 1.078125 -0.109375q0.453125 -0.125 0.734375 -0.328125q0.296875 -0.21875 0.421875 -0.53125q0.140625 -0.3125 0.140625 -0.6875q0 -0.359375 -0.15625 -0.609375q-0.15625 -0.265625 -0.453125 -0.4375q-0.28125 -0.171875 -0.671875 -0.265625q-0.390625 -0.09375 -0.859375 -0.09375l-0.96875 0l0 -0.921875l0.984375 0q0.375 0 0.6875 -0.09375q0.328125 -0.109375 0.546875 -0.296875q0.234375 -0.1875 0.34375 -0.46875q0.125 -0.28125 0.125 -0.625q0 -0.6875 -0.421875 -1.0q-0.40625 -0.3125 -1.21875 -0.3125q-0.421875 0 -0.890625 0.09375q-0.453125 0.078125 -0.96875 0.25l0 -1.0q0.21875 -0.078125 0.46875 -0.140625q0.25 -0.0625 0.5 -0.09375q0.25 -0.046875 0.5 -0.0625q0.25 -0.03125 0.46875 -0.03125q0.6875 0 1.203125 0.15625q0.515625 0.140625 0.859375 0.421875q0.34375 0.265625 0.515625 0.65625q0.171875 0.390625 0.171875 0.875q0 0.734375 -0.375 1.234375q-0.375 0.484375 -1.015625 0.78125q0.328125 0.046875 0.640625 0.203125q0.328125 0.15625 0.578125 0.40625q0.265625 0.234375 0.421875 0.578125q0.15625 0.328125 0.15625 0.734375z" fill-rule="nonzero"></path><path fill="#fff2cc" d="m3.551232 16.238638l15.740346 0l0 13.014906l-15.740346 0z" fill-rule="evenodd"></path><path stroke="#000000" stroke-width="1.0" stroke-linejoin="round" stroke-linecap="butt" d="m3.551232 16.238638l15.740346 0l0 13.014906l-15.740346 0z" fill-rule="evenodd"></path><path fill="#000000" d="m15.113732 25.405466q0 0.546875 -0.21875 0.96875q-0.21875 0.421875 -0.625 0.703125q-0.390625 0.28125 -0.9375 0.4375q-0.53125 0.140625 -1.171875 0.140625q-0.6875 0 -1.21875 -0.140625q-0.53125 -0.15625 -0.890625 -0.4375q-0.359375 -0.28125 -0.546875 -0.65625q-0.171875 -0.390625 -0.171875 -0.859375q0 -0.78125 0.421875 -1.34375q0.4375 -0.5625 1.359375 -1.03125q-0.84375 -0.421875 -1.234375 -0.9375q-0.375 -0.515625 -0.375 -1.1875q0 -0.40625 0.171875 -0.796875q0.171875 -0.390625 0.515625 -0.6875q0.34375 -0.296875 0.84375 -0.46875q0.515625 -0.1875 1.21875 -0.1875q0.65625 0 1.15625 0.140625q0.5 0.140625 0.828125 0.40625q0.34375 0.25 0.515625 0.625q0.171875 0.375 0.171875 0.828125q0 0.734375 -0.421875 1.265625q-0.40625 0.515625 -1.171875 0.90625q0.375 0.1875 0.703125 0.421875q0.328125 0.21875 0.5625 0.5q0.25 0.28125 0.375 0.625q0.140625 0.34375 0.140625 0.765625zm-1.34375 -4.390625q0 -0.578125 -0.40625 -0.859375q-0.40625 -0.28125 -1.15625 -0.28125q-0.71875 0 -1.125 0.28125q-0.40625 0.265625 -0.40625 0.828125q0 0.25 0.09375 0.46875q0.09375 0.21875 0.296875 0.40625q0.21875 0.1875 0.515625 0.375q0.3125 0.171875 0.734375 0.359375q0.734375 -0.34375 1.09375 -0.71875q0.359375 -0.375 0.359375 -0.859375zm0.109375 4.484375q0 -0.25 -0.078125 -0.46875q-0.078125 -0.234375 -0.28125 -0.453125q-0.203125 -0.21875 -0.546875 -0.4375q-0.328125 -0.21875 -0.84375 -0.453125q-0.453125 0.203125 -0.75 0.421875q-0.296875 0.203125 -0.484375 0.421875q-0.1875 0.21875 -0.265625 0.453125q-0.078125 0.234375 -0.078125 0.5q0 0.296875 0.125 0.515625q0.125 0.21875 0.34375 0.375q0.21875 0.15625 0.53125 0.234375q0.3125 0.078125 0.65625 0.078125q0.359375 0 0.65625 -0.0625q0.3125 -0.078125 0.53125 -0.21875q0.21875 -0.140625 0.34375 -0.359375q0.140625 -0.234375 0.140625 -0.546875z" fill-rule="nonzero"></path><path fill="#cfe2f3" d="m34.9366 16.238638l15.740345 0l0 13.014906l-15.740345 0z" fill-rule="evenodd"></path><path stroke="#000000" stroke-width="1.0" stroke-linejoin="round" stroke-linecap="butt" d="m34.9366 16.238638l15.740345 0l0 13.014906l-15.740345 0z" fill-rule="evenodd"></path><path fill="#000000" d="m46.28035 24.827341q0 0.625 -0.28125 1.15625q-0.265625 0.515625 -0.75 0.890625q-0.46875 0.375 -1.125 0.578125q-0.640625 0.203125 -1.40625 0.203125q-0.1875 0 -0.40625 -0.015625q-0.21875 0 -0.4375 -0.015625q-0.203125 -0.015625 -0.40625 -0.03125q-0.203125 -0.015625 -0.375 -0.046875l0 -1.03125q0.359375 0.09375 0.8125 0.140625q0.453125 0.03125 0.90625 0.03125q0.515625 0 0.9375 -0.125q0.421875 -0.125 0.703125 -0.359375q0.296875 -0.234375 0.453125 -0.5625q0.15625 -0.328125 0.15625 -0.734375q0 -0.796875 -0.578125 -1.15625q-0.5625 -0.359375 -1.625 -0.359375l-1.609375 0l0 -4.34375l4.578125 0l0 0.984375l-3.515625 0l0 2.390625l0.75 0q0.609375 0 1.1875 0.109375q0.578125 0.109375 1.03125 0.390625q0.453125 0.265625 0.71875 0.734375q0.28125 0.46875 0.28125 1.171875z" fill-rule="nonzero"></path><path fill="#fff2cc" d="m19.304955 16.238638l15.740349 0l0 13.014906l-15.740349 0z" fill-rule="evenodd"></path><path stroke="#000000" stroke-width="1.0" stroke-linejoin="round" stroke-linecap="butt" d="m19.304955 16.238638l15.740349 0l0 13.014906l-15.740349 0z" fill-rule="evenodd"></path><path fill="#000000" d="m30.867455 27.546091l-5.609375 0l0 -1.015625l2.203125 -2.1875q0.546875 -0.53125 0.875 -0.921875q0.34375 -0.390625 0.53125 -0.703125q0.1875 -0.328125 0.25 -0.609375q0.0625 -0.296875 0.0625 -0.625q0 -0.3125 -0.078125 -0.59375q-0.078125 -0.28125 -0.265625 -0.5q-0.171875 -0.21875 -0.453125 -0.34375q-0.28125 -0.125 -0.671875 -0.125q-0.53125 0 -0.984375 0.25q-0.4375 0.234375 -0.8125 0.625l-0.625 -0.75q0.484375 -0.515625 1.109375 -0.8125q0.640625 -0.3125 1.46875 -0.3125q0.5625 0 1.03125 0.171875q0.46875 0.171875 0.796875 0.5q0.34375 0.3125 0.53125 0.78125q0.1875 0.453125 0.1875 1.03125q0 0.484375 -0.140625 0.90625q-0.125 0.40625 -0.390625 0.828125q-0.265625 0.40625 -0.671875 0.859375q-0.390625 0.4375 -0.9375 0.96875l-1.546875 1.5l4.140625 0l0 1.078125z" fill-rule="nonzero"></path><path fill="#cfe2f3" d="m3.551232 29.285698l15.740346 0l0 13.014908l-15.740346 0z" fill-rule="evenodd"></path><path stroke="#000000" stroke-width="1.0" stroke-linejoin="round" stroke-linecap="butt" d="m3.551232 29.285698l15.740346 0l0 13.014908l-15.740346 0z" fill-rule="evenodd"></path><path fill="#000000" d="m15.066857 35.858776q0 1.25 -0.296875 2.140625q-0.296875 0.890625 -0.890625 1.46875q-0.578125 0.578125 -1.453125 0.859375q-0.859375 0.265625 -2.0 0.265625l-0.703125 0l0 -0.984375l0.78125 0q0.84375 0 1.453125 -0.171875q0.609375 -0.171875 1.015625 -0.5q0.40625 -0.328125 0.625 -0.796875q0.21875 -0.46875 0.265625 -1.078125l0.03125 -0.265625q-0.40625 0.234375 -0.953125 0.390625q-0.53125 0.140625 -1.15625 0.140625q-0.640625 0 -1.125 -0.1875q-0.484375 -0.1875 -0.8125 -0.53125q-0.328125 -0.34375 -0.484375 -0.796875q-0.15625 -0.46875 -0.15625 -1.015625q0 -0.59375 0.203125 -1.109375q0.21875 -0.515625 0.609375 -0.890625q0.390625 -0.390625 0.921875 -0.609375q0.546875 -0.21875 1.1875 -0.21875q0.640625 0 1.171875 0.21875q0.546875 0.203125 0.9375 0.671875q0.390625 0.453125 0.609375 1.203125q0.21875 0.734375 0.21875 1.796875zm-2.984375 -2.953125q-0.359375 0 -0.671875 0.125q-0.3125 0.109375 -0.53125 0.34375q-0.21875 0.234375 -0.359375 0.578125q-0.125 0.328125 -0.125 0.765625q0 0.390625 0.09375 0.703125q0.09375 0.3125 0.28125 0.53125q0.203125 0.21875 0.515625 0.34375q0.3125 0.109375 0.75 0.109375q0.234375 0 0.484375 -0.046875q0.265625 -0.046875 0.5 -0.125q0.25 -0.078125 0.46875 -0.171875q0.234375 -0.109375 0.40625 -0.21875q0 -0.84375 -0.125 -1.40625q-0.125 -0.5625 -0.359375 -0.90625q-0.234375 -0.34375 -0.578125 -0.484375q-0.328125 -0.140625 -0.75 -0.140625z" fill-rule="nonzero"></path><path fill="#cfe2f3" d="m34.9366 29.285698l15.740345 0l0 13.014908l-15.740345 0z" fill-rule="evenodd"></path><path stroke="#000000" stroke-width="1.0" stroke-linejoin="round" stroke-linecap="butt" d="m34.9366 29.285698l15.740345 0l0 13.014908l-15.740345 0z" fill-rule="evenodd"></path><path fill="#000000" d="m46.327225 38.015026q0 0.546875 -0.234375 1.046875q-0.21875 0.484375 -0.671875 0.859375q-0.453125 0.359375 -1.140625 0.578125q-0.6875 0.203125 -1.609375 0.203125q-0.515625 0 -0.921875 -0.03125q-0.390625 -0.03125 -0.75 -0.078125l0 -1.015625q0.40625 0.078125 0.859375 0.125q0.453125 0.03125 0.921875 0.03125q0.625 0 1.078125 -0.109375q0.453125 -0.125 0.734375 -0.328125q0.296875 -0.21875 0.421875 -0.53125q0.140625 -0.3125 0.140625 -0.6875q0 -0.359375 -0.15625 -0.609375q-0.15625 -0.265625 -0.453125 -0.4375q-0.28125 -0.171875 -0.671875 -0.265625q-0.390625 -0.09375 -0.859375 -0.09375l-0.96875 0l0 -0.921875l0.984375 0q0.375 0 0.6875 -0.09375q0.328125 -0.109375 0.546875 -0.296875q0.234375 -0.1875 0.34375 -0.46875q0.125 -0.28125 0.125 -0.625q0 -0.6875 -0.421875 -1.0q-0.40625 -0.3125 -1.21875 -0.3125q-0.421875 0 -0.890625 0.09375q-0.453125 0.078125 -0.96875 0.25l0 -1.0q0.21875 -0.078125 0.46875 -0.140625q0.25 -0.0625 0.5 -0.09375q0.25 -0.046875 0.5 -0.0625q0.25 -0.03125 0.46875 -0.03125q0.6875 0 1.203125 0.15625q0.515625 0.140625 0.859375 0.421875q0.34375 0.265625 0.515625 0.65625q0.171875 0.390625 0.171875 0.875q0 0.734375 -0.375 1.234375q-0.375 0.484375 -1.015625 0.78125q0.328125 0.046875 0.640625 0.203125q0.328125 0.15625 0.578125 0.40625q0.265625 0.234375 0.421875 0.578125q0.15625 0.328125 0.15625 0.734375z" fill-rule="nonzero"></path><path fill="#cfe2f3" d="m19.304955 29.285698l15.740349 0l0 13.014908l-15.740349 0z" fill-rule="evenodd"></path><path stroke="#000000" stroke-width="1.0" stroke-linejoin="round" stroke-linecap="butt" d="m19.304955 29.285698l15.740349 0l0 13.014908l-15.740349 0z" fill-rule="evenodd"></path><path fill="#000000" d="m31.28933 38.71815l-1.453125 0l0 1.875l-1.15625 0l0 -1.875l-4.09375 0l0 -1.0l3.625 -5.625l1.625 0l0 5.625l1.453125 0l0 1.0zm-2.609375 -5.53125l-2.96875 4.53125l2.96875 0l0 -4.53125z" fill-rule="nonzero"></path><path fill="#f4cccc" d="m58.441414 50.374084l17.6063 0l0 13.543308l-17.6063 0z" fill-rule="evenodd"></path><path stroke="#000000" stroke-width="1.0" stroke-linejoin="round" stroke-linecap="butt" d="m58.441414 50.374084l17.6063 0l0 13.543308l-17.6063 0z" fill-rule="evenodd"></path><path fill="#000000" d="m70.143135 59.80511q0 0.546875 -0.21875 0.96875q-0.21875 0.421875 -0.625 0.703125q-0.390625 0.28125 -0.9375 0.4375q-0.53125 0.140625 -1.171875 0.140625q-0.6875 0 -1.21875 -0.140625q-0.53125 -0.15625 -0.890625 -0.4375q-0.359375 -0.28125 -0.546875 -0.65625q-0.171875 -0.390625 -0.171875 -0.859375q0 -0.78125 0.421875 -1.34375q0.4375 -0.5625 1.359375 -1.03125q-0.84375 -0.421875 -1.234375 -0.9375q-0.375 -0.515625 -0.375 -1.1875q0 -0.40625 0.171875 -0.796875q0.171875 -0.390625 0.515625 -0.6875q0.34375 -0.296875 0.84375 -0.46875q0.515625 -0.1875 1.21875 -0.1875q0.65625 0 1.15625 0.140625q0.5 0.140625 0.828125 0.40625q0.34375 0.25 0.515625 0.625q0.171875 0.375 0.171875 0.828125q0 0.734375 -0.421875 1.265625q-0.40625 0.515625 -1.171875 0.90625q0.375 0.1875 0.703125 0.421875q0.328125 0.21875 0.5625 0.5q0.25 0.28125 0.375 0.625q0.140625 0.34375 0.140625 0.765625zm-1.34375 -4.390625q0 -0.578125 -0.40625 -0.859375q-0.40625 -0.28125 -1.15625 -0.28125q-0.71875 0 -1.125 0.28125q-0.40625 0.265625 -0.40625 0.828125q0 0.25 0.09375 0.46875q0.09375 0.21875 0.296875 0.40625q0.21875 0.1875 0.515625 0.375q0.3125 0.171875 0.734375 0.359375q0.734375 -0.34375 1.09375 -0.71875q0.359375 -0.375 0.359375 -0.859375zm0.109375 4.484375q0 -0.25 -0.078125 -0.46875q-0.078125 -0.234375 -0.28125 -0.453125q-0.203125 -0.21875 -0.546875 -0.4375q-0.328125 -0.21875 -0.84375 -0.453125q-0.453125 0.203125 -0.75 0.421875q-0.296875 0.203125 -0.484375 0.421875q-0.1875 0.21875 -0.265625 0.453125q-0.078125 0.234375 -0.078125 0.5q0 0.296875 0.125 0.515625q0.125 0.21875 0.34375 0.375q0.21875 0.15625 0.53125 0.234375q0.3125 0.078125 0.65625 0.078125q0.359375 0 0.65625 -0.0625q0.3125 -0.078125 0.53125 -0.21875q0.21875 -0.140625 0.34375 -0.359375q0.140625 -0.234375 0.140625 -0.546875z" fill-rule="nonzero"></path><path fill="#f4cccc" d="m76.057816 50.374084l17.6063 0l0 13.543308l-17.6063 0z" fill-rule="evenodd"></path><path stroke="#000000" stroke-width="1.0" stroke-linejoin="round" stroke-linecap="butt" d="m76.057816 50.374084l17.6063 0l0 13.543308l-17.6063 0z" fill-rule="evenodd"></path><path fill="#000000" d="m87.54079 59.226986q0 0.625 -0.28125 1.15625q-0.265625 0.515625 -0.75 0.890625q-0.46875 0.375 -1.125 0.578125q-0.640625 0.203125 -1.40625 0.203125q-0.1875 0 -0.40625 -0.015625q-0.21875 0 -0.4375 -0.015625q-0.203125 -0.015625 -0.40625 -0.03125q-0.203125 -0.015625 -0.375 -0.046875l0 -1.03125q0.359375 0.09375 0.8125 0.140625q0.453125 0.03125 0.90625 0.03125q0.515625 0 0.9375 -0.125q0.421875 -0.125 0.703125 -0.359375q0.296875 -0.234375 0.453125 -0.5625q0.15625 -0.328125 0.15625 -0.734375q0 -0.796875 -0.578125 -1.15625q-0.5625 -0.359375 -1.625 -0.359375l-1.609375 0l0 -4.34375l4.578125 0l0 0.984375l-3.515625 0l0 2.390625l0.75 0q0.609375 0 1.1875 0.109375q0.578125 0.109375 1.03125 0.390625q0.453125 0.265625 0.71875 0.734375q0.28125 0.46875 0.28125 1.171875z" fill-rule="nonzero"></path><path fill="#f4cccc" d="m58.441414 63.832508l17.6063 0l0 13.543308l-17.6063 0z" fill-rule="evenodd"></path><path stroke="#000000" stroke-width="1.0" stroke-linejoin="round" stroke-linecap="butt" d="m58.441414 63.832508l17.6063 0l0 13.543308l-17.6063 0z" fill-rule="evenodd"></path><path fill="#000000" d="m70.09626 70.669785q0 1.25 -0.296875 2.140625q-0.296875 0.890625 -0.890625 1.46875q-0.578125 0.578125 -1.453125 0.859375q-0.859375 0.265625 -2.0 0.265625l-0.703125 0l0 -0.984375l0.78125 0q0.84375 0 1.453125 -0.171875q0.609375 -0.171875 1.015625 -0.5q0.40625 -0.328125 0.625 -0.796875q0.21875 -0.46875 0.265625 -1.078125l0.03125 -0.265625q-0.40625 0.234375 -0.953125 0.390625q-0.53125 0.140625 -1.15625 0.140625q-0.640625 0 -1.125 -0.1875q-0.484375 -0.1875 -0.8125 -0.53125q-0.328125 -0.34375 -0.484375 -0.796875q-0.15625 -0.46875 -0.15625 -1.015625q0 -0.59375 0.203125 -1.109375q0.21875 -0.515625 0.609375 -0.890625q0.390625 -0.390625 0.921875 -0.609375q0.546875 -0.21875 1.1875 -0.21875q0.640625 0 1.171875 0.21875q0.546875 0.203125 0.9375 0.671875q0.390625 0.453125 0.609375 1.203125q0.21875 0.734375 0.21875 1.796875zm-2.984375 -2.953125q-0.359375 0 -0.671875 0.125q-0.3125 0.109375 -0.53125 0.34375q-0.21875 0.234375 -0.359375 0.578125q-0.125 0.328125 -0.125 0.765625q0 0.390625 0.09375 0.703125q0.09375 0.3125 0.28125 0.53125q0.203125 0.21875 0.515625 0.34375q0.3125 0.109375 0.75 0.109375q0.234375 0 0.484375 -0.046875q0.265625 -0.046875 0.5 -0.125q0.25 -0.078125 0.46875 -0.171875q0.234375 -0.109375 0.40625 -0.21875q0 -0.84375 -0.125 -1.40625q-0.125 -0.5625 -0.359375 -0.90625q-0.234375 -0.34375 -0.578125 -0.484375q-0.328125 -0.140625 -0.75 -0.140625z" fill-rule="nonzero"></path><path fill="#f4cccc" d="m76.057816 63.832508l17.6063 0l0 13.543308l-17.6063 0z" fill-rule="evenodd"></path><path stroke="#000000" stroke-width="1.0" stroke-linejoin="round" stroke-linecap="butt" d="m76.057816 63.832508l17.6063 0l0 13.543308l-17.6063 0z" fill-rule="evenodd"></path><path fill="#000000" d="m87.54079 72.68541q0 0.625 -0.28125 1.15625q-0.265625 0.515625 -0.75 0.890625q-0.46875 0.375 -1.125 0.578125q-0.640625 0.203125 -1.40625 0.203125q-0.1875 0 -0.40625 -0.015625q-0.21875 0 -0.4375 -0.015625q-0.203125 -0.015625 -0.40625 -0.03125q-0.203125 -0.015625 -0.375 -0.046875l0 -1.03125q0.359375 0.09375 0.8125 0.140625q0.453125 0.03125 0.90625 0.03125q0.515625 0 0.9375 -0.125q0.421875 -0.125 0.703125 -0.359375q0.296875 -0.234375 0.453125 -0.5625q0.15625 -0.328125 0.15625 -0.734375q0 -0.796875 -0.578125 -1.15625q-0.5625 -0.359375 -1.625 -0.359375l-1.609375 0l0 -4.34375l4.578125 0l0 0.984375l-3.515625 0l0 2.390625l0.75 0q0.609375 0 1.1875 0.109375q0.578125 0.109375 1.03125 0.390625q0.453125 0.265625 0.71875 0.734375q0.28125 0.46875 0.28125 1.171875z" fill-rule="nonzero"></path><path fill="#cfe2f3" d="m99.55086 3.2910926l15.740349 0l0 13.014907l-15.740349 0z" fill-rule="evenodd"></path><path stroke="#000000" stroke-width="1.0" stroke-linejoin="round" stroke-linecap="butt" d="m99.55086 3.2910926l15.740349 0l0 13.014907l-15.740349 0z" fill-rule="evenodd"></path><path fill="#000000" d="m110.89461 11.879796q0 0.625 -0.28125 1.15625q-0.265625 0.515625 -0.75 0.890625q-0.46875 0.375 -1.125 0.578125q-0.640625 0.203125 -1.40625 0.203125q-0.1875 0 -0.40625 -0.015625q-0.21875 0 -0.4375 -0.015625q-0.203125 -0.015625 -0.40625 -0.03125q-0.203125 -0.015625 -0.375 -0.046875l0 -1.03125q0.359375 0.09375 0.8125 0.140625q0.453125 0.03125 0.90625 0.03125q0.515625 0 0.9375 -0.125q0.421875 -0.125 0.703125 -0.359375q0.296875 -0.234375 0.453125 -0.5625q0.15625 -0.328125 0.15625 -0.734375q0 -0.796875 -0.578125 -1.15625q-0.5625 -0.359375 -1.625 -0.359375l-1.609375 0l0 -4.34375l4.578125 0l0 0.984375l-3.515625 0l0 2.390625l0.75 0q0.609375 0 1.1875 0.109375q0.578125 0.109375 1.03125 0.390625q0.453125 0.265625 0.71875 0.734375q0.28125 0.46875 0.28125 1.171875z" fill-rule="nonzero"></path><path fill="#fff2cc" d="m130.93623 3.2910926l15.740341 0l0 13.014907l-15.740341 0z" fill-rule="evenodd"></path><path stroke="#000000" stroke-width="1.0" stroke-linejoin="round" stroke-linecap="butt" d="m130.93623 3.2910926l15.740341 0l0 13.014907l-15.740341 0z" fill-rule="evenodd"></path><path fill="#000000" d="m141.12373 13.538547l-4.265625 0l0 -0.84375l1.75 0l0 -4.96875l-1.640625 0.890625l-0.328125 -0.765625l2.15625 -1.140625l0.8125 0l0 5.984375l1.515625 0l0 0.84375z" fill-rule="nonzero"></path><path fill="#fff2cc" d="m115.30458 3.2910926l15.740341 0l0 13.014907l-15.740341 0z" fill-rule="evenodd"></path><path stroke="#000000" stroke-width="1.0" stroke-linejoin="round" stroke-linecap="butt" d="m115.30458 3.2910926l15.740341 0l0 13.014907l-15.740341 0z" fill-rule="evenodd"></path><path fill="#000000" d="m126.695206 12.020421q0 0.546875 -0.234375 1.046875q-0.21875 0.484375 -0.671875 0.859375q-0.453125 0.359375 -1.140625 0.578125q-0.6875 0.203125 -1.609375 0.203125q-0.515625 0 -0.921875 -0.03125q-0.390625 -0.03125 -0.75 -0.078125l0 -1.015625q0.40625 0.078125 0.859375 0.125q0.453125 0.03125 0.921875 0.03125q0.625 0 1.078125 -0.109375q0.453125 -0.125 0.734375 -0.328125q0.296875 -0.21875 0.421875 -0.53125q0.140625 -0.3125 0.140625 -0.6875q0 -0.359375 -0.15625 -0.609375q-0.15625 -0.265625 -0.453125 -0.4375q-0.28125 -0.171875 -0.671875 -0.265625q-0.390625 -0.09375 -0.859375 -0.09375l-0.96875 0l0 -0.921875l0.984375 0q0.375 0 0.6875 -0.09375q0.328125 -0.109375 0.546875 -0.296875q0.234375 -0.1875 0.34375 -0.46875q0.125 -0.28125 0.125 -0.625q0 -0.6875 -0.421875 -1.0q-0.40625 -0.3125 -1.21875 -0.3125q-0.421875 0 -0.890625 0.09375q-0.453125 0.078125 -0.96875 0.25l0 -1.0q0.21875 -0.078125 0.46875 -0.140625q0.25 -0.0625 0.5 -0.09375q0.25 -0.046875 0.5 -0.0625q0.25 -0.03125 0.46875 -0.03125q0.6875 0 1.203125 0.15625q0.515625 0.140625 0.859375 0.421875q0.34375 0.265625 0.515625 0.65625q0.171875 0.390625 0.171875 0.875q0 0.734375 -0.375 1.234375q-0.375 0.484375 -1.015625 0.78125q0.328125 0.046875 0.640625 0.203125q0.328125 0.15625 0.578125 0.40625q0.265625 0.234375 0.421875 0.578125q0.15625 0.328125 0.15625 0.734375z" fill-rule="nonzero"></path><path fill="#cfe2f3" d="m99.55086 16.238626l15.740349 0l0 13.014908l-15.740349 0z" fill-rule="evenodd"></path><path stroke="#000000" stroke-width="1.0" stroke-linejoin="round" stroke-linecap="butt" d="m99.55086 16.238626l15.740349 0l0 13.014908l-15.740349 0z" fill-rule="evenodd"></path><path fill="#000000" d="m111.11336 25.405455q0 0.546875 -0.21875 0.96875q-0.21875 0.421875 -0.625 0.703125q-0.390625 0.28125 -0.9375 0.4375q-0.53125 0.140625 -1.171875 0.140625q-0.6875 0 -1.21875 -0.140625q-0.53125 -0.15625 -0.890625 -0.4375q-0.359375 -0.28125 -0.546875 -0.65625q-0.171875 -0.390625 -0.171875 -0.859375q0 -0.78125 0.421875 -1.34375q0.4375 -0.5625 1.359375 -1.03125q-0.84375 -0.421875 -1.234375 -0.9375q-0.375 -0.515625 -0.375 -1.1875q0 -0.40625 0.171875 -0.796875q0.171875 -0.390625 0.515625 -0.6875q0.34375 -0.296875 0.84375 -0.46875q0.515625 -0.1875 1.21875 -0.1875q0.65625 0 1.15625 0.140625q0.5 0.140625 0.828125 0.40625q0.34375 0.25 0.515625 0.625q0.171875 0.375 0.171875 0.828125q0 0.734375 -0.421875 1.265625q-0.40625 0.515625 -1.171875 0.90625q0.375 0.1875 0.703125 0.421875q0.328125 0.21875 0.5625 0.5q0.25 0.28125 0.375 0.625q0.140625 0.34375 0.140625 0.765625zm-1.34375 -4.390625q0 -0.578125 -0.40625 -0.859375q-0.40625 -0.28125 -1.15625 -0.28125q-0.71875 0 -1.125 0.28125q-0.40625 0.265625 -0.40625 0.828125q0 0.25 0.09375 0.46875q0.09375 0.21875 0.296875 0.40625q0.21875 0.1875 0.515625 0.375q0.3125 0.171875 0.734375 0.359375q0.734375 -0.34375 1.09375 -0.71875q0.359375 -0.375 0.359375 -0.859375zm0.109375 4.484375q0 -0.25 -0.078125 -0.46875q-0.078125 -0.234375 -0.28125 -0.453125q-0.203125 -0.21875 -0.546875 -0.4375q-0.328125 -0.21875 -0.84375 -0.453125q-0.453125 0.203125 -0.75 0.421875q-0.296875 0.203125 -0.484375 0.421875q-0.1875 0.21875 -0.265625 0.453125q-0.078125 0.234375 -0.078125 0.5q0 0.296875 0.125 0.515625q0.125 0.21875 0.34375 0.375q0.21875 0.15625 0.53125 0.234375q0.3125 0.078125 0.65625 0.078125q0.359375 0 0.65625 -0.0625q0.3125 -0.078125 0.53125 -0.21875q0.21875 -0.140625 0.34375 -0.359375q0.140625 -0.234375 0.140625 -0.546875z" fill-rule="nonzero"></path><path fill="#fff2cc" d="m130.93623 16.238626l15.740341 0l0 13.014908l-15.740341 0z" fill-rule="evenodd"></path><path stroke="#000000" stroke-width="1.0" stroke-linejoin="round" stroke-linecap="butt" d="m130.93623 16.238626l15.740341 0l0 13.014908l-15.740341 0z" fill-rule="evenodd"></path><path fill="#000000" d="m141.01436 24.314205q0 0.5 -0.21875 0.921875q-0.21875 0.40625 -0.609375 0.71875q-0.375 0.296875 -0.90625 0.46875q-0.515625 0.15625 -1.109375 0.15625q-0.15625 0 -0.328125 -0.015625q-0.171875 0 -0.34375 -0.015625q-0.171875 -0.015625 -0.34375 -0.03125q-0.15625 -0.015625 -0.296875 -0.03125l0 -0.828125q0.28125 0.078125 0.640625 0.109375q0.375 0.03125 0.734375 0.03125q0.421875 0 0.75 -0.09375q0.328125 -0.109375 0.5625 -0.296875q0.234375 -0.1875 0.359375 -0.4375q0.125 -0.265625 0.125 -0.59375q0 -0.640625 -0.453125 -0.921875q-0.453125 -0.296875 -1.296875 -0.296875l-1.296875 0l0 -3.46875l3.65625 0l0 0.78125l-2.796875 0l0 1.921875l0.59375 0q0.484375 0 0.9375 0.09375q0.46875 0.078125 0.828125 0.296875q0.359375 0.21875 0.578125 0.59375q0.234375 0.375 0.234375 0.9375z" fill-rule="nonzero"></path><path fill="#fff2cc" d="m115.30458 16.238626l15.740341 0l0 13.014908l-15.740341 0z" fill-rule="evenodd"></path><path stroke="#000000" stroke-width="1.0" stroke-linejoin="round" stroke-linecap="butt" d="m115.30458 16.238626l15.740341 0l0 13.014908l-15.740341 0z" fill-rule="evenodd"></path><path fill="#000000" d="m126.86708 27.54608l-5.609375 0l0 -1.015625l2.203125 -2.1875q0.546875 -0.53125 0.875 -0.921875q0.34375 -0.390625 0.53125 -0.703125q0.1875 -0.328125 0.25 -0.609375q0.0625 -0.296875 0.0625 -0.625q0 -0.3125 -0.078125 -0.59375q-0.078125 -0.28125 -0.265625 -0.5q-0.171875 -0.21875 -0.453125 -0.34375q-0.28125 -0.125 -0.671875 -0.125q-0.53125 0 -0.984375 0.25q-0.4375 0.234375 -0.8125 0.625l-0.625 -0.75q0.484375 -0.515625 1.109375 -0.8125q0.640625 -0.3125 1.46875 -0.3125q0.5625 0 1.03125 0.171875q0.46875 0.171875 0.796875 0.5q0.34375 0.3125 0.53125 0.78125q0.1875 0.453125 0.1875 1.03125q0 0.484375 -0.140625 0.90625q-0.125 0.40625 -0.390625 0.828125q-0.265625 0.40625 -0.671875 0.859375q-0.390625 0.4375 -0.9375 0.96875l-1.546875 1.5l4.140625 0l0 1.078125z" fill-rule="nonzero"></path><path fill="#cfe2f3" d="m99.55086 29.285686l15.740349 0l0 13.014908l-15.740349 0z" fill-rule="evenodd"></path><path stroke="#000000" stroke-width="1.0" stroke-linejoin="round" stroke-linecap="butt" d="m99.55086 29.285686l15.740349 0l0 13.014908l-15.740349 0z" fill-rule="evenodd"></path><path fill="#000000" d="m111.06648 35.858765q0 1.25 -0.296875 2.140625q-0.296875 0.890625 -0.890625 1.46875q-0.578125 0.578125 -1.453125 0.859375q-0.859375 0.265625 -2.0 0.265625l-0.703125 0l0 -0.984375l0.78125 0q0.84375 0 1.453125 -0.171875q0.609375 -0.171875 1.015625 -0.5q0.40625 -0.328125 0.625 -0.796875q0.21875 -0.46875 0.265625 -1.078125l0.03125 -0.265625q-0.40625 0.234375 -0.953125 0.390625q-0.53125 0.140625 -1.15625 0.140625q-0.640625 0 -1.125 -0.1875q-0.484375 -0.1875 -0.8125 -0.53125q-0.328125 -0.34375 -0.484375 -0.796875q-0.15625 -0.46875 -0.15625 -1.015625q0 -0.59375 0.203125 -1.109375q0.21875 -0.515625 0.609375 -0.890625q0.390625 -0.390625 0.921875 -0.609375q0.546875 -0.21875 1.1875 -0.21875q0.640625 0 1.171875 0.21875q0.546875 0.203125 0.9375 0.671875q0.390625 0.453125 0.609375 1.203125q0.21875 0.734375 0.21875 1.796875zm-2.984375 -2.953125q-0.359375 0 -0.671875 0.125q-0.3125 0.109375 -0.53125 0.34375q-0.21875 0.234375 -0.359375 0.578125q-0.125 0.328125 -0.125 0.765625q0 0.390625 0.09375 0.703125q0.09375 0.3125 0.28125 0.53125q0.203125 0.21875 0.515625 0.34375q0.3125 0.109375 0.75 0.109375q0.234375 0 0.484375 -0.046875q0.265625 -0.046875 0.5 -0.125q0.25 -0.078125 0.46875 -0.171875q0.234375 -0.109375 0.40625 -0.21875q0 -0.84375 -0.125 -1.40625q-0.125 -0.5625 -0.359375 -0.90625q-0.234375 -0.34375 -0.578125 -0.484375q-0.328125 -0.140625 -0.75 -0.140625z" fill-rule="nonzero"></path><path fill="#cfe2f3" d="m130.93623 29.285686l15.740341 0l0 13.014908l-15.740341 0z" fill-rule="evenodd"></path><path stroke="#000000" stroke-width="1.0" stroke-linejoin="round" stroke-linecap="butt" d="m130.93623 29.285686l15.740341 0l0 13.014908l-15.740341 0z" fill-rule="evenodd"></path><path fill="#000000" d="m142.32686 38.015015q0 0.546875 -0.234375 1.046875q-0.21875 0.484375 -0.671875 0.859375q-0.453125 0.359375 -1.140625 0.578125q-0.6875 0.203125 -1.609375 0.203125q-0.515625 0 -0.921875 -0.03125q-0.390625 -0.03125 -0.75 -0.078125l0 -1.015625q0.40625 0.078125 0.859375 0.125q0.453125 0.03125 0.921875 0.03125q0.625 0 1.078125 -0.109375q0.453125 -0.125 0.734375 -0.328125q0.296875 -0.21875 0.421875 -0.53125q0.140625 -0.3125 0.140625 -0.6875q0 -0.359375 -0.15625 -0.609375q-0.15625 -0.265625 -0.453125 -0.4375q-0.28125 -0.171875 -0.671875 -0.265625q-0.390625 -0.09375 -0.859375 -0.09375l-0.96875 0l0 -0.921875l0.984375 0q0.375 0 0.6875 -0.09375q0.328125 -0.109375 0.546875 -0.296875q0.234375 -0.1875 0.34375 -0.46875q0.125 -0.28125 0.125 -0.625q0 -0.6875 -0.421875 -1.0q-0.40625 -0.3125 -1.21875 -0.3125q-0.421875 0 -0.890625 0.09375q-0.453125 0.078125 -0.96875 0.25l0 -1.0q0.21875 -0.078125 0.46875 -0.140625q0.25 -0.0625 0.5 -0.09375q0.25 -0.046875 0.5 -0.0625q0.25 -0.03125 0.46875 -0.03125q0.6875 0 1.203125 0.15625q0.515625 0.140625 0.859375 0.421875q0.34375 0.265625 0.515625 0.65625q0.171875 0.390625 0.171875 0.875q0 0.734375 -0.375 1.234375q-0.375 0.484375 -1.015625 0.78125q0.328125 0.046875 0.640625 0.203125q0.328125 0.15625 0.578125 0.40625q0.265625 0.234375 0.421875 0.578125q0.15625 0.328125 0.15625 0.734375z" fill-rule="nonzero"></path><path fill="#cfe2f3" d="m115.30458 29.285686l15.740341 0l0 13.014908l-15.740341 0z" fill-rule="evenodd"></path><path stroke="#000000" stroke-width="1.0" stroke-linejoin="round" stroke-linecap="butt" d="m115.30458 29.285686l15.740341 0l0 13.014908l-15.740341 0z" fill-rule="evenodd"></path><path fill="#000000" d="m127.288956 38.71814l-1.453125 0l0 1.875l-1.15625 0l0 -1.875l-4.09375 0l0 -1.0l3.625 -5.625l1.625 0l0 5.625l1.453125 0l0 1.0zm-2.609375 -5.53125l-2.96875 4.53125l2.96875 0l0 -4.53125z" fill-rule="nonzero"></path><path fill="#cfe2f3" d="m3.5512447 85.60658l15.740347 0l0 12.208107l-15.740347 0z" fill-rule="evenodd"></path><path stroke="#000000" stroke-width="1.0" stroke-linejoin="round" stroke-linecap="butt" d="m3.5512447 85.60658l15.740347 0l0 12.208107l-15.740347 0z" fill-rule="evenodd"></path><path fill="#000000" d="m14.894995 93.791885q0 0.625 -0.28125 1.15625q-0.265625 0.515625 -0.75 0.890625q-0.46875 0.375 -1.125 0.578125q-0.640625 0.203125 -1.40625 0.203125q-0.1875 0 -0.40625 -0.015625q-0.21875 0 -0.4375 -0.015625q-0.203125 -0.015625 -0.40625 -0.03125q-0.203125 -0.015625 -0.375 -0.046875l0 -1.03125q0.359375 0.09375 0.8125 0.140625q0.453125 0.03125 0.90625 0.03125q0.515625 0 0.9375 -0.125q0.421875 -0.125 0.703125 -0.359375q0.296875 -0.234375 0.453125 -0.5625q0.15625 -0.328125 0.15625 -0.734375q0 -0.796875 -0.578125 -1.15625q-0.5625 -0.359375 -1.625 -0.359375l-1.609375 0l0 -4.34375l4.578125 0l0 0.984375l-3.515625 0l0 2.390625l0.75 0q0.609375 0 1.1875 0.109375q0.578125 0.109375 1.03125 0.390625q0.453125 0.265625 0.71875 0.734375q0.28125 0.46875 0.28125 1.171875z" fill-rule="nonzero"></path><path fill="#cfe2f3" d="m34.93661 85.60658l15.740349 0l0 12.208107l-15.740349 0z" fill-rule="evenodd"></path><path stroke="#000000" stroke-width="1.0" stroke-linejoin="round" stroke-linecap="butt" d="m34.93661 85.60658l15.740349 0l0 12.208107l-15.740349 0z" fill-rule="evenodd"></path><path fill="#000000" d="m46.420986 96.510635l-5.34375 0l0 -1.046875l2.1875 0l0 -6.21875l-2.03125 1.109375l-0.421875 -0.96875l2.703125 -1.421875l1.015625 0l0 7.5l1.890625 0l0 1.046875z" fill-rule="nonzero"></path><path fill="#cfe2f3" d="m19.304968 85.60658l15.740347 0l0 12.208107l-15.740347 0z" fill-rule="evenodd"></path><path stroke="#000000" stroke-width="1.0" stroke-linejoin="round" stroke-linecap="butt" d="m19.304968 85.60658l15.740347 0l0 12.208107l-15.740347 0z" fill-rule="evenodd"></path><path fill="#000000" d="m30.695593 93.93251q0 0.546875 -0.234375 1.046875q-0.21875 0.484375 -0.671875 0.859375q-0.453125 0.359375 -1.140625 0.578125q-0.6875 0.203125 -1.609375 0.203125q-0.515625 0 -0.921875 -0.03125q-0.390625 -0.03125 -0.75 -0.078125l0 -1.015625q0.40625 0.078125 0.859375 0.125q0.453125 0.03125 0.921875 0.03125q0.625 0 1.078125 -0.109375q0.453125 -0.125 0.734375 -0.328125q0.296875 -0.21875 0.421875 -0.53125q0.140625 -0.3125 0.140625 -0.6875q0 -0.359375 -0.15625 -0.609375q-0.15625 -0.265625 -0.453125 -0.4375q-0.28125 -0.171875 -0.671875 -0.265625q-0.390625 -0.09375 -0.859375 -0.09375l-0.96875 0l0 -0.921875l0.984375 0q0.375 0 0.6875 -0.09375q0.328125 -0.109375 0.546875 -0.296875q0.234375 -0.1875 0.34375 -0.46875q0.125 -0.28125 0.125 -0.625q0 -0.6875 -0.421875 -1.0q-0.40625 -0.3125 -1.21875 -0.3125q-0.421875 0 -0.890625 0.09375q-0.453125 0.078125 -0.96875 0.25l0 -1.0q0.21875 -0.078125 0.46875 -0.140625q0.25 -0.0625 0.5 -0.09375q0.25 -0.046875 0.5 -0.0625q0.25 -0.03125 0.46875 -0.03125q0.6875 0 1.203125 0.15625q0.515625 0.140625 0.859375 0.421875q0.34375 0.265625 0.515625 0.65625q0.171875 0.390625 0.171875 0.875q0 0.734375 -0.375 1.234375q-0.375 0.484375 -1.015625 0.78125q0.328125 0.046875 0.640625 0.203125q0.328125 0.15625 0.578125 0.40625q0.265625 0.234375 0.421875 0.578125q0.15625 0.328125 0.15625 0.734375z" fill-rule="nonzero"></path><path fill="#fff2cc" d="m3.5512447 97.751495l15.740347 0l0 12.208115l-15.740347 0z" fill-rule="evenodd"></path><path stroke="#000000" stroke-width="1.0" stroke-linejoin="round" stroke-linecap="butt" d="m3.5512447 97.751495l15.740347 0l0 12.208115l-15.740347 0z" fill-rule="evenodd"></path><path fill="#000000" d="m15.113745 106.51492q0 0.546875 -0.21875 0.96875q-0.21875 0.421875 -0.625 0.703125q-0.390625 0.28125 -0.9375 0.4375q-0.53125 0.140625 -1.171875 0.140625q-0.6875 0 -1.21875 -0.140625q-0.53125 -0.15625 -0.890625 -0.4375q-0.359375 -0.28125 -0.546875 -0.65625q-0.171875 -0.390625 -0.171875 -0.859375q0 -0.78125 0.421875 -1.34375q0.4375 -0.5625 1.359375 -1.03125q-0.84375 -0.421875 -1.234375 -0.9375q-0.375 -0.515625 -0.375 -1.1875q0 -0.40625 0.171875 -0.796875q0.171875 -0.390625 0.515625 -0.6875q0.34375 -0.296875 0.84375 -0.46875q0.515625 -0.1875 1.21875 -0.1875q0.65625 0 1.15625 0.140625q0.5 0.140625 0.828125 0.40625q0.34375 0.25 0.515625 0.625q0.171875 0.375 0.171875 0.828125q0 0.734375 -0.421875 1.265625q-0.40625 0.515625 -1.171875 0.90625q0.375 0.1875 0.703125 0.421875q0.328125 0.21875 0.5625 0.5q0.25 0.28125 0.375 0.625q0.140625 0.34375 0.140625 0.765625zm-1.34375 -4.390625q0 -0.578125 -0.40625 -0.859375q-0.40625 -0.28125 -1.15625 -0.28125q-0.71875 0 -1.125 0.28125q-0.40625 0.265625 -0.40625 0.828125q0 0.25 0.09375 0.46875q0.09375 0.21875 0.296875 0.40625q0.21875 0.1875 0.515625 0.375q0.3125 0.171875 0.734375 0.359375q0.734375 -0.34375 1.09375 -0.71875q0.359375 -0.375 0.359375 -0.859375zm0.109375 4.484375q0 -0.25 -0.078125 -0.46875q-0.078125 -0.234375 -0.28125 -0.453125q-0.203125 -0.21875 -0.546875 -0.4375q-0.328125 -0.21875 -0.84375 -0.453125q-0.453125 0.203125 -0.75 0.421875q-0.296875 0.203125 -0.484375 0.421875q-0.1875 0.21875 -0.265625 0.453125q-0.078125 0.234375 -0.078125 0.5q0 0.296875 0.125 0.515625q0.125 0.21875 0.34375 0.375q0.21875 0.15625 0.53125 0.234375q0.3125 0.078125 0.65625 0.078125q0.359375 0 0.65625 -0.0625q0.3125 -0.078125 0.53125 -0.21875q0.21875 -0.140625 0.34375 -0.359375q0.140625 -0.234375 0.140625 -0.546875z" fill-rule="nonzero"></path><path fill="#cfe2f3" d="m34.93661 97.751495l15.740349 0l0 12.208115l-15.740349 0z" fill-rule="evenodd"></path><path stroke="#000000" stroke-width="1.0" stroke-linejoin="round" stroke-linecap="butt" d="m34.93661 97.751495l15.740349 0l0 12.208115l-15.740349 0z" fill-rule="evenodd"></path><path fill="#000000" d="m46.28036 105.9368q0 0.625 -0.28125 1.15625q-0.265625 0.515625 -0.75 0.890625q-0.46875 0.375 -1.125 0.578125q-0.640625 0.203125 -1.40625 0.203125q-0.1875 0 -0.40625 -0.015625q-0.21875 0 -0.4375 -0.015625q-0.203125 -0.015625 -0.40625 -0.03125q-0.203125 -0.015625 -0.375 -0.046875l0 -1.03125q0.359375 0.09375 0.8125 0.140625q0.453125 0.03125 0.90625 0.03125q0.515625 0 0.9375 -0.125q0.421875 -0.125 0.703125 -0.359375q0.296875 -0.234375 0.453125 -0.5625q0.15625 -0.328125 0.15625 -0.734375q0 -0.796875 -0.578125 -1.15625q-0.5625 -0.359375 -1.625 -0.359375l-1.609375 0l0 -4.34375l4.578125 0l0 0.984375l-3.515625 0l0 2.390625l0.75 0q0.609375 0 1.1875 0.109375q0.578125 0.109375 1.03125 0.390625q0.453125 0.265625 0.71875 0.734375q0.28125 0.46875 0.28125 1.171875z" fill-rule="nonzero"></path><path fill="#fff2cc" d="m19.304968 97.751495l15.740347 0l0 12.208115l-15.740347 0z" fill-rule="evenodd"></path><path stroke="#000000" stroke-width="1.0" stroke-linejoin="round" stroke-linecap="butt" d="m19.304968 97.751495l15.740347 0l0 12.208115l-15.740347 0z" fill-rule="evenodd"></path><path fill="#000000" d="m30.867468 108.65555l-5.609375 0l0 -1.015625l2.203125 -2.1875q0.546875 -0.53125 0.875 -0.921875q0.34375 -0.390625 0.53125 -0.703125q0.1875 -0.328125 0.25 -0.609375q0.0625 -0.296875 0.0625 -0.625q0 -0.3125 -0.078125 -0.59375q-0.078125 -0.28125 -0.265625 -0.5q-0.171875 -0.21875 -0.453125 -0.34375q-0.28125 -0.125 -0.671875 -0.125q-0.53125 0 -0.984375 0.25q-0.4375 0.234375 -0.8125 0.625l-0.625 -0.75q0.484375 -0.515625 1.109375 -0.8125q0.640625 -0.3125 1.46875 -0.3125q0.5625 0 1.03125 0.171875q0.46875 0.171875 0.796875 0.5q0.34375 0.3125 0.53125 0.78125q0.1875 0.453125 0.1875 1.03125q0 0.484375 -0.140625 0.90625q-0.125 0.40625 -0.390625 0.828125q-0.265625 0.40625 -0.671875 0.859375q-0.390625 0.4375 -0.9375 0.96875l-1.546875 1.5l4.140625 0l0 1.078125z" fill-rule="nonzero"></path><path fill="#fff2cc" d="m3.5512447 109.98977l15.740347 0l0 12.208107l-15.740347 0z" fill-rule="evenodd"></path><path stroke="#000000" stroke-width="1.0" stroke-linejoin="round" stroke-linecap="butt" d="m3.5512447 109.98977l15.740347 0l0 12.208107l-15.740347 0z" fill-rule="evenodd"></path><path fill="#000000" d="m15.06687 116.15945q0 1.25 -0.296875 2.140625q-0.296875 0.890625 -0.890625 1.46875q-0.578125 0.578125 -1.453125 0.859375q-0.859375 0.265625 -2.0 0.265625l-0.703125 0l0 -0.984375l0.78125 0q0.84375 0 1.453125 -0.171875q0.609375 -0.171875 1.015625 -0.5q0.40625 -0.328125 0.625 -0.796875q0.21875 -0.46875 0.265625 -1.078125l0.03125 -0.265625q-0.40625 0.234375 -0.953125 0.390625q-0.53125 0.140625 -1.15625 0.140625q-0.640625 0 -1.125 -0.1875q-0.484375 -0.1875 -0.8125 -0.53125q-0.328125 -0.34375 -0.484375 -0.796875q-0.15625 -0.46875 -0.15625 -1.015625q0 -0.59375 0.203125 -1.109375q0.21875 -0.515625 0.609375 -0.890625q0.390625 -0.390625 0.921875 -0.609375q0.546875 -0.21875 1.1875 -0.21875q0.640625 0 1.171875 0.21875q0.546875 0.203125 0.9375 0.671875q0.390625 0.453125 0.609375 1.203125q0.21875 0.734375 0.21875 1.796875zm-2.984375 -2.953125q-0.359375 0 -0.671875 0.125q-0.3125 0.109375 -0.53125 0.34375q-0.21875 0.234375 -0.359375 0.578125q-0.125 0.328125 -0.125 0.765625q0 0.390625 0.09375 0.703125q0.09375 0.3125 0.28125 0.53125q0.203125 0.21875 0.515625 0.34375q0.3125 0.109375 0.75 0.109375q0.234375 0 0.484375 -0.046875q0.265625 -0.046875 0.5 -0.125q0.25 -0.078125 0.46875 -0.171875q0.234375 -0.109375 0.40625 -0.21875q0 -0.84375 -0.125 -1.40625q-0.125 -0.5625 -0.359375 -0.90625q-0.234375 -0.34375 -0.578125 -0.484375q-0.328125 -0.140625 -0.75 -0.140625z" fill-rule="nonzero"></path><path fill="#cfe2f3" d="m34.93661 109.98977l15.740349 0l0 12.208107l-15.740349 0z" fill-rule="evenodd"></path><path stroke="#000000" stroke-width="1.0" stroke-linejoin="round" stroke-linecap="butt" d="m34.93661 109.98977l15.740349 0l0 12.208107l-15.740349 0z" fill-rule="evenodd"></path><path fill="#000000" d="m46.327236 118.3157q0 0.546875 -0.234375 1.046875q-0.21875 0.484375 -0.671875 0.859375q-0.453125 0.359375 -1.140625 0.578125q-0.6875 0.203125 -1.609375 0.203125q-0.515625 0 -0.921875 -0.03125q-0.390625 -0.03125 -0.75 -0.078125l0 -1.015625q0.40625 0.078125 0.859375 0.125q0.453125 0.03125 0.921875 0.03125q0.625 0 1.078125 -0.109375q0.453125 -0.125 0.734375 -0.328125q0.296875 -0.21875 0.421875 -0.53125q0.140625 -0.3125 0.140625 -0.6875q0 -0.359375 -0.15625 -0.609375q-0.15625 -0.265625 -0.453125 -0.4375q-0.28125 -0.171875 -0.671875 -0.265625q-0.390625 -0.09375 -0.859375 -0.09375l-0.96875 0l0 -0.921875l0.984375 0q0.375 0 0.6875 -0.09375q0.328125 -0.109375 0.546875 -0.296875q0.234375 -0.1875 0.34375 -0.46875q0.125 -0.28125 0.125 -0.625q0 -0.6875 -0.421875 -1.0q-0.40625 -0.3125 -1.21875 -0.3125q-0.421875 0 -0.890625 0.09375q-0.453125 0.078125 -0.96875 0.25l0 -1.0q0.21875 -0.078125 0.46875 -0.140625q0.25 -0.0625 0.5 -0.09375q0.25 -0.046875 0.5 -0.0625q0.25 -0.03125 0.46875 -0.03125q0.6875 0 1.203125 0.15625q0.515625 0.140625 0.859375 0.421875q0.34375 0.265625 0.515625 0.65625q0.171875 0.390625 0.171875 0.875q0 0.734375 -0.375 1.234375q-0.375 0.484375 -1.015625 0.78125q0.328125 0.046875 0.640625 0.203125q0.328125 0.15625 0.578125 0.40625q0.265625 0.234375 0.421875 0.578125q0.15625 0.328125 0.15625 0.734375z" fill-rule="nonzero"></path><path fill="#fff2cc" d="m19.304968 109.98977l15.740347 0l0 12.208107l-15.740347 0z" fill-rule="evenodd"></path><path stroke="#000000" stroke-width="1.0" stroke-linejoin="round" stroke-linecap="butt" d="m19.304968 109.98977l15.740347 0l0 12.208107l-15.740347 0z" fill-rule="evenodd"></path><path fill="#000000" d="m31.289343 119.01882l-1.453125 0l0 1.875l-1.15625 0l0 -1.875l-4.09375 0l0 -1.0l3.625 -5.625l1.625 0l0 5.625l1.453125 0l0 1.0zm-2.609375 -5.53125l-2.96875 4.53125l2.96875 0l0 -4.53125z" fill-rule="nonzero"></path><path fill="#000000" fill-opacity="0.0" d="m130.95801 16.944881l-37.480316 33.984253" fill-rule="evenodd"></path><path stroke="#000000" stroke-width="1.0" stroke-linejoin="round" stroke-linecap="butt" stroke-dasharray="1.0,3.0" d="m130.95801 16.944881l-33.035446 29.953983" fill-rule="evenodd"></path><path fill="#000000" stroke="#000000" stroke-width="1.0" stroke-linecap="butt" d="m96.81308 45.67524l-2.2523956 4.2719193l4.471367 -1.8246689z" fill-rule="evenodd"></path><path fill="#000000" fill-opacity="0.0" d="m18.994751 16.194225l39.496063 34.23622" fill-rule="evenodd"></path><path stroke="#000000" stroke-width="1.0" stroke-linejoin="round" stroke-linecap="butt" stroke-dasharray="1.0,3.0" d="m18.994751 16.194225l34.962284 30.306225" fill-rule="evenodd"></path><path fill="#000000" stroke="#000000" stroke-width="1.0" stroke-linecap="butt" d="m52.875153 47.748547l4.5110054 1.7243538l-2.3472366 -4.2205467z" fill-rule="evenodd"></path><path fill="#000000" fill-opacity="0.0" d="m19.244095 109.91601l39.496063 -32.97637" fill-rule="evenodd"></path><path stroke="#000000" stroke-width="1.0" stroke-linejoin="round" stroke-linecap="butt" stroke-dasharray="1.0,3.0" d="m19.244095 109.91601l34.890347 -29.130936" fill-rule="evenodd"></path><path fill="#000000" stroke="#000000" stroke-width="1.0" stroke-linecap="butt" d="m55.19305 82.05297l2.424923 -4.176399l-4.5421333 1.6406021z" fill-rule="evenodd"></path><path fill="#cfe2f3" d="m99.55086 85.60658l15.740349 0l0 12.208107l-15.740349 0z" fill-rule="evenodd"></path><path stroke="#000000" stroke-width="1.0" stroke-linejoin="round" stroke-linecap="butt" d="m99.55086 85.60658l15.740349 0l0 12.208107l-15.740349 0z" fill-rule="evenodd"></path><path fill="#000000" d="m110.89461 93.791885q0 0.625 -0.28125 1.15625q-0.265625 0.515625 -0.75 0.890625q-0.46875 0.375 -1.125 0.578125q-0.640625 0.203125 -1.40625 0.203125q-0.1875 0 -0.40625 -0.015625q-0.21875 0 -0.4375 -0.015625q-0.203125 -0.015625 -0.40625 -0.03125q-0.203125 -0.015625 -0.375 -0.046875l0 -1.03125q0.359375 0.09375 0.8125 0.140625q0.453125 0.03125 0.90625 0.03125q0.515625 0 0.9375 -0.125q0.421875 -0.125 0.703125 -0.359375q0.296875 -0.234375 0.453125 -0.5625q0.15625 -0.328125 0.15625 -0.734375q0 -0.796875 -0.578125 -1.15625q-0.5625 -0.359375 -1.625 -0.359375l-1.609375 0l0 -4.34375l4.578125 0l0 0.984375l-3.515625 0l0 2.390625l0.75 0q0.609375 0 1.1875 0.109375q0.578125 0.109375 1.03125 0.390625q0.453125 0.265625 0.71875 0.734375q0.28125 0.46875 0.28125 1.171875z" fill-rule="nonzero"></path><path fill="#cfe2f3" d="m130.93623 85.60658l15.740341 0l0 12.208107l-15.740341 0z" fill-rule="evenodd"></path><path stroke="#000000" stroke-width="1.0" stroke-linejoin="round" stroke-linecap="butt" d="m130.93623 85.60658l15.740341 0l0 12.208107l-15.740341 0z" fill-rule="evenodd"></path><path fill="#000000" d="m142.42061 96.510635l-5.34375 0l0 -1.046875l2.1875 0l0 -6.21875l-2.03125 1.109375l-0.421875 -0.96875l2.703125 -1.421875l1.015625 0l0 7.5l1.890625 0l0 1.046875z" fill-rule="nonzero"></path><path fill="#cfe2f3" d="m115.30458 85.60658l15.740341 0l0 12.208107l-15.740341 0z" fill-rule="evenodd"></path><path stroke="#000000" stroke-width="1.0" stroke-linejoin="round" stroke-linecap="butt" d="m115.30458 85.60658l15.740341 0l0 12.208107l-15.740341 0z" fill-rule="evenodd"></path><path fill="#000000" d="m126.695206 93.93251q0 0.546875 -0.234375 1.046875q-0.21875 0.484375 -0.671875 0.859375q-0.453125 0.359375 -1.140625 0.578125q-0.6875 0.203125 -1.609375 0.203125q-0.515625 0 -0.921875 -0.03125q-0.390625 -0.03125 -0.75 -0.078125l0 -1.015625q0.40625 0.078125 0.859375 0.125q0.453125 0.03125 0.921875 0.03125q0.625 0 1.078125 -0.109375q0.453125 -0.125 0.734375 -0.328125q0.296875 -0.21875 0.421875 -0.53125q0.140625 -0.3125 0.140625 -0.6875q0 -0.359375 -0.15625 -0.609375q-0.15625 -0.265625 -0.453125 -0.4375q-0.28125 -0.171875 -0.671875 -0.265625q-0.390625 -0.09375 -0.859375 -0.09375l-0.96875 0l0 -0.921875l0.984375 0q0.375 0 0.6875 -0.09375q0.328125 -0.109375 0.546875 -0.296875q0.234375 -0.1875 0.34375 -0.46875q0.125 -0.28125 0.125 -0.625q0 -0.6875 -0.421875 -1.0q-0.40625 -0.3125 -1.21875 -0.3125q-0.421875 0 -0.890625 0.09375q-0.453125 0.078125 -0.96875 0.25l0 -1.0q0.21875 -0.078125 0.46875 -0.140625q0.25 -0.0625 0.5 -0.09375q0.25 -0.046875 0.5 -0.0625q0.25 -0.03125 0.46875 -0.03125q0.6875 0 1.203125 0.15625q0.515625 0.140625 0.859375 0.421875q0.34375 0.265625 0.515625 0.65625q0.171875 0.390625 0.171875 0.875q0 0.734375 -0.375 1.234375q-0.375 0.484375 -1.015625 0.78125q0.328125 0.046875 0.640625 0.203125q0.328125 0.15625 0.578125 0.40625q0.265625 0.234375 0.421875 0.578125q0.15625 0.328125 0.15625 0.734375z" fill-rule="nonzero"></path><path fill="#cfe2f3" d="m99.55086 97.751495l15.740349 0l0 12.208115l-15.740349 0z" fill-rule="evenodd"></path><path stroke="#000000" stroke-width="1.0" stroke-linejoin="round" stroke-linecap="butt" d="m99.55086 97.751495l15.740349 0l0 12.208115l-15.740349 0z" fill-rule="evenodd"></path><path fill="#000000" d="m111.11336 106.51492q0 0.546875 -0.21875 0.96875q-0.21875 0.421875 -0.625 0.703125q-0.390625 0.28125 -0.9375 0.4375q-0.53125 0.140625 -1.171875 0.140625q-0.6875 0 -1.21875 -0.140625q-0.53125 -0.15625 -0.890625 -0.4375q-0.359375 -0.28125 -0.546875 -0.65625q-0.171875 -0.390625 -0.171875 -0.859375q0 -0.78125 0.421875 -1.34375q0.4375 -0.5625 1.359375 -1.03125q-0.84375 -0.421875 -1.234375 -0.9375q-0.375 -0.515625 -0.375 -1.1875q0 -0.40625 0.171875 -0.796875q0.171875 -0.390625 0.515625 -0.6875q0.34375 -0.296875 0.84375 -0.46875q0.515625 -0.1875 1.21875 -0.1875q0.65625 0 1.15625 0.140625q0.5 0.140625 0.828125 0.40625q0.34375 0.25 0.515625 0.625q0.171875 0.375 0.171875 0.828125q0 0.734375 -0.421875 1.265625q-0.40625 0.515625 -1.171875 0.90625q0.375 0.1875 0.703125 0.421875q0.328125 0.21875 0.5625 0.5q0.25 0.28125 0.375 0.625q0.140625 0.34375 0.140625 0.765625zm-1.34375 -4.390625q0 -0.578125 -0.40625 -0.859375q-0.40625 -0.28125 -1.15625 -0.28125q-0.71875 0 -1.125 0.28125q-0.40625 0.265625 -0.40625 0.828125q0 0.25 0.09375 0.46875q0.09375 0.21875 0.296875 0.40625q0.21875 0.1875 0.515625 0.375q0.3125 0.171875 0.734375 0.359375q0.734375 -0.34375 1.09375 -0.71875q0.359375 -0.375 0.359375 -0.859375zm0.109375 4.484375q0 -0.25 -0.078125 -0.46875q-0.078125 -0.234375 -0.28125 -0.453125q-0.203125 -0.21875 -0.546875 -0.4375q-0.328125 -0.21875 -0.84375 -0.453125q-0.453125 0.203125 -0.75 0.421875q-0.296875 0.203125 -0.484375 0.421875q-0.1875 0.21875 -0.265625 0.453125q-0.078125 0.234375 -0.078125 0.5q0 0.296875 0.125 0.515625q0.125 0.21875 0.34375 0.375q0.21875 0.15625 0.53125 0.234375q0.3125 0.078125 0.65625 0.078125q0.359375 0 0.65625 -0.0625q0.3125 -0.078125 0.53125 -0.21875q0.21875 -0.140625 0.34375 -0.359375q0.140625 -0.234375 0.140625 -0.546875z" fill-rule="nonzero"></path><path fill="#fff2cc" d="m130.93623 97.751495l15.740341 0l0 12.208115l-15.740341 0z" fill-rule="evenodd"></path><path stroke="#000000" stroke-width="1.0" stroke-linejoin="round" stroke-linecap="butt" d="m130.93623 97.751495l15.740341 0l0 12.208115l-15.740341 0z" fill-rule="evenodd"></path><path fill="#000000" d="m142.27998 105.9368q0 0.625 -0.28125 1.15625q-0.265625 0.515625 -0.75 0.890625q-0.46875 0.375 -1.125 0.578125q-0.640625 0.203125 -1.40625 0.203125q-0.1875 0 -0.40625 -0.015625q-0.21875 0 -0.4375 -0.015625q-0.203125 -0.015625 -0.40625 -0.03125q-0.203125 -0.015625 -0.375 -0.046875l0 -1.03125q0.359375 0.09375 0.8125 0.140625q0.453125 0.03125 0.90625 0.03125q0.515625 0 0.9375 -0.125q0.421875 -0.125 0.703125 -0.359375q0.296875 -0.234375 0.453125 -0.5625q0.15625 -0.328125 0.15625 -0.734375q0 -0.796875 -0.578125 -1.15625q-0.5625 -0.359375 -1.625 -0.359375l-1.609375 0l0 -4.34375l4.578125 0l0 0.984375l-3.515625 0l0 2.390625l0.75 0q0.609375 0 1.1875 0.109375q0.578125 0.109375 1.03125 0.390625q0.453125 0.265625 0.71875 0.734375q0.28125 0.46875 0.28125 1.171875z" fill-rule="nonzero"></path><path fill="#fff2cc" d="m115.30458 97.751495l15.740341 0l0 12.208115l-15.740341 0z" fill-rule="evenodd"></path><path stroke="#000000" stroke-width="1.0" stroke-linejoin="round" stroke-linecap="butt" d="m115.30458 97.751495l15.740341 0l0 12.208115l-15.740341 0z" fill-rule="evenodd"></path><path fill="#000000" d="m126.86708 108.65555l-5.609375 0l0 -1.015625l2.203125 -2.1875q0.546875 -0.53125 0.875 -0.921875q0.34375 -0.390625 0.53125 -0.703125q0.1875 -0.328125 0.25 -0.609375q0.0625 -0.296875 0.0625 -0.625q0 -0.3125 -0.078125 -0.59375q-0.078125 -0.28125 -0.265625 -0.5q-0.171875 -0.21875 -0.453125 -0.34375q-0.28125 -0.125 -0.671875 -0.125q-0.53125 0 -0.984375 0.25q-0.4375 0.234375 -0.8125 0.625l-0.625 -0.75q0.484375 -0.515625 1.109375 -0.8125q0.640625 -0.3125 1.46875 -0.3125q0.5625 0 1.03125 0.171875q0.46875 0.171875 0.796875 0.5q0.34375 0.3125 0.53125 0.78125q0.1875 0.453125 0.1875 1.03125q0 0.484375 -0.140625 0.90625q-0.125 0.40625 -0.390625 0.828125q-0.265625 0.40625 -0.671875 0.859375q-0.390625 0.4375 -0.9375 0.96875l-1.546875 1.5l4.140625 0l0 1.078125z" fill-rule="nonzero"></path><path fill="#cfe2f3" d="m99.55086 109.98977l15.740349 0l0 12.208107l-15.740349 0z" fill-rule="evenodd"></path><path stroke="#000000" stroke-width="1.0" stroke-linejoin="round" stroke-linecap="butt" d="m99.55086 109.98977l15.740349 0l0 12.208107l-15.740349 0z" fill-rule="evenodd"></path><path fill="#000000" d="m111.06648 116.15945q0 1.25 -0.296875 2.140625q-0.296875 0.890625 -0.890625 1.46875q-0.578125 0.578125 -1.453125 0.859375q-0.859375 0.265625 -2.0 0.265625l-0.703125 0l0 -0.984375l0.78125 0q0.84375 0 1.453125 -0.171875q0.609375 -0.171875 1.015625 -0.5q0.40625 -0.328125 0.625 -0.796875q0.21875 -0.46875 0.265625 -1.078125l0.03125 -0.265625q-0.40625 0.234375 -0.953125 0.390625q-0.53125 0.140625 -1.15625 0.140625q-0.640625 0 -1.125 -0.1875q-0.484375 -0.1875 -0.8125 -0.53125q-0.328125 -0.34375 -0.484375 -0.796875q-0.15625 -0.46875 -0.15625 -1.015625q0 -0.59375 0.203125 -1.109375q0.21875 -0.515625 0.609375 -0.890625q0.390625 -0.390625 0.921875 -0.609375q0.546875 -0.21875 1.1875 -0.21875q0.640625 0 1.171875 0.21875q0.546875 0.203125 0.9375 0.671875q0.390625 0.453125 0.609375 1.203125q0.21875 0.734375 0.21875 1.796875zm-2.984375 -2.953125q-0.359375 0 -0.671875 0.125q-0.3125 0.109375 -0.53125 0.34375q-0.21875 0.234375 -0.359375 0.578125q-0.125 0.328125 -0.125 0.765625q0 0.390625 0.09375 0.703125q0.09375 0.3125 0.28125 0.53125q0.203125 0.21875 0.515625 0.34375q0.3125 0.109375 0.75 0.109375q0.234375 0 0.484375 -0.046875q0.265625 -0.046875 0.5 -0.125q0.25 -0.078125 0.46875 -0.171875q0.234375 -0.109375 0.40625 -0.21875q0 -0.84375 -0.125 -1.40625q-0.125 -0.5625 -0.359375 -0.90625q-0.234375 -0.34375 -0.578125 -0.484375q-0.328125 -0.140625 -0.75 -0.140625z" fill-rule="nonzero"></path><path fill="#fff2cc" d="m130.93623 109.98977l15.740341 0l0 12.208107l-15.740341 0z" fill-rule="evenodd"></path><path stroke="#000000" stroke-width="1.0" stroke-linejoin="round" stroke-linecap="butt" d="m130.93623 109.98977l15.740341 0l0 12.208107l-15.740341 0z" fill-rule="evenodd"></path><path fill="#000000" d="m142.32686 118.3157q0 0.546875 -0.234375 1.046875q-0.21875 0.484375 -0.671875 0.859375q-0.453125 0.359375 -1.140625 0.578125q-0.6875 0.203125 -1.609375 0.203125q-0.515625 0 -0.921875 -0.03125q-0.390625 -0.03125 -0.75 -0.078125l0 -1.015625q0.40625 0.078125 0.859375 0.125q0.453125 0.03125 0.921875 0.03125q0.625 0 1.078125 -0.109375q0.453125 -0.125 0.734375 -0.328125q0.296875 -0.21875 0.421875 -0.53125q0.140625 -0.3125 0.140625 -0.6875q0 -0.359375 -0.15625 -0.609375q-0.15625 -0.265625 -0.453125 -0.4375q-0.28125 -0.171875 -0.671875 -0.265625q-0.390625 -0.09375 -0.859375 -0.09375l-0.96875 0l0 -0.921875l0.984375 0q0.375 0 0.6875 -0.09375q0.328125 -0.109375 0.546875 -0.296875q0.234375 -0.1875 0.34375 -0.46875q0.125 -0.28125 0.125 -0.625q0 -0.6875 -0.421875 -1.0q-0.40625 -0.3125 -1.21875 -0.3125q-0.421875 0 -0.890625 0.09375q-0.453125 0.078125 -0.96875 0.25l0 -1.0q0.21875 -0.078125 0.46875 -0.140625q0.25 -0.0625 0.5 -0.09375q0.25 -0.046875 0.5 -0.0625q0.25 -0.03125 0.46875 -0.03125q0.6875 0 1.203125 0.15625q0.515625 0.140625 0.859375 0.421875q0.34375 0.265625 0.515625 0.65625q0.171875 0.390625 0.171875 0.875q0 0.734375 -0.375 1.234375q-0.375 0.484375 -1.015625 0.78125q0.328125 0.046875 0.640625 0.203125q0.328125 0.15625 0.578125 0.40625q0.265625 0.234375 0.421875 0.578125q0.15625 0.328125 0.15625 0.734375z" fill-rule="nonzero"></path><path fill="#fff2cc" d="m115.30458 109.98977l15.740341 0l0 12.208107l-15.740341 0z" fill-rule="evenodd"></path><path stroke="#000000" stroke-width="1.0" stroke-linejoin="round" stroke-linecap="butt" d="m115.30458 109.98977l15.740341 0l0 12.208107l-15.740341 0z" fill-rule="evenodd"></path><path fill="#000000" d="m127.288956 119.01882l-1.453125 0l0 1.875l-1.15625 0l0 -1.875l-4.09375 0l0 -1.0l3.625 -5.625l1.625 0l0 5.625l1.453125 0l0 1.0zm-2.609375 -5.53125l-2.96875 4.53125l2.96875 0l0 -4.53125z" fill-rule="nonzero"></path><path fill="#000000" fill-opacity="0.0" d="m131.20998 110.16535l-36.503937 -32.503937" fill-rule="evenodd"></path><path stroke="#000000" stroke-width="1.0" stroke-linejoin="round" stroke-linecap="butt" stroke-dasharray="1.0,3.0" d="m131.20998 110.16535l-32.022896 -28.513916" fill-rule="evenodd"></path><path fill="#000000" stroke="#000000" stroke-width="1.0" stroke-linecap="butt" d="m100.285484 80.41786l-4.4876404 -1.7842712l2.290825 4.2514267z" fill-rule="evenodd"></path></g></svg>
